<?xml version="1.0" encoding="UTF-8"?><svg id="Layer_1" xmlns="http://www.w3.org/2000/svg" viewBox="0 0 590.83 517.27"><defs><style>.cls-1{fill:#78a7d9;}.cls-1,.cls-2,.cls-3,.cls-4,.cls-5,.cls-6,.cls-7,.cls-8{stroke-width:0px;}.cls-2{fill:#4e89c7;}.cls-3{fill:#447fc1;}.cls-4{fill:#c0bfbf;}.cls-5{fill:#a5a5a5;}.cls-6{fill:#b7d0ec;}.cls-7{fill:#8f8f8f;}.cls-8{fill:#7e7e7e;}</style></defs><path class="cls-3" d="m361.5,229.29v76.04c0,14.24-32.34,21.38-64.72,21.4-7.92,0-15.83-.42-23.28-1.27-9.43-1.07-18.11-2.82-25.07-5.25-10.11-3.52-16.63-8.49-16.63-14.88v-76.04h129.69Z"/><path class="cls-2" d="m296.78,229.29v97.45c-7.92,0-15.83-.42-23.28-1.27-9.43-1.07-18.11-2.82-25.07-5.25-10.11-3.52-16.63-8.49-16.63-14.88v-76.04h64.98Z"/><path class="cls-6" d="m402.19,240.73v6.34c-.07.36-.29.67-.64.79l-104.97,37.62c-.18.06-.38.06-.55,0l-105.54-36.92c-.45-.16-.67-.6-.67-1.04v-5.78l212.38-1.01Z"/><path class="cls-1" d="m296.02,279.67l-105.54-36.92c-.86-.3-.9-1.7-.06-2.06l106.05-46.08c.21-.09.45-.09.67,0l104.46,45.38c.84.37.81,1.75-.05,2.06l-104.97,37.62c-.18.06-.37.07-.55,0Z"/><path class="cls-3" d="m378.57,293.27c-1.32,0-2.4-1.07-2.4-2.4v-39.38l-77.91-12.93c-1.31-.22-2.19-1.45-1.97-2.76.22-1.31,1.45-2.19,2.76-1.97l79.91,13.26c1.16.19,2.01,1.19,2.01,2.37v41.41c0,1.32-1.07,2.4-2.4,2.4Z"/><path class="cls-2" d="m386.71,293.38h-16.85c-.6,0-1-.63-.73-1.17l7.88-15.77c.72-1.44,2.79-1.39,3.45.08l6.99,15.72c.24.54-.15,1.14-.74,1.14Z"/><path class="cls-3" d="m349,28.13v61.53c0,11.52-26.17,17.3-52.37,17.32-6.4,0-12.81-.34-18.84-1.02-7.63-.86-14.65-2.28-20.29-4.25-8.18-2.85-13.45-6.87-13.45-12.04V28.13h104.94Z"/><path class="cls-2" d="m296.64,28.13v78.85c-6.4,0-12.81-.34-18.84-1.02-7.63-.86-14.65-2.28-20.29-4.25-8.18-2.85-13.45-6.87-13.45-12.04V28.13h52.58Z"/><path class="cls-6" d="m381.93,37.39v5.13c-.06.29-.23.54-.52.64l-84.94,30.44c-.14.05-.3.05-.45,0l-85.4-29.87c-.36-.13-.54-.48-.54-.84v-4.68l171.85-.82Z"/><path class="cls-1" d="m296.02,68.89l-85.4-29.87c-.7-.24-.73-1.37-.05-1.67L296.39.06c.17-.08.36-.08.54,0l84.53,36.72c.68.3.65,1.42-.04,1.67l-84.94,30.44c-.15.05-.3.05-.45,0Z"/><path class="cls-3" d="m362.82,79.9c-1.07,0-1.94-.87-1.94-1.94v-31.86l-63.04-10.46c-1.06-.18-1.77-1.17-1.6-2.23.18-1.06,1.18-1.77,2.23-1.6l64.66,10.73c.94.16,1.62.97,1.62,1.91v33.51c0,1.07-.87,1.94-1.94,1.94Z"/><path class="cls-2" d="m369.4,79.99h-13.63c-.49,0-.81-.51-.59-.95l6.38-12.76c.58-1.17,2.26-1.13,2.79.06l5.65,12.72c.19.43-.12.92-.6.92Z"/><path class="cls-8" d="m349,438.42v61.53c0,11.52-26.17,17.3-52.37,17.32-6.4,0-12.81-.34-18.84-1.02-7.63-.86-14.65-2.28-20.29-4.25-8.18-2.85-13.45-6.87-13.45-12.04v-61.53h104.94Z"/><path class="cls-7" d="m296.64,438.42v78.85c-6.4,0-12.81-.34-18.84-1.02-7.63-.86-14.65-2.28-20.29-4.25-8.18-2.85-13.45-6.87-13.45-12.04v-61.53h52.58Z"/><path class="cls-4" d="m381.93,447.68v5.13c-.06.29-.23.54-.52.64l-84.94,30.44c-.14.05-.3.05-.45,0l-85.4-29.87c-.36-.13-.54-.48-.54-.84v-4.68l171.85-.82Z"/><path class="cls-5" d="m296.02,479.18l-85.4-29.87c-.7-.24-.73-1.37-.05-1.67l85.82-37.29c.17-.08.36-.08.54,0l84.53,36.72c.68.3.65,1.42-.04,1.67l-84.94,30.44c-.15.05-.3.05-.45,0Z"/><path class="cls-8" d="m362.82,490.19c-1.07,0-1.94-.87-1.94-1.94v-31.86l-63.04-10.46c-1.06-.18-1.77-1.17-1.6-2.23.18-1.06,1.18-1.77,2.23-1.6l64.66,10.73c.94.16,1.62.97,1.62,1.91v33.51c0,1.07-.87,1.94-1.94,1.94Z"/><path class="cls-8" d="m369.4,490.28h-13.63c-.49,0-.81-.51-.59-.95l6.38-12.76c.58-1.17,2.26-1.13,2.79.06l5.65,12.72c.19.43-.12.92-.6.92Z"/><path class="cls-3" d="m557.88,352.6v61.53c0,11.52-26.17,17.3-52.37,17.32-6.4,0-12.81-.34-18.84-1.02-7.63-.86-14.65-2.28-20.29-4.25-8.18-2.85-13.45-6.87-13.45-12.04v-61.53h104.94Z"/><path class="cls-2" d="m505.51,352.6v78.85c-6.4,0-12.81-.34-18.84-1.02-7.63-.86-14.65-2.28-20.29-4.25-8.18-2.85-13.45-6.87-13.45-12.04v-61.53h52.58Z"/><path class="cls-6" d="m590.8,361.86v5.13c-.06.29-.23.54-.52.64l-84.94,30.44c-.14.05-.3.05-.45,0l-85.4-29.87c-.36-.13-.54-.48-.54-.84v-4.68l171.85-.82Z"/><path class="cls-1" d="m504.9,393.37l-85.4-29.87c-.7-.24-.73-1.37-.05-1.67l85.82-37.29c.17-.08.36-.08.54,0l84.53,36.72c.68.3.65,1.42-.04,1.67l-84.94,30.44c-.15.05-.3.05-.45,0Z"/><path class="cls-3" d="m571.69,404.37c-1.07,0-1.94-.87-1.94-1.94v-31.86l-63.04-10.46c-1.06-.18-1.77-1.17-1.6-2.23.18-1.06,1.18-1.77,2.23-1.6l64.66,10.73c.94.16,1.62.97,1.62,1.91v33.51c0,1.07-.87,1.94-1.94,1.94Z"/><path class="cls-3" d="m578.28,404.47h-13.63c-.49,0-.81-.51-.59-.95l6.38-12.76c.58-1.17,2.26-1.13,2.79.06l5.65,12.72c.19.43-.12.92-.6.92Z"/><path class="cls-8" d="m557.88,120.26v61.53c0,11.52-26.17,17.3-52.37,17.32-6.4,0-12.81-.34-18.84-1.02-7.63-.86-14.65-2.28-20.29-4.25-8.18-2.85-13.45-6.87-13.45-12.04v-61.53h104.94Z"/><path class="cls-7" d="m505.51,120.26v78.85c-6.4,0-12.81-.34-18.84-1.02-7.63-.86-14.65-2.28-20.29-4.25-8.18-2.85-13.45-6.87-13.45-12.04v-61.53h52.58Z"/><path class="cls-4" d="m590.8,129.52v5.13c-.06.29-.23.54-.52.64l-84.94,30.44c-.14.05-.3.05-.45,0l-85.4-29.87c-.36-.13-.54-.48-.54-.84v-4.68l171.85-.82Z"/><path class="cls-5" d="m504.9,161.02l-85.4-29.87c-.7-.24-.73-1.37-.05-1.67l85.82-37.29c.17-.08.36-.08.54,0l84.53,36.72c.68.3.65,1.42-.04,1.67l-84.94,30.44c-.15.05-.3.05-.45,0Z"/><path class="cls-8" d="m571.69,172.03c-1.07,0-1.94-.87-1.94-1.94v-31.86l-63.04-10.46c-1.06-.18-1.77-1.17-1.6-2.23.18-1.06,1.18-1.77,2.23-1.6l64.66,10.73c.94.16,1.62.97,1.62,1.91v33.51c0,1.07-.87,1.94-1.94,1.94Z"/><path class="cls-8" d="m578.28,172.12h-13.63c-.49,0-.81-.51-.59-.95l6.38-12.76c.58-1.17,2.26-1.13,2.79.06l5.65,12.72c.19.43-.12.92-.6.92Z"/><path class="cls-3" d="m138.92,352.6v61.53c0,11.52-26.17,17.3-52.37,17.32-6.4,0-12.81-.34-18.84-1.02-7.63-.86-14.65-2.28-20.29-4.25-8.18-2.85-13.45-6.87-13.45-12.04v-61.53h104.94Z"/><path class="cls-2" d="m86.56,352.6v78.85c-6.4,0-12.81-.34-18.84-1.02-7.63-.86-14.65-2.28-20.29-4.25-8.18-2.85-13.45-6.87-13.45-12.04v-61.53h52.58Z"/><path class="cls-6" d="m171.85,361.86v5.13c-.06.29-.23.54-.52.64l-84.94,30.44c-.14.05-.3.05-.45,0L.54,368.21C.18,368.08,0,367.72,0,367.36v-4.68l171.85-.82Z"/><path class="cls-1" d="m85.94,393.37L.54,363.49c-.7-.24-.73-1.37-.05-1.67l85.82-37.29c.17-.08.36-.08.54,0l84.53,36.72c.68.3.65,1.42-.04,1.67l-84.94,30.44c-.15.05-.3.05-.45,0Z"/><path class="cls-3" d="m152.74,404.37c-1.07,0-1.94-.87-1.94-1.94v-31.86l-63.04-10.46c-1.06-.18-1.77-1.17-1.6-2.23.18-1.06,1.18-1.77,2.23-1.6l64.66,10.73c.94.16,1.62.97,1.62,1.91v33.51c0,1.07-.87,1.94-1.94,1.94Z"/><path class="cls-3" d="m159.32,404.47h-13.63c-.49,0-.81-.51-.59-.95l6.38-12.76c.58-1.17,2.26-1.13,2.79.06l5.65,12.72c.19.43-.12.92-.6.92Z"/><path class="cls-8" d="m138.92,120.26v61.53c0,11.52-26.17,17.3-52.37,17.32-6.4,0-12.81-.34-18.84-1.02-7.63-.86-14.65-2.28-20.29-4.25-8.18-2.85-13.45-6.87-13.45-12.04v-61.53h104.94Z"/><path class="cls-7" d="m86.56,120.26v78.85c-6.4,0-12.81-.34-18.84-1.02-7.63-.86-14.65-2.28-20.29-4.25-8.18-2.85-13.45-6.87-13.45-12.04v-61.53h52.58Z"/><path class="cls-4" d="m171.85,129.52v5.13c-.06.29-.23.54-.52.64l-84.94,30.44c-.14.05-.3.05-.45,0L.54,135.86c-.36-.13-.54-.48-.54-.84v-4.68l171.85-.82Z"/><path class="cls-5" d="m85.94,161.02L.54,131.15c-.7-.24-.73-1.37-.05-1.67l85.82-37.29c.17-.08.36-.08.54,0l84.53,36.72c.68.3.65,1.42-.04,1.67l-84.94,30.44c-.15.05-.3.05-.45,0Z"/><path class="cls-8" d="m152.74,172.03c-1.07,0-1.94-.87-1.94-1.94v-31.86l-63.04-10.46c-1.06-.18-1.77-1.17-1.6-2.23.18-1.06,1.18-1.77,2.23-1.6l64.66,10.73c.94.16,1.62.97,1.62,1.91v33.51c0,1.07-.87,1.94-1.94,1.94Z"/><path class="cls-8" d="m159.32,172.12h-13.63c-.49,0-.81-.51-.59-.95l6.38-12.76c.58-1.17,2.26-1.13,2.79.06l5.65,12.72c.19.43-.12.92-.6.92Z"/><path class="cls-4" d="m95.76,205.22v116.84l-8.91-3.87c-.17-.08-.37-.08-.54,0l-10.67,4.64v-117.7c3.59.23,7.25.34,10.92.34,3.08,0,6.16-.08,9.2-.25Z"/><path class="cls-4" d="m516.11,205.14v116.47l-10.31-4.48c-.17-.08-.36-.08-.53,0l-9.27,4.03v-115.95c3.14.18,6.33.26,9.51.26,3.56,0,7.11-.11,10.6-.33Z"/><path class="cls-2" d="m306.47,115.17v76.07l-9.33-4.05c-.21-.09-.45-.09-.66,0l-10.13,4.4v-76.44c3.39.2,6.84.3,10.29.3s6.59-.1,9.83-.28Z"/><path class="cls-2" d="m240.85,325.73l-54.57,36.54-21.93-9.53,62.16-41.62v.57c0,5.9,5.54,10.58,14.34,14.04Z"/><path class="cls-2" d="m428.91,353.03l-21.93,9.53-53.72-35.96c9.2-3.2,15.44-7.58,16.53-13.14l59.12,39.57Z"/><path class="cls-4" d="m248.93,107.2l-57.67,26.13-24.89-10.81,68.16-30.88v3.2c0,5.17,5.27,9.19,13.45,12.04.31.11.63.22.95.32Z"/><path class="cls-4" d="m426.09,121.77l-24.88,10.82h-.01l-56.48-25.59c8.39-2.86,13.81-6.92,13.81-12.16v-3.67l67.56,30.6Z"/><path class="cls-4" d="m454.27,429.01l-74.44,33.73-2.18-4.81,17.29-6.19c.7-.25.72-1.37.04-1.67l-18.35-7.97,69.95-31.69v9.03c0,3.82,2.88,7.02,7.69,9.57Z"/><path class="cls-4" d="m213.04,458.28l-2.76,6.1-77.82-35.25c7.82-2.84,12.81-6.78,12.81-11.81v-4.47l67.38,30.52-16.72,7.27c-.69.3-.65,1.43.05,1.67l17.06,5.97Z"/></svg>