<?xml version="1.0" encoding="UTF-8"?><svg id="Layer_1" xmlns="http://www.w3.org/2000/svg" viewBox="0 0 557.24 544.71"><defs><style>.cls-1{fill:#78a7d9;}.cls-1,.cls-2,.cls-3,.cls-4,.cls-5{stroke-width:0px;}.cls-2{fill:#4e89c7;}.cls-3{fill:#447fc1;}.cls-4{fill:#b7d0ec;}.cls-5{fill:#7e7e7e;}</style></defs><path class="cls-3" d="m356.7,226.15v91.6c0,17.15-38.96,25.76-77.96,25.78-9.54,0-19.07-.5-28.05-1.52-11.35-1.29-21.81-3.39-30.2-6.33-12.18-4.24-20.03-10.22-20.03-17.93v-91.6h156.23Z"/><path class="cls-2" d="m278.74,226.15v117.39c-9.54,0-19.07-.5-28.05-1.52-11.35-1.29-21.81-3.39-30.2-6.33-12.18-4.24-20.03-10.22-20.03-17.93v-91.6h78.27Z"/><path class="cls-4" d="m405.72,239.94v7.63c-.08.43-.35.81-.77.96l-126.45,45.32c-.21.07-.45.07-.67,0l-127.14-44.47c-.54-.19-.81-.72-.81-1.25v-6.97l255.84-1.22Z"/><path class="cls-1" d="m277.83,286.84l-127.14-44.48c-1.04-.36-1.09-2.04-.07-2.49l127.76-55.51c.26-.11.54-.11.8,0l125.84,54.66c1.01.44.97,2.11-.06,2.48l-126.45,45.32c-.22.08-.45.08-.67,0Z"/><path class="cls-3" d="m377.27,303.23c-1.6,0-2.89-1.29-2.89-2.89v-47.44l-93.85-15.58c-1.57-.26-2.64-1.75-2.38-3.32.26-1.57,1.75-2.63,3.32-2.38l96.26,15.98c1.39.23,2.42,1.44,2.42,2.85v49.89c0,1.6-1.29,2.89-2.89,2.89Z"/><path class="cls-3" d="m387.07,303.36h-20.3c-.73,0-1.2-.76-.87-1.41l9.5-18.99c.87-1.74,3.36-1.68,4.15.09l8.42,18.94c.29.65-.19,1.37-.89,1.37Z"/><path class="cls-3" d="m341.72,33.88v74.12c0,13.88-31.53,20.84-63.08,20.86-7.72,0-15.43-.41-22.69-1.23-9.19-1.04-17.65-2.75-24.44-5.12-9.86-3.43-16.21-8.27-16.21-14.51V33.88h126.42Z"/><path class="cls-2" d="m278.64,33.88v94.98c-7.72,0-15.43-.41-22.69-1.23-9.19-1.04-17.65-2.75-24.44-5.12-9.86-3.43-16.21-8.27-16.21-14.51V33.88h63.34Z"/><path class="cls-4" d="m381.39,45.04v6.18c-.07.35-.28.65-.62.77l-102.32,36.67c-.17.06-.37.06-.54,0l-102.88-35.99c-.43-.15-.65-.58-.65-1.01v-5.64l207.01-.99Z"/><path class="cls-1" d="m277.9,82.99l-102.88-35.99c-.84-.29-.88-1.65-.06-2.01L278.35.07c.21-.09.44-.09.65,0l101.82,44.23c.82.36.79,1.71-.05,2.01l-102.32,36.67c-.18.06-.36.06-.54,0Z"/><path class="cls-3" d="m358.37,96.25c-1.29,0-2.34-1.05-2.34-2.34v-38.38l-75.94-12.6c-1.27-.21-2.13-1.41-1.92-2.69.21-1.27,1.42-2.13,2.69-1.92l77.89,12.93c1.13.19,1.95,1.16,1.95,2.31v40.37c0,1.29-1.05,2.34-2.34,2.34Z"/><path class="cls-3" d="m366.3,96.36h-16.42c-.59,0-.97-.62-.71-1.14l7.68-15.37c.7-1.4,2.72-1.36,3.36.08l6.81,15.33c.23.52-.15,1.11-.72,1.11Z"/><path class="cls-3" d="m517.54,338.87v74.12c0,13.88-31.53,20.84-63.08,20.86-7.72,0-15.43-.41-22.69-1.23-9.19-1.04-17.65-2.75-24.44-5.12-9.86-3.43-16.21-8.27-16.21-14.51v-74.12h126.42Z"/><path class="cls-2" d="m454.46,338.87v94.98c-7.72,0-15.43-.41-22.69-1.23-9.19-1.04-17.65-2.75-24.44-5.12-9.86-3.43-16.21-8.27-16.21-14.51v-74.12h63.34Z"/><path class="cls-4" d="m557.21,350.02v6.18c-.07.35-.28.65-.62.77l-102.32,36.67c-.17.06-.37.06-.54,0l-102.88-35.99c-.43-.15-.65-.58-.65-1.01v-5.64l207.01-.99Z"/><path class="cls-1" d="m453.73,387.97l-102.88-35.99c-.84-.29-.88-1.65-.06-2.01l103.37-44.92c.21-.09.44-.09.65,0l101.82,44.23c.82.36.79,1.71-.05,2.01l-102.32,36.67c-.18.06-.36.06-.54,0Z"/><path class="cls-3" d="m534.19,401.23c-1.29,0-2.34-1.05-2.34-2.34v-38.38l-75.94-12.6c-1.27-.21-2.13-1.41-1.92-2.69.21-1.27,1.42-2.13,2.69-1.92l77.89,12.93c1.13.19,1.95,1.16,1.95,2.31v40.37c0,1.29-1.05,2.34-2.34,2.34Z"/><path class="cls-3" d="m542.12,401.34h-16.42c-.59,0-.97-.62-.71-1.14l7.68-15.37c.7-1.4,2.72-1.36,3.36.08l6.81,15.33c.23.52-.15,1.11-.72,1.11Z"/><path class="cls-3" d="m167.35,338.87v74.12c0,13.88-31.53,20.84-63.08,20.86-7.72,0-15.43-.41-22.69-1.23-9.19-1.04-17.65-2.75-24.44-5.12-9.86-3.43-16.21-8.27-16.21-14.51v-74.12h126.42Z"/><path class="cls-2" d="m104.27,338.87v94.98c-7.72,0-15.43-.41-22.69-1.23-9.19-1.04-17.65-2.75-24.44-5.12-9.86-3.43-16.21-8.27-16.21-14.51v-74.12h63.34Z"/><path class="cls-4" d="m207.01,350.02v6.18c-.07.35-.28.65-.62.77l-102.32,36.67c-.17.06-.37.06-.54,0L.65,357.66c-.43-.15-.65-.58-.65-1.01v-5.64l207.01-.99Z"/><path class="cls-1" d="m103.53,387.97L.65,351.98c-.84-.29-.88-1.65-.06-2.01l103.37-44.92c.21-.09.44-.09.65,0l101.82,44.23c.82.36.79,1.71-.05,2.01l-102.32,36.67c-.18.06-.36.06-.54,0Z"/><path class="cls-3" d="m183.99,401.23c-1.29,0-2.34-1.05-2.34-2.34v-38.38l-75.94-12.6c-1.27-.21-2.13-1.41-1.92-2.69.21-1.27,1.42-2.13,2.69-1.92l77.89,12.93c1.13.19,1.95,1.16,1.95,2.31v40.37c0,1.29-1.05,2.34-2.34,2.34Z"/><path class="cls-3" d="m191.92,401.34h-16.42c-.59,0-.97-.62-.71-1.14l7.68-15.37c.7-1.4,2.72-1.36,3.36.08l6.81,15.33c.23.52-.15,1.11-.72,1.11Z"/><polygon class="cls-5" points="279.44 410.44 221 438.35 279.44 466.26 337.87 438.35 279.44 410.44"/><polygon class="cls-5" points="215.73 516.19 275.46 544.71 275.46 473.19 215.73 444.66 215.73 516.19"/><polygon class="cls-5" points="283.42 473.19 283.42 544.71 343.14 516.19 343.14 444.66 283.42 473.19"/><polygon class="cls-5" points="453.28 108.01 394.84 135.92 453.28 163.83 511.71 135.92 453.28 108.01"/><polygon class="cls-5" points="389.57 213.76 449.3 242.29 449.3 170.76 389.57 142.24 389.57 213.76"/><polygon class="cls-5" points="457.26 170.76 457.26 242.29 516.98 213.76 516.98 142.24 457.26 170.76"/><polygon class="cls-5" points="105.6 108.01 47.16 135.92 105.6 163.83 164.03 135.92 105.6 108.01"/><polygon class="cls-5" points="41.89 213.76 101.61 242.29 101.61 170.76 41.89 142.24 41.89 213.76"/><polygon class="cls-5" points="109.58 170.76 109.58 242.29 169.3 213.76 169.3 142.24 109.58 170.76"/><polygon class="cls-5" points="176.81 140.74 214.68 118.87 210.45 115.4 208.22 108.18 169.81 130.36 176.81 133.7 176.81 140.74"/><polygon class="cls-5" points="349.43 113.56 344.2 118.87 382.06 140.74 382.06 133.7 389.07 130.36 350.66 108.18 349.43 113.56"/><polygon class="cls-5" points="453.28 252.52 447.04 249.53 447.04 301.81 448.15 301.81 453.28 299.36 458.41 301.81 459.52 301.81 459.52 249.53 453.28 252.52"/><polygon class="cls-5" points="176.81 418.17 171.57 420.68 208.22 441.83 208.22 436.13 216.48 432.18 176.81 409.28 176.81 418.17"/><polygon class="cls-5" points="382.06 409.28 342.4 432.18 350.66 436.13 350.66 441.84 387.31 420.68 382.06 418.17 382.06 409.28"/><polygon class="cls-5" points="99.35 249.53 99.35 302.34 105.6 299.36 111.84 302.35 111.84 249.53 105.6 252.52 99.35 249.53"/><path class="cls-2" d="m204.81,335.26l-7.45,4.3-14.03-6.1,13.31-7.68c1.04,3.59,3.91,6.76,8.17,9.48Z"/><path class="cls-2" d="m352.3,334.65l7.45,4.3,14.03-6.1-13.31-7.68c-1.04,3.59-3.91,6.76-8.17,9.48Z"/><path class="cls-2" d="m286.37,134.99v43.93l-7.19-3.12c-.26-.11-.55-.11-.81,0l-4.87,2.12v-42.84c1.71.04,3.43.06,5.13.06,2.58,0,5.16-.05,7.73-.15Z"/></svg>