<?xml version="1.0" encoding="UTF-8"?><svg id="Layer_1" xmlns="http://www.w3.org/2000/svg" viewBox="0 0 570.86 582.52"><defs><style>.cls-1{fill:#78a7d9;}.cls-1,.cls-2,.cls-3,.cls-4,.cls-5,.cls-6{stroke-width:0px;}.cls-2{fill:#4e89c7;}.cls-3{fill:#447fc1;}.cls-4{fill:#b7d0ec;}.cls-5{fill:#8f8f8f;}.cls-6{fill:#7e7e7e;}</style></defs><path class="cls-3" d="m348.17,251.52v73.93c0,13.84-31.44,20.79-62.92,20.81-7.7,0-15.39-.41-22.63-1.23-9.16-1.04-17.6-2.74-24.38-5.11-9.83-3.42-16.16-8.25-16.16-14.47v-73.93h126.09Z"/><path class="cls-2" d="m285.26,251.52v94.74c-7.7,0-15.39-.41-22.63-1.23-9.16-1.04-17.6-2.74-24.38-5.11-9.83-3.42-16.16-8.25-16.16-14.47v-73.93h63.17Z"/><path class="cls-4" d="m387.74,262.65v6.16c-.07.35-.28.65-.62.77l-102.06,36.58c-.17.06-.37.06-.54,0l-102.61-35.89c-.43-.15-.65-.58-.65-1.01v-5.62l206.48-.99Z"/><path class="cls-1" d="m284.52,300.5l-102.61-35.9c-.84-.29-.88-1.65-.06-2.01l103.11-44.8c.21-.09.44-.09.65,0l101.56,44.12c.82.36.78,1.71-.05,2l-102.06,36.58c-.18.06-.36.06-.54,0Z"/><path class="cls-3" d="m364.78,313.72c-1.29,0-2.33-1.04-2.33-2.33v-38.29l-75.74-12.57c-1.27-.21-2.13-1.41-1.92-2.68.21-1.27,1.41-2.13,2.68-1.92l77.69,12.9c1.12.19,1.95,1.16,1.95,2.3v40.26c0,1.29-1.04,2.33-2.33,2.33Z"/><path class="cls-3" d="m372.68,313.83h-16.38c-.59,0-.97-.62-.71-1.14l7.66-15.33c.7-1.4,2.71-1.35,3.35.08l6.79,15.29c.23.52-.15,1.11-.72,1.11Z"/><path class="cls-3" d="m336.11,27.35v59.82c0,11.2-25.44,16.82-50.91,16.84-6.23,0-12.45-.33-18.31-1-7.42-.84-14.24-2.22-19.72-4.13-7.96-2.77-13.08-6.68-13.08-11.71V27.35h102.03Z"/><path class="cls-2" d="m285.2,27.35v76.66c-6.23,0-12.45-.33-18.31-1-7.42-.84-14.24-2.22-19.72-4.13-7.96-2.77-13.08-6.68-13.08-11.71V27.35h51.12Z"/><path class="cls-4" d="m368.12,36.35v4.99c-.05.28-.23.53-.5.63l-82.58,29.6c-.14.05-.3.05-.44,0l-83.03-29.04c-.35-.12-.53-.47-.53-.82v-4.55l167.08-.8Z"/><path class="cls-1" d="m284.6,66.98l-83.03-29.04c-.68-.24-.71-1.34-.05-1.62L284.96.05c.17-.07.35-.07.52,0l82.18,35.7c.66.29.63,1.38-.04,1.62l-82.58,29.6c-.14.05-.29.05-.44,0Z"/><path class="cls-3" d="m349.54,77.68c-1.04,0-1.89-.84-1.89-1.89v-30.98l-61.29-10.17c-1.03-.17-1.72-1.14-1.55-2.17.17-1.03,1.14-1.72,2.17-1.55l62.86,10.43c.91.15,1.58.94,1.58,1.86v32.58c0,1.04-.84,1.89-1.89,1.89Z"/><path class="cls-3" d="m355.94,77.77h-13.26c-.47,0-.78-.5-.57-.92l6.2-12.4c.57-1.13,2.2-1.1,2.71.06l5.5,12.37c.19.42-.12.9-.58.9Z"/><path class="cls-3" d="m538.83,378.98v59.82c0,11.2-25.44,16.82-50.91,16.84-6.23,0-12.45-.33-18.31-1-7.42-.84-14.24-2.22-19.72-4.13-7.96-2.77-13.08-6.68-13.08-11.71v-59.82h102.03Z"/><path class="cls-2" d="m487.92,378.98v76.66c-6.23,0-12.45-.33-18.31-1-7.42-.84-14.24-2.22-19.72-4.13-7.96-2.77-13.08-6.68-13.08-11.71v-59.82h51.12Z"/><path class="cls-4" d="m570.84,387.99v4.99c-.05.28-.23.53-.5.63l-82.58,29.6c-.14.05-.3.05-.44,0l-83.03-29.04c-.35-.12-.53-.47-.53-.82v-4.55l167.08-.8Z"/><path class="cls-1" d="m487.32,418.61l-83.03-29.04c-.68-.24-.71-1.34-.05-1.62l83.43-36.25c.17-.07.35-.07.52,0l82.18,35.7c.66.29.63,1.38-.04,1.62l-82.58,29.6c-.14.05-.29.05-.44,0Z"/><path class="cls-3" d="m552.26,429.32c-1.04,0-1.89-.84-1.89-1.89v-30.98l-61.29-10.17c-1.03-.17-1.72-1.14-1.55-2.17.17-1.03,1.14-1.72,2.17-1.55l62.86,10.43c.91.15,1.58.94,1.58,1.86v32.58c0,1.04-.84,1.89-1.89,1.89Z"/><path class="cls-3" d="m558.66,429.41h-13.26c-.47,0-.78-.5-.57-.92l6.2-12.4c.57-1.13,2.2-1.1,2.71.06l5.5,12.37c.19.42-.12.9-.58.9Z"/><path class="cls-3" d="m135.06,378.98v59.82c0,11.2-25.44,16.82-50.91,16.84-6.23,0-12.45-.33-18.31-1-7.42-.84-14.24-2.22-19.72-4.13-7.96-2.77-13.08-6.68-13.08-11.71v-59.82h102.03Z"/><path class="cls-2" d="m84.15,378.98v76.66c-6.23,0-12.45-.33-18.31-1-7.42-.84-14.24-2.22-19.72-4.13-7.96-2.77-13.08-6.68-13.08-11.71v-59.82h51.12Z"/><path class="cls-4" d="m167.08,387.99v4.99c-.05.28-.23.53-.5.63l-82.58,29.6c-.14.05-.3.05-.44,0L.53,394.15c-.35-.12-.53-.47-.53-.82v-4.55l167.08-.8Z"/><path class="cls-1" d="m83.56,418.61L.53,389.57c-.68-.24-.71-1.34-.05-1.62l83.43-36.25c.17-.07.35-.07.52,0l82.18,35.7c.66.29.63,1.38-.04,1.62l-82.58,29.6c-.14.05-.29.05-.44,0Z"/><path class="cls-3" d="m148.5,429.32c-1.04,0-1.89-.84-1.89-1.89v-30.98l-61.29-10.17c-1.03-.17-1.72-1.14-1.55-2.17.17-1.03,1.14-1.72,2.17-1.55l62.86,10.43c.91.15,1.58.94,1.58,1.86v32.58c0,1.04-.84,1.89-1.89,1.89Z"/><path class="cls-3" d="m154.9,429.41h-13.26c-.47,0-.78-.5-.57-.92l6.2-12.4c.57-1.13,2.2-1.1,2.71.06l5.5,12.37c.19.42-.12.9-.58.9Z"/><polygon class="cls-6" points="286.38 474.16 239.22 496.68 286.38 519.2 333.54 496.68 286.38 474.16"/><polygon class="cls-6" points="234.96 559.5 283.16 582.52 283.16 524.8 234.96 501.78 234.96 559.5"/><polygon class="cls-6" points="289.59 524.8 289.59 582.52 337.79 559.5 337.79 501.78 289.59 524.8"/><polygon class="cls-6" points="486.81 125.47 439.65 148 486.81 170.52 533.97 148 486.81 125.47"/><polygon class="cls-6" points="435.39 210.82 483.59 233.84 483.59 176.12 435.39 153.1 435.39 210.82"/><polygon class="cls-6" points="490.03 176.12 490.03 233.84 538.22 210.82 538.22 153.1 490.03 176.12"/><polygon class="cls-6" points="85.94 125.47 38.78 148 85.94 170.52 133.11 148 85.94 125.47"/><polygon class="cls-6" points="34.53 210.82 82.73 233.84 82.73 176.12 34.53 153.1 34.53 210.82"/><polygon class="cls-6" points="89.16 176.12 89.16 233.84 137.36 210.82 137.36 153.1 89.16 176.12"/><path class="cls-5" d="m352.47,485.33c-2.46-1.44-5.36-1.74-7.89-.54l-5.23,2.49c1.66,1.83.2,2.75.75,3.98l6.15-2.79c1.46-.69,3.13-.53,4.55.28.13.07.25.14.38.22l3.62-1.72c-.7-.76-1.48-1.41-2.33-1.91Z"/><path class="cls-5" d="m354.15,494.7c-.08,1.92-1.07,3.64-2.74,4.44l-5.64,2.68c-.39,3.21,1.11,2.45,1.69,3.67l5.62-2.67c3.48-1.66,5.21-5.67,4.54-9.76l-3.46,1.65Z"/><path class="cls-5" d="m392.11,463.86c-.09.06-.18.12-.25.2l-14.21,13.75c-.72.69-.65,1.92.14,2.74.71.73,1.75.89,2.48.43.09-.06.18-.12.25-.2l14.21-13.75c.72-.69.65-1.92-.14-2.74-.71-.73-1.75-.89-2.48-.43Z"/><path class="cls-5" d="m384.45,478.71c.35,2.37-.67,4.66-2.68,5.62l-11.6,5.51c-1.59.75-3.43.5-4.93-.5l-3.62,1.72c2.75,3.01,6.89,4.15,10.32,2.52l11.6-5.51c4.18-1.98,5.83-7.36,3.85-12.21l-2.94,2.85Zm-9.5-8.74l-11.6,5.51c-3.48,1.66-5.21,5.67-4.54,9.76l3.58-1.7c.11-1.87,1.09-3.54,2.73-4.32l11.6-5.51c1.12-.53,2.37-.56,3.54-.18l2.91-2.81c-2.52-1.62-5.58-2.01-8.23-.75Z"/><path class="cls-5" d="m368.11,486.7c.9-.43,1.23-1.61.74-2.64-.49-1.03-1.62-1.52-2.52-1.1l-17.86,8.48c-.9.43-1.23,1.61-.74,2.64.49,1.03,1.62,1.52,2.52,1.1l17.86-8.48Z"/><path class="cls-5" d="m422.31,457.31c2.46,1.44,5.36,1.74,7.89.54l5.23-2.49c-1.66-1.83-.2-2.75-.75-3.98l-6.15,2.79c-1.46.69-3.13.53-4.55-.28-.13-.07-.25-.14-.38-.22l-3.62,1.72c.7.76,1.48,1.41,2.33,1.91Z"/><path class="cls-5" d="m420.63,447.94c.08-1.92,1.07-3.64,2.74-4.44l5.64-2.68c.39-3.21-1.11-2.45-1.69-3.67l-5.62,2.67c-3.48,1.66-5.21,5.67-4.54,9.76l3.46-1.65Z"/><path class="cls-5" d="m390.33,463.93c-.35-2.37.67-4.66,2.68-5.62l11.6-5.51c1.59-.75,3.43-.5,4.93.5l3.62-1.72c-2.75-3.01-6.89-4.15-10.32-2.52l-11.6,5.51c-4.18,1.98-5.83,7.36-3.85,12.21l2.94-2.85Zm9.5,8.74l11.6-5.51c3.48-1.66,5.21-5.67,4.54-9.76l-3.58,1.7c-.11,1.87-1.09,3.54-2.73,4.32l-11.6,5.51c-1.12.53-2.37.56-3.54.18l-2.91,2.81c2.52,1.62,5.58,2.01,8.23.75Z"/><path class="cls-5" d="m406.67,455.94c-.9.43-1.23,1.61-.74,2.64.49,1.03,1.62,1.52,2.52,1.1l17.86-8.48c.9-.43,1.23-1.61.74-2.64-.49-1.03-1.62-1.52-2.52-1.1l-17.86,8.48Z"/><path class="cls-5" d="m220.9,485.33c2.46-1.44,5.36-1.74,7.89-.54l5.23,2.49c-1.66,1.83-.2,2.75-.75,3.98l-6.15-2.79c-1.46-.69-3.13-.53-4.55.28-.13.07-.25.14-.38.22l-3.62-1.72c.7-.76,1.48-1.41,2.33-1.91Z"/><path class="cls-5" d="m219.22,494.7c.08,1.92,1.07,3.64,2.74,4.44l5.64,2.68c.39,3.21-1.11,2.45-1.69,3.67l-5.62-2.67c-3.48-1.66-5.21-5.67-4.54-9.76l3.46,1.65Z"/><path class="cls-5" d="m181.26,463.86c.09.06.18.12.25.2l14.21,13.75c.72.69.65,1.92-.14,2.74-.71.73-1.75.89-2.48.43-.09-.06-.18-.12-.25-.2l-14.21-13.75c-.72-.69-.65-1.92.14-2.74.71-.73,1.75-.89,2.48-.43Z"/><path class="cls-5" d="m185.98,475.87c-1.98,4.84-.33,10.22,3.85,12.21l11.6,5.51c3.44,1.63,7.57.49,10.32-2.52l-3.62-1.72c-1.5,1-3.34,1.25-4.93.5l-11.6-5.51c-2.01-.96-3.03-3.25-2.68-5.62l-2.94-2.85Zm4.22-5.14l2.91,2.81c1.17-.38,2.42-.36,3.54.18l11.6,5.51c1.64.78,2.62,2.45,2.73,4.32l3.58,1.7c.67-4.09-1.05-8.11-4.54-9.76l-11.6-5.51c-2.65-1.26-5.71-.87-8.23.75Z"/><path class="cls-5" d="m205.26,486.7c-.9-.43-1.23-1.61-.74-2.64.49-1.03,1.62-1.52,2.52-1.1l17.86,8.48c.9.43,1.23,1.61.74,2.64-.49,1.03-1.62,1.52-2.52,1.1l-17.86-8.48Z"/><path class="cls-5" d="m151.06,457.31c-2.46,1.44-5.36,1.74-7.89.54l-5.23-2.49c1.66-1.83.2-2.75.75-3.98l6.15,2.79c1.46.69,3.13.53,4.55-.28.13-.07.25-.14.38-.22l3.62,1.72c-.7.76-1.48,1.41-2.33,1.91Z"/><path class="cls-5" d="m152.73,447.94c-.08-1.92-1.07-3.64-2.74-4.44l-5.64-2.68c-.39-3.21,1.11-2.45,1.69-3.67l5.62,2.67c3.48,1.66,5.21,5.67,4.54,9.76l-3.46-1.65Z"/><path class="cls-5" d="m185.98,466.77c1.98-4.84.33-10.22-3.85-12.21l-11.6-5.51c-3.44-1.63-7.57-.49-10.32,2.52l3.62,1.72c1.5-1,3.34-1.25,4.93-.5l11.6,5.51c2.01.96,3.03,3.25,2.68,5.62l2.94,2.85Zm-4.22,5.14l-2.91-2.81c-1.17.38-2.42.36-3.54-.18l-11.6-5.51c-1.64-.78-2.62-2.45-2.73-4.32l-3.58-1.7c-.67,4.09,1.05,8.11,4.54,9.76l11.6,5.51c2.65,1.26,5.71.87,8.23-.75Z"/><path class="cls-5" d="m166.7,455.94c.9.43,1.23,1.61.74,2.64-.49,1.03-1.62,1.52-2.52,1.1l-17.86-8.48c-.9-.43-1.23-1.61-.74-2.64.49-1.03,1.62-1.52,2.52-1.1l17.86,8.48Z"/><path class="cls-5" d="m353.07,109.76c-2.46,1.44-5.36,1.74-7.89.54l-5.23-2.49c1.66-1.83.2-2.75.75-3.98l6.15,2.79c1.46.69,3.13.53,4.55-.28.13-.07.25-.14.38-.22l3.62,1.72c-.7.76-1.48,1.41-2.33,1.91Z"/><path class="cls-5" d="m354.74,100.39c-.08-1.92-1.07-3.64-2.74-4.44l-5.64-2.68c-.39-3.21,1.11-2.45,1.69-3.67l5.62,2.67c3.48,1.66,5.21,5.67,4.54,9.76l-3.46-1.65Z"/><path class="cls-5" d="m392.7,131.23c-.09-.06-.18-.12-.25-.2l-14.21-13.75c-.72-.69-.65-1.92.14-2.74.71-.73,1.75-.89,2.48-.43.09.06.18.12.25.2l14.21,13.75c.72.69.65,1.92-.14,2.74-.71.73-1.75.89-2.48.43Z"/><path class="cls-5" d="m387.99,119.22c1.98-4.84.33-10.22-3.85-12.21l-11.6-5.51c-3.44-1.63-7.57-.49-10.32,2.52l3.62,1.72c1.5-1,3.34-1.25,4.93-.5l11.6,5.51c2.01.96,3.03,3.25,2.68,5.62l2.94,2.85Zm-4.22,5.14l-2.91-2.81c-1.17.38-2.42.36-3.54-.18l-11.6-5.51c-1.64-.78-2.62-2.45-2.73-4.32l-3.58-1.7c-.67,4.09,1.05,8.11,4.54,9.76l11.6,5.51c2.65,1.26,5.71.87,8.23-.75Z"/><path class="cls-5" d="m368.71,108.39c.9.43,1.23,1.61.74,2.64-.49,1.03-1.62,1.52-2.52,1.1l-17.86-8.48c-.9-.43-1.23-1.61-.74-2.64.49-1.03,1.62-1.52,2.52-1.1l17.86,8.48Z"/><path class="cls-5" d="m422.91,137.78c2.46-1.44,5.36-1.74,7.89-.54l5.23,2.49c-1.66,1.83-.2,2.75-.75,3.98l-6.15-2.79c-1.46-.69-3.13-.53-4.55.28-.13.07-.25.14-.38.22l-3.62-1.72c.7-.76,1.48-1.41,2.33-1.91Z"/><path class="cls-5" d="m421.23,147.15c.08,1.92,1.07,3.64,2.74,4.44l5.64,2.68c.39,3.21-1.11,2.45-1.69,3.67l-5.62-2.67c-3.48-1.66-5.21-5.67-4.54-9.76l3.46,1.65Z"/><path class="cls-5" d="m387.98,128.32c-1.98,4.84-.33,10.22,3.85,12.21l11.6,5.51c3.44,1.63,7.57.49,10.32-2.52l-3.62-1.72c-1.5,1-3.34,1.25-4.93.5l-11.6-5.51c-2.01-.96-3.03-3.25-2.68-5.62l-2.94-2.85Zm4.22-5.14l2.91,2.81c1.17-.38,2.42-.36,3.54.18l11.6,5.51c1.64.78,2.62,2.45,2.73,4.32l3.58,1.7c.67-4.09-1.05-8.11-4.54-9.76l-11.6-5.51c-2.65-1.26-5.71-.87-8.23.75Z"/><path class="cls-5" d="m407.27,139.15c-.9-.43-1.23-1.61-.74-2.64.49-1.03,1.62-1.52,2.52-1.1l17.86,8.48c.9.43,1.23,1.61.74,2.64-.49,1.03-1.62,1.52-2.52,1.1l-17.86-8.48Z"/><path class="cls-5" d="m481.47,256.03c-2.51-1.34-4.28-3.66-4.58-6.45l-.61-5.76c2.43.46,2.45-1.26,3.78-1.44l.83,6.7c.17,1.6,1.18,2.95,2.61,3.74.13.07.25.14.39.21l.42,3.98c-1.01-.2-1.97-.53-2.85-.99Z"/><path class="cls-5" d="m490.34,252.57c1.59-1.07,2.55-2.81,2.36-4.65l-.65-6.21c2.54-2,2.67-.33,4.01-.47l.65,6.18c.4,3.84-2.12,7.4-5.96,8.97l-.4-3.81Z"/><path class="cls-5" d="m483.82,301.05c0-.11.01-.21.04-.32l4.32-19.3c.22-.97,1.3-1.56,2.41-1.31.99.22,1.68,1.03,1.66,1.89,0,.11-.01.21-.04.32l-4.32,19.3c-.22.97-1.3,1.56-2.41,1.31-.99-.22-1.68-1.03-1.66-1.89Z"/><path class="cls-5" d="m491.6,290.76c5.16-.84,8.9-5.05,8.41-9.65l-1.35-12.77c-.4-3.78-3.53-6.71-7.53-7.5l.42,3.99c1.64.76,2.81,2.19,3,3.94l1.35,12.77c.23,2.22-1.2,4.28-3.4,5.22l-.89,4Zm-6.58-.92l.88-3.95c-.94-.8-1.57-1.88-1.7-3.11l-1.35-12.77c-.19-1.81.73-3.51,2.26-4.59l-.42-3.94c-3.84,1.56-6.37,5.13-5.96,8.96l1.35,12.77c.31,2.91,2.23,5.32,4.93,6.63Z"/><path class="cls-5" d="m490.79,268.66c.1.99-.73,1.89-1.87,2.01-1.14.12-2.14-.59-2.25-1.58l-2.07-19.66c-.1-.99.73-1.89,1.87-2.01,1.14-.12,2.14.59,2.25,1.58l2.07,19.66Z"/><path class="cls-5" d="m493.98,330.23c2.51,1.34,4.28,3.66,4.58,6.45l.61,5.76c-2.43-.46-2.45,1.26-3.78,1.44l-.83-6.7c-.17-1.6-1.18-2.95-2.61-3.74-.13-.07-.25-.14-.39-.21l-.42-3.98c1.01.2,1.97.53,2.85.99Z"/><path class="cls-5" d="m485.11,333.69c-1.59,1.07-2.55,2.81-2.36,4.65l.65,6.21c-2.54,2-2.67.33-4.01.47l-.65-6.18c-.4-3.84,2.12-7.4,5.96-8.97l.4,3.81Z"/><path class="cls-5" d="m483.84,295.5c-5.16.84-8.9,5.05-8.41,9.65l1.35,12.77c.4,3.78,3.53,6.71,7.53,7.5l-.42-3.99c-1.64-.76-2.81-2.19-3-3.94l-1.35-12.77c-.23-2.22,1.2-4.28,3.4-5.22l.89-4Zm11.52,7.55c-.31-2.91-2.23-5.32-4.93-6.63l-.88,3.95c.94.8,1.57,1.88,1.7,3.11l1.35,12.77c.19,1.81-.73,3.51-2.26,4.59l.42,3.94c3.84-1.56,6.37-5.13,5.96-8.96"/><path class="cls-5" d="m484.66,317.6c-.1-.99.73-1.89,1.87-2.01,1.14-.12,2.14.59,2.25,1.58l2.07,19.66c.1.99-.73,1.89-1.87,2.01-1.14.12-2.14-.59-2.25-1.58l-2.07-19.66Z"/><path class="cls-5" d="m77.7,256.03c-2.51-1.34-4.28-3.66-4.58-6.45l-.61-5.76c2.43.46,2.45-1.26,3.78-1.44l.83,6.7c.17,1.6,1.18,2.95,2.61,3.74.13.07.25.14.39.21l.42,3.98c-1.01-.2-1.97-.53-2.85-.99Z"/><path class="cls-5" d="m86.58,252.57c1.59-1.07,2.55-2.81,2.36-4.65l-.65-6.21c2.54-2,2.67-.33,4.01-.47l.65,6.18c.4,3.84-2.12,7.4-5.96,8.97l-.4-3.81Z"/><path class="cls-5" d="m80.06,301.05c0-.11.01-.21.04-.32l4.32-19.3c.22-.97,1.3-1.56,2.41-1.31.99.22,1.68,1.03,1.66,1.89,0,.11-.01.21-.04.32l-4.32,19.3c-.22.97-1.3,1.56-2.41,1.31-.99-.22-1.68-1.03-1.66-1.89Z"/><path class="cls-5" d="m87.84,290.76c5.16-.84,8.9-5.05,8.41-9.65l-1.35-12.77c-.4-3.78-3.53-6.71-7.53-7.5l.42,3.99c1.64.76,2.81,2.19,3,3.94l1.35,12.77c.23,2.22-1.2,4.28-3.4,5.22l-.89,4Zm-6.58-.92l.88-3.95c-.94-.8-1.57-1.88-1.7-3.11l-1.35-12.77c-.19-1.81.73-3.51,2.26-4.59l-.42-3.94c-3.84,1.56-6.37,5.13-5.96,8.96l1.35,12.77c.31,2.91,2.23,5.32,4.93,6.63Z"/><path class="cls-5" d="m87.03,268.66c.1.99-.73,1.89-1.87,2.01-1.14.12-2.14-.59-2.25-1.58l-2.07-19.66c-.1-.99.73-1.89,1.87-2.01,1.14-.12,2.14.59,2.25,1.58l2.07,19.66Z"/><path class="cls-5" d="m90.22,330.23c2.51,1.34,4.28,3.66,4.58,6.45l.61,5.76c-2.43-.46-2.45,1.26-3.78,1.44l-.83-6.7c-.17-1.6-1.18-2.95-2.61-3.74-.13-.07-.25-.14-.39-.21l-.42-3.98c1.01.2,1.97.53,2.85.99Z"/><path class="cls-5" d="m81.34,333.69c-1.59,1.07-2.55,2.81-2.36,4.65l.65,6.21c-2.54,2-2.67.33-4.01.47l-.65-6.18c-.4-3.84,2.12-7.4,5.96-8.97l.4,3.81Z"/><path class="cls-5" d="m80.08,295.5c-5.16.84-8.9,5.05-8.41,9.65l1.35,12.77c.4,3.78,3.53,6.71,7.53,7.5l-.42-3.99c-1.64-.76-2.81-2.19-3-3.94l-1.35-12.77c-.23-2.22,1.2-4.28,3.4-5.22l.89-4Zm11.52,7.55c-.31-2.91-2.23-5.32-4.93-6.63l-.88,3.95c.94.8,1.57,1.88,1.7,3.11l1.35,12.77c.19,1.81-.73,3.51-2.26,4.59l.42,3.94c3.84-1.56,6.37-5.13,5.96-8.96"/><path class="cls-5" d="m80.89,317.6c-.1-.99.73-1.89,1.87-2.01,1.14-.12,2.14.59,2.25,1.58l2.07,19.66c.1.99-.73,1.89-1.87,2.01-1.14.12-2.14-.59-2.25-1.58l-2.07-19.66Z"/><path class="cls-2" d="m279.28,122.19c-2.49-1.37-4.24-3.72-4.49-6.5l-.53-5.77c2.42.49,2.46-1.23,3.8-1.39l.75,6.71c.15,1.61,1.14,2.96,2.56,3.77.12.07.25.14.38.21l.37,3.99c-1.01-.21-1.97-.56-2.83-1.02Z"/><path class="cls-2" d="m288.19,118.84c1.61-1.05,2.59-2.78,2.42-4.62l-.58-6.22c2.56-1.97,2.67-.3,4.02-.42l.57,6.19c.36,3.84-2.21,7.38-6.08,8.89l-.35-3.82Z"/><path class="cls-2" d="m281.06,167.23c0-.11.02-.21.04-.32l4.56-19.24c.23-.97,1.32-1.54,2.43-1.28.99.23,1.66,1.05,1.64,1.91,0,.11-.02.21-.04.32l-4.56,19.24c-.23.97-1.32,1.54-2.43,1.28-.99-.23-1.66-1.05-1.64-1.91Z"/><path class="cls-2" d="m288.97,157.05c5.18-.77,8.96-4.93,8.53-9.54l-1.18-12.79c-.35-3.79-3.44-6.76-7.44-7.59l.37,3.99c1.63.78,2.78,2.23,2.95,3.98l1.18,12.79c.21,2.22-1.25,4.26-3.46,5.17l-.95,3.99Zm-6.57-1l.93-3.94c-.93-.81-1.54-1.9-1.66-3.14l-1.18-12.79c-.17-1.81.77-3.5,2.32-4.56l-.37-3.95c-3.86,1.51-6.43,5.05-6.08,8.89l1.19,12.79c.27,2.92,2.17,5.35,4.85,6.69Z"/><path class="cls-2" d="m288.44,134.94c.09.99-.76,1.88-1.89,1.99-1.14.11-2.14-.61-2.23-1.61l-1.82-19.69c-.09-.99.76-1.88,1.89-1.99,1.14-.11,2.14.61,2.23,1.61l1.82,19.69Z"/><path class="cls-2" d="m290.84,196.55c2.49,1.37,4.24,3.72,4.49,6.5l.53,5.77c-2.42-.49-2.46,1.23-3.8,1.39l-.75-6.71c-.15-1.61-1.14-2.96-2.56-3.77-.12-.07-.25-.14-.38-.21l-.37-3.99c1.01.21,1.97.56,2.83,1.02Z"/><path class="cls-2" d="m281.92,199.89c-1.61,1.05-2.59,2.78-2.42,4.62l.58,6.22c-2.56,1.97-2.67.3-4.02.42l-.57-6.19c-.36-3.84,2.21-7.38,6.08-8.89l.35,3.82Z"/><path class="cls-2" d="m281.15,161.69c-5.18.77-8.96,4.93-8.53,9.54l1.18,12.79c.35,3.79,3.44,6.76,7.44,7.59l-.37-3.99c-1.63-.78-2.78-2.23-2.95-3.98l-1.18-12.79c-.21-2.22,1.25-4.26,3.46-5.17l.95-3.99Zm6.57,1l-.93,3.94c.93.81,1.54,1.9,1.66,3.14l1.18,12.79c.17,1.81-.77,3.5-2.32,4.56l.37,3.95c3.86-1.51,6.43-5.05,6.08-8.89l-1.19-12.79c-.27-2.92-2.17-5.35-4.85-6.69Z"/><path class="cls-2" d="m281.68,183.8c-.09-.99.76-1.88,1.89-1.99,1.14-.11,2.14.61,2.23,1.61l1.82,19.69c.09.99-.76,1.88-1.89,1.99-1.14.11-2.14-.61-2.23-1.61l-1.82-19.69Z"/><path class="cls-2" d="m204.8,343.97c-.99-2.67-.79-5.58.83-7.86l3.36-4.72c1.52,1.95,2.67.67,3.79,1.42l-3.81,5.58c-.93,1.32-1.07,2.99-.52,4.53.05.14.1.27.15.41l-2.32,3.26c-.63-.82-1.13-1.71-1.48-2.62Z"/><path class="cls-2" d="m213.74,347.24c1.9.25,3.77-.42,4.85-1.93l3.62-5.09c3.23.17,2.22,1.51,3.32,2.3l-3.6,5.07c-2.23,3.15-6.49,4.15-10.4,2.78l2.22-3.13Z"/><path class="cls-2" d="m176.79,379.29c.07-.08.15-.15.24-.22l16-11.62c.81-.59,2-.31,2.68.61.6.82.58,1.88,0,2.52-.07.08-.15.15-.24.22l-16,11.62c-.81.59-2,.31-2.68-.61-.6-.82-.58-1.88,0-2.52Z"/><path class="cls-2" d="m189.43,376.72c4.43,2.79,10.01,2.1,12.69-1.68l7.44-10.47c2.2-3.1,1.79-7.37-.69-10.6l-2.32,3.27c.73,1.65.66,3.5-.36,4.94l-7.44,10.47c-1.29,1.82-3.73,2.42-6,1.67l-3.32,2.41Zm-4.33-5.04l3.27-2.38c-.18-1.22.07-2.45.79-3.46l7.44-10.47c1.05-1.48,2.87-2.16,4.73-1.94l2.3-3.23c-3.92-1.37-8.17-.37-10.4,2.78l-7.44,10.47c-1.7,2.39-1.84,5.47-.68,8.23Z"/><path class="cls-2" d="m203.43,359.61c-.58.81-1.8.93-2.73.27-.93-.66-1.22-1.86-.64-2.67l11.45-16.12c.58-.81,1.8-.93,2.73-.27.93.66,1.22,1.86.64,2.67l-11.45,16.12Z"/><path class="cls-2" d="m186.91,381.9c.06,2.85-1.09,5.53-3.37,7.15l-4.72,3.36c-.79-2.34-2.3-1.51-3.11-2.59l5.43-4.02c1.32-.94,1.99-2.47,1.98-4.11,0-.15,0-.29-.01-.44l3.26-2.32c.33.98.5,1.98.54,2.96Z"/><path class="cls-2" d="m179.54,375.87c-1.72-.86-3.7-.84-5.21.23l-5.09,3.62c-2.99-1.23-1.6-2.16-2.38-3.26l5.07-3.6c3.14-2.24,7.49-1.79,10.74.79l-3.13,2.22Z"/><path class="cls-2" d="m366.88,343.61c.99-2.67.79-5.58-.83-7.86l-3.36-4.72c-1.52,1.95-2.67.67-3.79,1.42l3.81,5.58c.93,1.32,1.07,2.99.52,4.53-.05.14-.1.27-.15.41l2.32,3.26c.63-.82,1.13-1.71,1.48-2.62Z"/><path class="cls-2" d="m357.94,346.89c-1.9.25-3.77-.42-4.85-1.93l-3.62-5.09c-3.23.17-2.22,1.51-3.32,2.3l3.6,5.07c2.23,3.15,6.49,4.15,10.4,2.78l-2.22-3.13Z"/><path class="cls-2" d="m394.89,378.94c-.07-.08-.15-.15-.24-.22l-16-11.62c-.81-.59-2-.31-2.68.61-.6.82-.58,1.88,0,2.52.07.08.15.15.24.22l16,11.62c.81.59,2,.31,2.68-.61.6-.82.58-1.88,0-2.52Z"/><path class="cls-2" d="m378.93,373.96c-2.27.75-4.71.15-6-1.67l-7.44-10.47c-1.02-1.43-1.09-3.29-.36-4.94l-2.32-3.27c-2.49,3.23-2.9,7.5-.69,10.6l7.44,10.47c2.68,3.77,8.26,4.46,12.69,1.68l-3.32-2.41Zm6.96-10.87l-7.44-10.47c-2.23-3.15-6.49-4.15-10.4-2.78l2.3,3.23c1.86-.21,3.68.46,4.73,1.94l7.44,10.47c.72,1.01.96,2.24.79,3.46l3.27,2.38c1.16-2.76,1.01-5.85-.68-8.23Z"/><path class="cls-2" d="m368.24,359.26c.58.81,1.8.93,2.73.27.93-.66,1.22-1.86.64-2.67l-11.45-16.12c-.58-.81-1.8-.93-2.73-.27-.93.66-1.22,1.86-.64,2.67l11.45,16.12Z"/><path class="cls-2" d="m384.77,381.55c-.06,2.85,1.09,5.53,3.37,7.15l4.72,3.36c.79-2.34,2.3-1.51,3.11-2.59l-5.43-4.02c-1.32-.94-1.99-2.47-1.98-4.11,0-.15,0-.29.01-.44l-3.26-2.32c-.33.98-.5,1.98-.54,2.96Z"/><path class="cls-2" d="m392.13,375.52c1.72-.86,3.7-.84,5.21.23l5.09,3.62c2.99-1.23,1.6-2.16,2.38-3.26l-5.07-3.6c-3.14-2.24-7.49-1.79-10.74.79l3.13,2.22Z"/><path class="cls-5" d="m221.49,109.76c2.46,1.44,5.36,1.74,7.89.54l5.23-2.49c-1.66-1.83-.2-2.75-.75-3.98l-6.15,2.79c-1.46.69-3.13.53-4.55-.28-.13-.07-.25-.14-.38-.22l-3.62,1.72c.7.76,1.48,1.41,2.33,1.91Z"/><path class="cls-5" d="m219.82,100.39c.08-1.92,1.07-3.64,2.74-4.44l5.64-2.68c.39-3.21-1.11-2.45-1.69-3.67l-5.62,2.67c-3.48,1.66-5.21,5.67-4.54,9.76l3.46-1.65Z"/><path class="cls-5" d="m181.86,131.23c.09-.06.18-.12.25-.2l14.21-13.75c.72-.69.65-1.92-.14-2.74-.71-.73-1.75-.89-2.48-.43-.09.06-.18.12-.25.2l-14.21,13.75c-.72.69-.65,1.92.14,2.74.71.73,1.75.89,2.48.43Z"/><path class="cls-5" d="m189.52,116.38c-.35-2.37.67-4.66,2.68-5.62l11.6-5.51c1.59-.75,3.43-.5,4.93.5l3.62-1.72c-2.75-3.01-6.89-4.15-10.32-2.52l-11.6,5.51c-4.18,1.98-5.83,7.36-3.85,12.21l2.94-2.85Zm9.5,8.74l11.6-5.51c3.48-1.66,5.21-5.67,4.54-9.76l-3.58,1.7c-.11,1.87-1.09,3.54-2.73,4.32l-11.6,5.51c-1.12.53-2.37.56-3.54.18l-2.91,2.81c2.52,1.62,5.58,2.01,8.23.75Z"/><path class="cls-5" d="m205.85,108.39c-.9.43-1.23,1.61-.74,2.64.49,1.03,1.62,1.52,2.52,1.1l17.86-8.48c.9-.43,1.23-1.61.74-2.64-.49-1.03-1.62-1.52-2.52-1.1l-17.86,8.48Z"/><path class="cls-5" d="m151.65,137.78c-2.46-1.44-5.36-1.74-7.89-.54l-5.23,2.49c1.66,1.83.2,2.75.75,3.98l6.15-2.79c1.46-.69,3.13-.53,4.55.28.13.07.25.14.38.22l3.62-1.72c-.7-.76-1.48-1.41-2.33-1.91Z"/><path class="cls-5" d="m153.33,147.15c-.08,1.92-1.07,3.64-2.74,4.44l-5.64,2.68c-.39,3.21,1.11,2.45,1.69,3.67l5.62-2.67c3.48-1.66,5.21-5.67,4.54-9.76l-3.46,1.65Z"/><path class="cls-5" d="m183.63,131.16c.35,2.37-.67,4.66-2.68,5.62l-11.6,5.51c-1.59.75-3.43.5-4.93-.5l-3.62,1.72c2.75,3.01,6.89,4.15,10.32,2.52l11.6-5.51c4.18-1.98,5.83-7.36,3.85-12.21l-2.94,2.85Zm-9.5-8.74l-11.6,5.51c-3.48,1.66-5.21,5.67-4.54,9.76l3.58-1.7c.11-1.87,1.09-3.54,2.73-4.32l11.6-5.51c1.12-.53,2.37-.56,3.54-.18l2.91-2.81c-2.52-1.62-5.58-2.01-8.23-.75Z"/><path class="cls-5" d="m167.29,139.15c.9-.43,1.23-1.61.74-2.64-.49-1.03-1.62-1.52-2.52-1.1l-17.86,8.48c-.9.43-1.23,1.61-.74,2.64.49,1.03,1.62,1.52,2.52,1.1l17.86-8.48Z"/></svg>