<?xml version="1.0" encoding="UTF-8"?><svg id="Layer_1" xmlns="http://www.w3.org/2000/svg" viewBox="0 0 454.15 439.41"><defs><style>.cls-1{stroke-width:.86px;}.cls-1,.cls-2{fill:none;stroke:#78a7d9;stroke-miterlimit:10;}.cls-2{stroke-width:.92px;}.cls-3{fill:#78a7d9;}.cls-3,.cls-4,.cls-5,.cls-6,.cls-7{stroke-width:0px;}.cls-4{fill:#4e89c7;}.cls-5{fill:#576db4;}.cls-6{fill:#447fc1;}.cls-7{fill:#b7d0ec;}</style></defs><path class="cls-7" d="m232.84,434.2V.51h107.26c22.93,0,42.91,5.75,59.96,17.23,17.05,11.49,30.32,27.63,39.82,48.42,9.5,20.8,14.26,45.25,14.26,73.37v155.06c0,27.72-4.75,52.08-14.26,73.08-9.5,20.99-22.78,37.33-39.82,49.01-17.05,11.69-37.03,17.52-59.96,17.52h-107.26Zm67.88-80.2h39.38c13.57,0,24.66-5.54,33.26-16.63,8.6-11.09,12.9-25.35,12.9-42.78v-155.06c0-17.42-4.3-31.59-12.9-42.47-8.6-10.89-19.68-16.34-33.26-16.34h-39.38v273.28Z"/><polygon class="cls-1" points="420.41 326.95 420.41 115.07 236.91 9.13 53.42 115.07 53.42 326.95 236.91 432.89 420.41 326.95"/><line class="cls-2" x1="303.7" y1="393.46" x2="53.42" y2="115.07"/><line class="cls-2" x1="328.23" y1="61.73" x2="419.3" y2="194.15"/><line class="cls-2" x1="135.29" y1="67.59" x2="420.41" y2="326.95"/><line class="cls-2" x1="328.23" y1="61.73" x2="53.42" y2="115.07"/><line class="cls-2" x1="196.98" y1="408.08" x2="416.31" y2="328.68"/><line class="cls-2" x1="135.29" y1="67.59" x2="53.42" y2="326.95"/><line class="cls-2" x1="368.48" y1="84.53" x2="236.91" y2="432.89"/><polygon class="cls-3" points="53.1 326.62 329.15 60.29 329.96 61.52 53.74 327.28 53.1 326.62"/><polygon class="cls-3" points="328.63 61.96 147.33 380.95 145.87 380.47 327.83 61.51 328.63 61.96"/><polygon class="cls-3" points="53.65 114.67 420.86 326.85 419.74 328.23 53.19 115.46 53.65 114.67"/><polygon class="cls-6" points="419.96 327.04 365.75 85.12 371.2 83.95 420.86 326.85 419.96 327.04"/><polygon class="cls-3" points="419.45 194.58 53.65 327.35 53.1 326.62 419.14 193.72 419.45 194.58"/><polygon class="cls-3" points="149.34 377.99 418.24 325.62 418.24 326.74 149.51 378.9 149.34 377.99"/><polygon class="cls-3" points="55.03 326.21 421.23 113.31 422.35 114.8 55.49 327.01 55.03 326.21"/><polygon class="cls-3" points="135.36 67.14 420.41 115.07 420.02 116.12 135.21 68.05 135.36 67.14"/><line class="cls-2" x1="236.91" y1="432.89" x2="419.3" y2="194.15"/><polygon class="cls-6" points="234.67 433.82 234.17 9.6 239.65 8.65 236.16 434.57 234.67 433.82"/><rect class="cls-6" x="411.28" y="317.82" width="18.25" height="18.25"/><rect class="cls-3" x="138.12" y="371.38" width="18.25" height="18.25"/><rect class="cls-6" x="297.18" y="386.94" width="13.04" height="13.04"/><rect class="cls-6" x="230.39" y="426.37" width="13.04" height="13.04"/><rect class="cls-6" x="228.26" y="210.73" width="18.25" height="18.25"/><rect class="cls-3" x="272.67" y="190.8" width="13.04" height="13.04"/><rect class="cls-3" x="259.53" y="346.78" width="18.25" height="18.25"/><rect class="cls-6" x="390.82" y="215.89" width="13.04" height="13.04"/><rect class="cls-3" x="124.65" y="291.28" width="13.04" height="13.04"/><rect class="cls-3" x="44.29" y="317.82" width="18.25" height="18.25"/><rect class="cls-3" x="67.46" y="255.56" width="13.04" height="13.04"/><rect class="cls-3" x="411.28" y="105.94" width="18.25" height="18.25"/><rect class="cls-3" x="339.64" y="277.44" width="18.25" height="18.25"/><rect class="cls-6" x="347.98" y="364.91" width="5.21" height="5.21"/><rect class="cls-6" x="319.1" y="52.61" width="18.25" height="18.25"/><rect class="cls-3" x="318.74" y="319.26" width="5.21" height="5.21"/><rect class="cls-3" x="204.02" y="129.83" width="5.21" height="5.21"/><rect class="cls-3" x="326.06" y="184.48" width="5.21" height="5.21"/><rect class="cls-3" x="96.65" y="351.14" width="5.21" height="5.21"/><rect class="cls-3" x="159.35" y="87.75" width="10.43" height="10.43"/><rect class="cls-3" x="342.09" y="82.7" width="5.21" height="5.21"/><rect class="cls-3" x="416.69" y="191.55" width="5.21" height="5.21"/><rect class="cls-3" x="221.49" y="302.47" width="5.21" height="5.21"/><rect class="cls-3" x="199.34" y="366.1" width="5.21" height="5.21"/><rect class="cls-3" x="418.35" y="223.48" width="5.21" height="5.21"/><rect class="cls-3" x="48.43" y="171.64" width="10.43" height="10.43"/><rect class="cls-3" x="120.04" y="362.24" width="10.43" height="10.43"/><rect class="cls-3" x="190.86" y="403.19" width="10.43" height="10.43"/><rect class="cls-3" x="367.8" y="278.73" width="10.43" height="10.43"/><rect class="cls-3" x="413.85" y="132.8" width="13.04" height="13.04"/><rect class="cls-3" x="130.07" y="62.38" width="10.43" height="10.43"/><rect class="cls-6" x="363.75" y="79.81" width="10.43" height="10.43"/><rect class="cls-3" x="335.51" y="218.43" width="10.43" height="10.43"/><rect class="cls-3" x="217.31" y="77.04" width="10.43" height="10.43"/><rect class="cls-3" x="355.44" y="266.77" width="7.82" height="7.82"/><rect class="cls-3" x="165.37" y="41.72" width="10.43" height="10.43"/><rect class="cls-3" x="183.17" y="187.54" width="13.04" height="13.04"/><rect class="cls-3" x="117.95" y="93.73" width="13.04" height="13.04"/><rect class="cls-3" x="99.28" y="166" width="7.82" height="7.82"/><rect class="cls-3" x="46.9" y="108.55" width="13.04" height="13.04"/><rect class="cls-3" x="309.57" y="226.37" width="10.43" height="10.43"/><rect class="cls-6" x="269.7" y="26.21" width="10.43" height="10.43"/><rect class="cls-3" x="147.63" y="265.73" width="7.82" height="7.82"/><rect class="cls-3" x="277.06" y="290.14" width="18.25" height="18.25"/><rect class="cls-6" x="227.79" width="18.25" height="18.25"/><path class="cls-6" d="m180.94,176.53v80.14c0,15.01-34.09,22.53-68.2,22.55-8.34,0-16.68-.44-24.54-1.33-9.93-1.12-19.08-2.97-26.42-5.54-10.66-3.71-17.52-8.95-17.52-15.68v-80.14h136.68Z"/><path class="cls-4" d="m112.73,176.53v102.7c-8.34,0-16.68-.44-24.54-1.33-9.93-1.12-19.08-2.97-26.42-5.54-10.66-3.71-17.52-8.95-17.52-15.68v-80.14h68.48Z"/><path class="cls-7" d="m223.82,188.59v6.68c-.07.38-.3.71-.67.84l-110.63,39.65c-.19.06-.4.06-.58,0L.71,196.85c-.47-.17-.71-.63-.71-1.1v-6.09l223.82-1.07Z"/><path class="cls-3" d="m111.94,229.62L.71,190.71c-.91-.32-.95-1.79-.06-2.18l111.77-48.56c.23-.1.48-.1.7,0l110.09,47.82c.89.39.85,1.85-.06,2.17l-110.63,39.65c-.19.07-.39.07-.58,0Z"/><path class="cls-5" d="m198.93,243.96c-1.4,0-2.53-1.13-2.53-2.53v-41.5l-82.1-13.63c-1.38-.23-2.31-1.53-2.08-2.91.23-1.38,1.53-2.3,2.91-2.08l84.22,13.98c1.22.2,2.11,1.26,2.11,2.49v43.64c0,1.4-1.13,2.53-2.53,2.53Z"/><path class="cls-5" d="m207.5,244.08h-17.76c-.64,0-1.05-.67-.76-1.24l8.31-16.62c.76-1.52,2.94-1.47,3.63.08l7.36,16.57c.25.57-.16,1.2-.78,1.2Z"/><polygon class="cls-6" points="235.79 430.84 423.84 325.24 238.03 434.94 235.79 430.84"/><polygon class="cls-6" points="235.42 9.36 370.3 86.37 237.87 4.47 235.42 9.36"/></svg>