<?xml version="1.0" encoding="UTF-8"?>
<svg id="Layer_1" data-name="Layer 1" xmlns="http://www.w3.org/2000/svg" viewBox="0 0 557.56 554.95">
  <defs>
    <style>
      .cls-1, .cls-2 {
        fill: #a6ddea;
      }

      .cls-2 {
        font-family: MyriadPro-Regular, 'Myriad Pro';
        font-size: 25.61px;
      }
    </style>
  </defs>
  <path class="cls-1" d="M278.79,54.14c-123.15,0-223.33,100.19-223.33,223.33s100.19,223.33,223.33,223.33,223.33-100.19,223.33-223.33S401.93,54.14,278.79,54.14Zm0,444.87c-122.16,0-221.54-99.38-221.54-221.54S156.63,55.93,278.79,55.93s221.54,99.38,221.54,221.54-99.38,221.54-221.54,221.54Z"/>
  <text id="Outter" class="cls-2" transform="translate(389.19 438.06) rotate(147.77) scale(1.01 1)"><tspan x="0" y="0">0</tspan></text>
  <text class="cls-2" transform="translate(378.19 445) rotate(151.53) scale(1.01 1)"><tspan x="0" y="0">1</tspan></text>
  <text class="cls-2" transform="translate(366.74 451.22) rotate(155.28) scale(1.01 1)"><tspan x="0" y="0">0</tspan></text>
  <text class="cls-2" transform="translate(354.94 456.66) rotate(158.98) scale(1.01 1)"><tspan x="0" y="0">1</tspan></text>
  <text class="cls-2" transform="translate(342.77 461.35) rotate(162.66) scale(1.01 1)"><tspan x="0" y="0">1</tspan></text>
  <text class="cls-2" transform="translate(330.35 465.23) rotate(166.38) scale(1.01 1)"><tspan x="0" y="0">1</tspan></text>
  <text class="cls-2" transform="translate(317.71 468.31) rotate(170.14) scale(1.01 1)"><tspan x="0" y="0">0</tspan></text>
  <text class="cls-2" transform="translate(304.88 470.55) rotate(173.91) scale(1.01 1)"><tspan x="0" y="0">1</tspan></text>
  <text class="cls-2" transform="translate(291.94 471.94) rotate(177.7) scale(1.01 1)"><tspan x="0" y="0">0</tspan></text>
  <text class="cls-2" transform="translate(278.94 472.47) rotate(-178.51) scale(1.01 1)"><tspan x="0" y="0">1</tspan></text>
  <text class="cls-2" transform="translate(265.94 472.14) rotate(-174.73) scale(1.01 1)"><tspan x="0" y="0">0</tspan></text>
  <text class="cls-2" transform="translate(252.95 470.95) rotate(-170.94) scale(1.01 1)"><tspan x="0" y="0">1</tspan></text>
  <text class="cls-2" transform="translate(240.13 468.91) rotate(-167.17) scale(1.01 1)"><tspan x="0" y="0">0</tspan></text>
  <text class="cls-2" transform="translate(227.43 466.03) rotate(-163.39) scale(1.01 1)"><tspan x="0" y="0">1</tspan></text>
  <text class="cls-2" transform="translate(214.96 462.32) rotate(-159.61) scale(1.01 1)"><tspan x="0" y="0">0</tspan></text>
  <text class="cls-2" transform="translate(202.73 457.78) rotate(-155.82) scale(1.01 1)"><tspan x="0" y="0">1</tspan></text>
  <text class="cls-2" transform="translate(190.87 452.47) rotate(-152.04) scale(1.01 1)"><tspan x="0" y="0">0</tspan></text>
  <text class="cls-2" transform="translate(179.37 446.38) rotate(-148.24) scale(1.01 1)"><tspan x="0" y="0">0</tspan></text>
  <text class="cls-2" transform="translate(168.29 439.52) rotate(-144.42) scale(1.01 1)"><tspan x="0" y="0">1</tspan></text>
  <text class="cls-2" transform="translate(157.71 431.96) rotate(-140.59) scale(1.01 1)"><tspan x="0" y="0">0</tspan></text>
  <text class="cls-2" transform="translate(147.66 423.72) rotate(-136.74) scale(1.01 1)"><tspan x="0" y="0">1</tspan></text>
  <text class="cls-2" transform="translate(138.17 414.81) rotate(-132.87) scale(1.01 1)"><tspan x="0" y="0">0</tspan></text>
  <text class="cls-2" transform="translate(129.32 405.28) rotate(-128.98) scale(1.01 1)"><tspan x="0" y="0">1</tspan></text>
  <text class="cls-2" transform="translate(121.13 395.18) rotate(-125.09) scale(1.01 1)"><tspan x="0" y="0">0</tspan></text>
  <text class="cls-2" transform="translate(113.64 384.53) rotate(-121.2) scale(1.01 1)"><tspan x="0" y="0">1</tspan></text>
  <text class="cls-2" transform="translate(106.89 373.41) rotate(-117.32) scale(1.01 1)"><tspan x="0" y="0">0</tspan></text>
  <text class="cls-2" transform="translate(100.91 361.86) rotate(-113.47) scale(1.01 1)"><tspan x="0" y="0">1</tspan></text>
  <text class="cls-2" transform="translate(95.67 349.99) rotate(-109) scale(1.01 1)"><tspan x="0" y="0">0</tspan></text>
  <text class="cls-2" transform="translate(91.34 337.69) rotate(-105.85) scale(1.01 1)"><tspan x="0" y="0">1</tspan></text>
  <text class="cls-2" transform="translate(87.78 325.17) rotate(-101.98) scale(1.01 1)"><tspan x="0" y="0">0</tspan></text>
  <text class="cls-2" transform="translate(85.06 312.42) rotate(-98.1) scale(1.01 1)"><tspan x="0" y="0">0</tspan></text>
  <text class="cls-2" transform="translate(83.22 299.58) rotate(-94.22) scale(1.01 1)"><tspan x="0" y="0">1</tspan></text>
  <text class="cls-2" transform="translate(82.26 286.59) rotate(-90.32) scale(1.01 1)"><tspan x="0" y="0">0</tspan></text>
  <text class="cls-2" transform="translate(82.17 273.57) rotate(-86.44) scale(1.01 1)"><tspan x="0" y="0">1</tspan></text>
  <text class="cls-2" transform="translate(82.97 260.61) rotate(-82.58) scale(1.01 1)"><tspan x="0" y="0">0</tspan></text>
  <text class="cls-2" transform="translate(84.64 247.7) rotate(-78.73) scale(1.01 1)"><tspan x="0" y="0">1</tspan></text>
  <text class="cls-2" transform="translate(87.18 234.94) rotate(-74.9) scale(1.01 1)"><tspan x="0" y="0">0</tspan></text>
  <text class="cls-2" transform="translate(90.57 222.35) rotate(-71.08) scale(1.01 1)"><tspan x="0" y="0">1</tspan></text>
  <text class="cls-2" transform="translate(94.77 210.06) rotate(-67.29) scale(1.01 1)"><tspan x="0" y="0">0</tspan></text>
  <text class="cls-2" transform="translate(99.79 198.05) rotate(-63.5) scale(1.01 1)"><tspan x="0" y="0">1</tspan></text>
  <text class="cls-2" transform="translate(105.59 186.39) rotate(-59.72) scale(1.01 1)"><tspan x="0" y="0">0</tspan></text>
  <text class="cls-2" transform="translate(112.14 175.16) rotate(-55.94) scale(1.01 1)"><tspan x="0" y="0">0</tspan></text>
  <text class="cls-2" transform="translate(119.43 164.36) rotate(-52.16) scale(1.01 1)"><tspan x="0" y="0">1</tspan></text>
  <text class="cls-2" transform="translate(127.42 154.07) rotate(-48.38) scale(1.01 1)"><tspan x="0" y="0">0</tspan></text>
  <text class="cls-2" transform="translate(136.05 144.33) rotate(-44.59) scale(1.01 1)"><tspan x="0" y="0">1</tspan></text>
  <text class="cls-2" transform="translate(145.31 135.19) rotate(-40.8) scale(1.01 1)"><tspan x="0" y="0">0</tspan></text>
  <text class="cls-2" transform="translate(155.15 126.69) rotate(-37.02) scale(1.01 1)"><tspan x="0" y="0">1</tspan></text>
  <text class="cls-2" transform="translate(165.54 118.84) rotate(-33.23) scale(1.01 1)"><tspan x="0" y="0">0</tspan></text>
  <text class="cls-2" transform="translate(176.41 111.71) rotate(-29.46) scale(1.01 1)"><tspan x="0" y="0">0</tspan></text>
  <text class="cls-2" transform="translate(187.74 105.3) rotate(-25.72) scale(1.01 1)"><tspan x="0" y="0">1</tspan></text>
  <text class="cls-2" transform="translate(199.47 99.64) rotate(-22) scale(1.01 1)"><tspan x="0" y="0">0</tspan></text>
  <text class="cls-2" transform="translate(211.56 94.75) rotate(-18.31) scale(1.01 1)"><tspan x="0" y="0">1</tspan></text>
  <text class="cls-2" transform="translate(223.9 90.65) rotate(-14.6) scale(1.01 1)"><tspan x="0" y="0">0</tspan></text>
  <text class="cls-2" transform="translate(236.51 87.36) rotate(-10.85) scale(1.01 1)"><tspan x="0" y="0">1</tspan></text>
  <text class="cls-2" transform="translate(249.28 84.9) rotate(-7.09) scale(1.01 1)"><tspan x="0" y="0">0</tspan></text>
  <text class="cls-2" transform="translate(262.21 83.29) rotate(-3.3) scale(1.01 1)"><tspan x="0" y="0">1</tspan></text>
  <text class="cls-2" transform="translate(275.18 82.53) rotate(.48) scale(1.01 1)"><tspan x="0" y="0">0</tspan></text>
  <text class="cls-2" transform="translate(288.21 82.63) rotate(4.27) scale(1.01 1)"><tspan x="0" y="0">1</tspan></text>
  <text class="cls-2" transform="translate(301.19 83.59) rotate(8.06) scale(1.01 1)"><tspan x="0" y="0">0</tspan></text>
  <text class="cls-2" transform="translate(314.07 85.4) rotate(11.84) scale(1.01 1)"><tspan x="0" y="0">0</tspan></text>
  <text class="cls-2" transform="translate(326.82 88.07) rotate(15.62) scale(1.01 1)"><tspan x="0" y="0">1</tspan></text>
  <text class="cls-2" transform="translate(339.36 91.57) rotate(19.4) scale(1.01 1)"><tspan x="0" y="0">0</tspan></text>
  <text class="cls-2" transform="translate(351.63 95.87) rotate(23.18) scale(1.01 1)"><tspan x="0" y="0">1</tspan></text>
  <text class="cls-2" transform="translate(363.61 100.99) rotate(26.96) scale(1.01 1)"><tspan x="0" y="0">0</tspan></text>
  <text class="cls-2" transform="translate(375.21 106.88) rotate(30.76) scale(1.01 1)"><tspan x="0" y="0">1</tspan></text>
  <text class="cls-2" transform="translate(386.39 113.53) rotate(34.57) scale(1.01 1)"><tspan x="0" y="0">0</tspan></text>
  <text class="cls-2" transform="translate(397.11 120.9) rotate(38.4) scale(1.01 1)"><tspan x="0" y="0">1</tspan></text>
  <text class="cls-2" transform="translate(407.31 128.97) rotate(42.24) scale(1.01 1)"><tspan x="0" y="0">1</tspan></text>
  <text class="cls-2" transform="translate(416.96 137.72) rotate(46.11) scale(1.01 1)"><tspan x="0" y="0">1</tspan></text>
  <text class="cls-2" transform="translate(425.98 147.09) rotate(49.99) scale(1.01 1)"><tspan x="0" y="0">0</tspan></text>
  <text class="cls-2" transform="translate(434.35 157.05) rotate(53.88) scale(1.01 1)"><tspan x="0" y="0">1</tspan></text>
  <text class="cls-2" transform="translate(442.03 167.55) rotate(57.77) scale(1.01 1)"><tspan x="0" y="0">1</tspan></text>
  <text class="cls-2" transform="translate(448.97 178.55) rotate(61.66) scale(1.01 1)"><tspan x="0" y="0">1</tspan></text>
  <text class="cls-2" transform="translate(455.16 189.99) rotate(65.52) scale(1.01 1)"><tspan x="0" y="0">1</tspan></text>
  <text class="cls-2" transform="translate(460.53 201.85) rotate(69.12) scale(1.01 1)"><tspan x="0" y="0">1</tspan></text>
  <text class="cls-2" transform="translate(465.16 214) rotate(73.15) scale(1.01 1)"><tspan x="0" y="0">1</tspan></text>
  <text class="cls-2" transform="translate(468.94 226.45) rotate(76.99) scale(1.01 1)"><tspan x="0" y="0">1</tspan></text>
  <text class="cls-2" transform="translate(471.87 239.12) rotate(80.87) scale(1.01 1)"><tspan x="0" y="0">0</tspan></text>
  <text class="cls-2" transform="translate(473.95 251.96) rotate(84.76) scale(1.01 1)"><tspan x="0" y="0">1</tspan></text>
  <text class="cls-2" transform="translate(475.15 264.92) rotate(88.65) scale(1.01 1)"><tspan x="0" y="0">0</tspan></text>
  <text class="cls-2" transform="translate(475.46 277.91) rotate(92.53) scale(1.01 1)"><tspan x="0" y="0">0</tspan></text>
  <text class="cls-2" transform="translate(474.9 290.9) rotate(96.4) scale(1.01 1)"><tspan x="0" y="0">0</tspan></text>
  <text class="cls-2" transform="translate(473.45 303.85) rotate(100.26) scale(1.01 1)"><tspan x="0" y="0">0</tspan></text>
  <text class="cls-2" transform="translate(471.15 316.63) rotate(104.09) scale(1.01 1)"><tspan x="0" y="0">0</tspan></text>
  <text class="cls-2" transform="translate(467.98 329.28) rotate(107.91) scale(1.01 1)"><tspan x="0" y="0">1</tspan></text>
  <text class="cls-2" transform="translate(463.99 341.65) rotate(111.71) scale(1.01 1)"><tspan x="0" y="0">0</tspan></text>
  <text class="cls-2" transform="translate(459.19 353.74) rotate(115.5) scale(1.01 1)"><tspan x="0" y="0">0</tspan></text>
  <text class="cls-2" transform="translate(453.58 365.51) rotate(119.29) scale(1.01 1)"><tspan x="0" y="0">0</tspan></text>
  <text class="cls-2" transform="translate(447.22 376.86) rotate(123.07) scale(1.01 1)"><tspan x="0" y="0">0</tspan></text>
  <text class="cls-2" transform="translate(440.13 387.77) rotate(126.84) scale(1.01 1)"><tspan x="0" y="0">0</tspan></text>
  <text class="cls-2" transform="translate(432.33 398.2) rotate(130.62) scale(1.01 1)"><tspan x="0" y="0">1</tspan></text>
  <text class="cls-2" transform="translate(423.88 408.07) rotate(134.4) scale(1.01 1)"><tspan x="0" y="0">0</tspan></text>
  <text class="cls-2" transform="translate(414.77 417.38) rotate(138.19) scale(1.01 1)"><tspan x="0" y="0">1</tspan></text>
  <text class="cls-2" transform="translate(405.09 426.06) rotate(141.98) scale(1.01 1)"><tspan x="0" y="0">0</tspan></text>
</svg>