<?xml version="1.0" encoding="UTF-8"?>
<svg id="Layer_1" data-name="Layer 1" xmlns="http://www.w3.org/2000/svg" viewBox="0 0 482.84 484.78">
  <defs>
    <style>
      .cls-1, .cls-2 {
        fill: #a6ddea;
      }

      .cls-2 {
        font-family: MyriadPro-Regular, 'Myriad Pro';
        font-size: 21.73px;
      }
    </style>
  </defs>
  <path class="cls-1" d="M241.41,54.39c-103.67,0-188.01,84.34-188.01,188.01s84.34,188.01,188.01,188.01,188.01-84.34,188.01-188.01S345.08,54.39,241.41,54.39Zm0,374.51c-102.84,0-186.5-83.66-186.5-186.5S138.58,55.9,241.41,55.9s186.5,83.66,186.5,186.5-83.66,186.5-186.5,186.5Z"/>
  <text id="Inner" class="cls-2" transform="translate(110.69 343.64) rotate(-125.48) scale(1.01 1)"><tspan x="0" y="0">0</tspan></text>
  <text class="cls-2" transform="translate(104.28 334.65) rotate(-121.71) scale(1.01 1)"><tspan x="0" y="0">1</tspan></text>
  <text class="cls-2" transform="translate(98.46 325.26) rotate(-117.97) scale(1.01 1)"><tspan x="0" y="0">0</tspan></text>
  <text class="cls-2" transform="translate(93.27 315.5) rotate(-114.26) scale(1.01 1)"><tspan x="0" y="0">1</tspan></text>
  <text class="cls-2" transform="translate(88.73 305.44) rotate(-110.59) scale(1.01 1)"><tspan x="0" y="0">1</tspan></text>
  <text class="cls-2" transform="translate(84.85 295.13) rotate(-106.87) scale(1.01 1)"><tspan x="0" y="0">1</tspan></text>
  <text class="cls-2" transform="translate(81.63 284.55) rotate(-103.11) scale(1.01 1)"><tspan x="0" y="0">0</tspan></text>
  <text class="cls-2" transform="translate(79.12 273.81) rotate(-99.34) scale(1.01 1)"><tspan x="0" y="0">1</tspan></text>
  <text class="cls-2" transform="translate(77.32 262.9) rotate(-95.55) scale(1.01 1)"><tspan x="0" y="0">0</tspan></text>
  <text class="cls-2" transform="translate(76.24 251.91) rotate(-91.77) scale(1.01 1)"><tspan x="0" y="0">1</tspan></text>
  <text class="cls-2" transform="translate(75.9 240.89) rotate(-87.98) scale(1.01 1)"><tspan x="0" y="0">0</tspan></text>
  <text class="cls-2" transform="translate(76.27 229.86) rotate(-84.2) scale(1.01 1)"><tspan x="0" y="0">1</tspan></text>
  <text class="cls-2" transform="translate(77.38 218.87) rotate(-80.42) scale(1.01 1)"><tspan x="0" y="0">0</tspan></text>
  <text class="cls-2" transform="translate(79.21 207.98) rotate(-76.64) scale(1.01 1)"><tspan x="0" y="0">1</tspan></text>
  <text class="cls-2" transform="translate(81.76 197.23) rotate(-72.86) scale(1.01 1)"><tspan x="0" y="0">0</tspan></text>
  <text class="cls-2" transform="translate(85 186.69) rotate(-69.08) scale(1.01 1)"><tspan x="0" y="0">1</tspan></text>
  <text class="cls-2" transform="translate(88.94 176.36) rotate(-65.29) scale(1.01 1)"><tspan x="0" y="0">0</tspan></text>
  <text class="cls-2" transform="translate(93.54 166.35) rotate(-61.5) scale(1.01 1)"><tspan x="0" y="0">0</tspan></text>
  <text class="cls-2" transform="translate(98.81 156.63) rotate(-57.68) scale(1.01 1)"><tspan x="0" y="0">1</tspan></text>
  <text class="cls-2" transform="translate(104.69 147.31) rotate(-53.85) scale(1.01 1)"><tspan x="0" y="0">0</tspan></text>
  <text class="cls-2" transform="translate(111.2 138.39) rotate(-50) scale(1.01 1)"><tspan x="0" y="0">1</tspan></text>
  <text class="cls-2" transform="translate(118.28 129.93) rotate(-46.13) scale(1.01 1)"><tspan x="0" y="0">0</tspan></text>
  <text class="cls-2" transform="translate(125.93 121.96) rotate(-42.25) scale(1.01 1)"><tspan x="0" y="0">1</tspan></text>
  <text class="cls-2" transform="translate(134.09 114.54) rotate(-38.36) scale(1.01 1)"><tspan x="0" y="0">0</tspan></text>
  <text class="cls-2" transform="translate(142.74 107.69) rotate(-34.47) scale(1.01 1)"><tspan x="0" y="0">1</tspan></text>
  <text class="cls-2" transform="translate(151.83 101.43) rotate(-30.59) scale(1.01 1)"><tspan x="0" y="0">0</tspan></text>
  <text class="cls-2" transform="translate(161.33 95.81) rotate(-26.74) scale(1.01 1)"><tspan x="0" y="0">1</tspan></text>
  <text class="cls-2" transform="translate(171.11 90.8) rotate(-22.28) scale(1.01 1)"><tspan x="0" y="0">0</tspan></text>
  <text class="cls-2" transform="translate(181.35 86.53) rotate(-19.11) scale(1.01 1)"><tspan x="0" y="0">1</tspan></text>
  <text class="cls-2" transform="translate(191.76 82.91) rotate(-15.26) scale(1.01 1)"><tspan x="0" y="0">0</tspan></text>
  <text class="cls-2" transform="translate(202.42 80) rotate(-11.37) scale(1.01 1)"><tspan x="0" y="0">0</tspan></text>
  <text class="cls-2" transform="translate(213.24 77.81) rotate(-7.48) scale(1.01 1)"><tspan x="0" y="0">1</tspan></text>
  <text class="cls-2" transform="translate(224.17 76.37) rotate(-3.59) scale(1.01 1)"><tspan x="0" y="0">0</tspan></text>
  <text class="cls-2" transform="translate(235.19 75.67) rotate(.29) scale(1.01 1)"><tspan x="0" y="0">0</tspan></text>
  <text class="cls-2" transform="translate(246.21 75.72) rotate(4.15) scale(1.01 1)"><tspan x="0" y="0">0</tspan></text>
  <text class="cls-2" transform="translate(257.22 76.51) rotate(8) scale(1.01 1)"><tspan x="0" y="0">0</tspan></text>
  <text class="cls-2" transform="translate(268.16 78.04) rotate(11.83) scale(1.01 1)"><tspan x="0" y="0">1</tspan></text>
  <text class="cls-2" transform="translate(278.95 80.29) rotate(15.64) scale(1.01 1)"><tspan x="0" y="0">0</tspan></text>
  <text class="cls-2" transform="translate(289.59 83.26) rotate(19.44) scale(1.01 1)"><tspan x="0" y="0">1</tspan></text>
  <text class="cls-2" transform="translate(300.02 86.93) rotate(23.23) scale(1.01 1)"><tspan x="0" y="0">0</tspan></text>
  <text class="cls-2" transform="translate(310.16 91.28) rotate(27.01) scale(1.01 1)"><tspan x="0" y="0">0</tspan></text>
  <text class="cls-2" transform="translate(320 96.29) rotate(30.79) scale(1.01 1)"><tspan x="0" y="0">1</tspan></text>
  <text class="cls-2" transform="translate(329.47 101.92) rotate(34.56) scale(1.01 1)"><tspan x="0" y="0">0</tspan></text>
  <text class="cls-2" transform="translate(338.58 108.18) rotate(38.34) scale(1.01 1)"><tspan x="0" y="0">1</tspan></text>
  <text class="cls-2" transform="translate(347.25 115.03) rotate(42.13) scale(1.01 1)"><tspan x="0" y="0">0</tspan></text>
  <text class="cls-2" transform="translate(355.44 122.42) rotate(45.91) scale(1.01 1)"><tspan x="0" y="0">1</tspan></text>
  <text class="cls-2" transform="translate(363.14 130.36) rotate(49.7) scale(1.01 1)"><tspan x="0" y="0">0</tspan></text>
  <text class="cls-2" transform="translate(370.26 138.75) rotate(53.48) scale(1.01 1)"><tspan x="0" y="0">0</tspan></text>
  <text class="cls-2" transform="translate(376.85 147.63) rotate(57.25) scale(1.01 1)"><tspan x="0" y="0">1</tspan></text>
  <text class="cls-2" transform="translate(382.82 156.91) rotate(61) scale(1.01 1)"><tspan x="0" y="0">0</tspan></text>
  <text class="cls-2" transform="translate(388.19 166.57) rotate(64.72) scale(1.01 1)"><tspan x="0" y="0">1</tspan></text>
  <text class="cls-2" transform="translate(392.91 176.55) rotate(68.39) scale(1.01 1)"><tspan x="0" y="0">0</tspan></text>
  <text class="cls-2" transform="translate(396.99 186.83) rotate(72.11) scale(1.01 1)"><tspan x="0" y="0">1</tspan></text>
  <text class="cls-2" transform="translate(400.38 197.32) rotate(75.85) scale(1.01 1)"><tspan x="0" y="0">0</tspan></text>
  <text class="cls-2" transform="translate(403.09 208.05) rotate(79.63) scale(1.01 1)"><tspan x="0" y="0">1</tspan></text>
  <text class="cls-2" transform="translate(405.09 218.88) rotate(83.4) scale(1.01 1)"><tspan x="0" y="0">0</tspan></text>
  <text class="cls-2" transform="translate(406.36 229.84) rotate(87.19) scale(1.01 1)"><tspan x="0" y="0">1</tspan></text>
  <text class="cls-2" transform="translate(406.91 240.88) rotate(90.98) scale(1.01 1)"><tspan x="0" y="0">0</tspan></text>
  <text class="cls-2" transform="translate(406.73 251.92) rotate(94.77) scale(1.01 1)"><tspan x="0" y="0">0</tspan></text>
  <text class="cls-2" transform="translate(405.82 262.91) rotate(98.54) scale(1.01 1)"><tspan x="0" y="0">1</tspan></text>
  <text class="cls-2" transform="translate(404.19 273.84) rotate(102.32) scale(1.01 1)"><tspan x="0" y="0">0</tspan></text>
  <text class="cls-2" transform="translate(401.84 284.64) rotate(106.1) scale(1.01 1)"><tspan x="0" y="0">1</tspan></text>
  <text class="cls-2" transform="translate(398.78 295.25) rotate(109.88) scale(1.01 1)"><tspan x="0" y="0">0</tspan></text>
  <text class="cls-2" transform="translate(395.04 305.61) rotate(113.66) scale(1.01 1)"><tspan x="0" y="0">1</tspan></text>
  <text class="cls-2" transform="translate(390.62 315.73) rotate(117.46) scale(1.01 1)"><tspan x="0" y="0">0</tspan></text>
  <text class="cls-2" transform="translate(385.53 325.55) rotate(121.27) scale(1.01 1)"><tspan x="0" y="0">1</tspan></text>
  <text class="cls-2" transform="translate(379.8 334.99) rotate(125.1) scale(1.01 1)"><tspan x="0" y="0">1</tspan></text>
  <text class="cls-2" transform="translate(373.48 344) rotate(128.94) scale(1.01 1)"><tspan x="0" y="0">1</tspan></text>
  <text class="cls-2" transform="translate(366.55 352.59) rotate(132.81) scale(1.01 1)"><tspan x="0" y="0">0</tspan></text>
  <text class="cls-2" transform="translate(359.05 360.7) rotate(136.68) scale(1.01 1)"><tspan x="0" y="0">1</tspan></text>
  <text class="cls-2" transform="translate(351.02 368.28) rotate(140.58) scale(1.01 1)"><tspan x="0" y="0">1</tspan></text>
  <text class="cls-2" transform="translate(342.51 375.29) rotate(144.46) scale(1.01 1)"><tspan x="0" y="0">1</tspan></text>
  <text class="cls-2" transform="translate(333.53 381.71) rotate(148.35) scale(1.01 1)"><tspan x="0" y="0">1</tspan></text>
  <text class="cls-2" transform="translate(324.14 387.51) rotate(152.21) scale(1.01 1)"><tspan x="0" y="0">1</tspan></text>
  <text class="cls-2" transform="translate(314.37 392.65) rotate(155.84) scale(1.01 1)"><tspan x="0" y="0">1</tspan></text>
  <text class="cls-2" transform="translate(304.3 397.15) rotate(159.84) scale(1.01 1)"><tspan x="0" y="0">1</tspan></text>
  <text class="cls-2" transform="translate(293.95 400.96) rotate(163.68) scale(1.01 1)"><tspan x="0" y="0">0</tspan></text>
  <text class="cls-2" transform="translate(283.35 404.07) rotate(167.56) scale(1.01 1)"><tspan x="0" y="0">1</tspan></text>
  <text class="cls-2" transform="translate(272.57 406.46) rotate(171.45) scale(1.01 1)"><tspan x="0" y="0">0</tspan></text>
  <text class="cls-2" transform="translate(261.68 408.1) rotate(175.33) scale(1.01 1)"><tspan x="0" y="0">0</tspan></text>
  <text class="cls-2" transform="translate(250.66 409.01) rotate(179.23) scale(1.01 1)"><tspan x="0" y="0">0</tspan></text>
  <text class="cls-2" transform="translate(239.63 409.17) rotate(-176.9) scale(1.01 1)"><tspan x="0" y="0">0</tspan></text>
  <text class="cls-2" transform="translate(228.62 408.58) rotate(-173.06) scale(1.01 1)"><tspan x="0" y="0">0</tspan></text>
  <text class="cls-2" transform="translate(217.65 407.25) rotate(-169.22) scale(1.01 1)"><tspan x="0" y="0">1</tspan></text>
  <text class="cls-2" transform="translate(206.82 405.19) rotate(-165.4) scale(1.01 1)"><tspan x="0" y="0">0</tspan></text>
  <text class="cls-2" transform="translate(196.12 402.42) rotate(-161.6) scale(1.01 1)"><tspan x="0" y="0">0</tspan></text>
  <text class="cls-2" transform="translate(185.67 398.95) rotate(-157.82) scale(1.01 1)"><tspan x="0" y="0">0</tspan></text>
  <text class="cls-2" transform="translate(175.42 394.78) rotate(-154.03) scale(1.01 1)"><tspan x="0" y="0">0</tspan></text>
  <text class="cls-2" transform="translate(165.49 389.95) rotate(-150.25) scale(1.01 1)"><tspan x="0" y="0">0</tspan></text>
  <text class="cls-2" transform="translate(155.9 384.48) rotate(-146.47) scale(1.01 1)"><tspan x="0" y="0">0</tspan></text>
  <text class="cls-2" transform="translate(146.69 378.38) rotate(-142.69) scale(1.01 1)"><tspan x="0" y="0">1</tspan></text>
  <text class="cls-2" transform="translate(137.92 371.71) rotate(-138.92) scale(1.01 1)"><tspan x="0" y="0">0</tspan></text>
  <text class="cls-2" transform="translate(129.58 364.45) rotate(-135.12) scale(1.01 1)"><tspan x="0" y="0">1</tspan></text>
  <text class="cls-2" transform="translate(121.76 356.67) rotate(-131.34) scale(1.01 1)"><tspan x="0" y="0">0</tspan></text>
</svg>