<?xml version="1.0" encoding="UTF-8"?>
<svg id="Layer_1" data-name="Layer 1" xmlns="http://www.w3.org/2000/svg" xmlns:xlink="http://www.w3.org/1999/xlink" viewBox="0 0 114.66 114.13">
  <defs>
    <style>
      .cls-1 {
        filter: url(#outer-glow-1);
      }

      .cls-1, .cls-2 {
        fill: #152235;
      }

      .cls-3 {
        fill: #f3f3f3;
      }

      .cls-4 {
        fill: #f3f2f3;
      }

      .cls-5 {
        fill: #f2f2f2;
      }

      .cls-6 {
        fill: #696363;
      }

      .cls-7 {
        fill: #686262;
      }

      .cls-8 {
        fill: #666160;
      }

      .cls-9 {
        fill: #6a6564;
      }

      .cls-10 {
        fill: #ebeaea;
      }

      .cls-11 {
        fill: #fcfdfd;
      }

      .cls-12 {
        fill: #fff;
      }

      .cls-13 {
        fill: #ecebeb;
      }

      .cls-14 {
        fill: #e5e4e4;
      }

      .cls-15 {
        fill: #e5e3e3;
      }

      .cls-16 {
        fill: #e4e3e3;
      }

      .cls-17 {
        fill: #e4e3e2;
      }

      .cls-18 {
        fill: #fed700;
      }

      .cls-19 {
        fill: #fdfeff;
      }

      .cls-20 {
        fill: #918c8c;
      }

      .cls-21 {
        fill: #746e6e;
      }

      .cls-22 {
        fill: #746f6e;
      }

      .cls-23 {
        fill: #817b7b;
      }

      .cls-24 {
        fill: #686363;
      }

      .cls-25 {
        fill: #655f5f;
      }

      .cls-26 {
        fill: #999595;
      }

      .cls-27 {
        fill: #7e7979;
      }

      .cls-28 {
        fill: #989393;
      }

      .cls-29 {
        fill: #6c6766;
      }

      .cls-30 {
        fill: #6c6767;
      }

      .cls-31 {
        fill: #6c6666;
      }

      .cls-32 {
        fill: #928d8d;
      }

      .cls-33 {
        fill: #9fbfdc;
      }

      .cls-34 {
        fill: #9e9999;
      }

      .cls-35 {
        fill: #a09b9b;
      }

      .cls-36 {
        fill: #847f7e;
      }

      .cls-37 {
        fill: #938e8e;
      }

      .cls-38 {
        fill: #858080;
      }

      .cls-39 {
        fill: #857f7f;
      }

      .cls-40 {
        fill: #c1bebe;
      }

      .cls-41 {
        fill: #8a8584;
      }

      .cls-42 {
        fill: #b5b2b1;
      }

      .cls-43 {
        fill: #b7b3b3;
      }

      .cls-44 {
        fill: #b8b4b4;
      }

      .cls-45 {
        fill: #9d9898;
      }

      .cls-46 {
        fill: #9e9a99;
      }

      .cls-47 {
        fill: #c2bfbf;
      }

      .cls-48 {
        fill: #b3afaf;
      }

      .cls-49 {
        fill: #908b8b;
      }

      .cls-50 {
        fill: #b6b2b2;
      }

      .cls-51 {
        fill: #65605f;
      }

      .cls-52 {
        fill: #322e2e;
      }

      .cls-53 {
        fill: #bab7b7;
      }

      .cls-54 {
        fill: #332f2f;
      }

      .cls-55 {
        fill: #8e8989;
      }

      .cls-56 {
        fill: #8d8888;
      }

      .cls-57 {
        fill: #8c8686;
      }

      .cls-58 {
        fill: #8c8787;
      }

      .cls-59 {
        fill: #b7c8cf;
      }

      .cls-60 {
        fill: #cdcaca;
      }

      .cls-61 {
        fill: #cdcbcb;
      }

      .cls-62 {
        fill: #b1adac;
      }

      .cls-63 {
        fill: #aca8a7;
      }

      .cls-64 {
        fill: #a9a5a5;
      }

      .cls-65 {
        fill: #b2aeae;
      }

      .cls-66 {
        fill: #bbb8b8;
      }

      .cls-67 {
        fill: #a7a3a3;
      }

      .cls-68 {
        fill: #aeaaaa;
      }

      .cls-69 {
        fill: #d8d6d6;
      }

      .cls-70 {
        fill: #d8d6d5;
      }

      .cls-71 {
        fill: #a4a0a0;
      }

      .cls-72 {
        fill: #bcb9b9;
      }

      .cls-73 {
        fill: #a6a2a2;
      }

      .cls-74 {
        fill: #bfbcbc;
      }

      .cls-75 {
        fill: #c0bdbd;
      }

      .cls-76 {
        fill: #bdbaba;
      }

      .cls-77 {
        fill: #aba7a7;
      }

      .cls-78 {
        fill: #a9cace;
      }

      .cls-79 {
        fill: #ccc9c9;
      }

      .cls-80 {
        fill: #c6c3c3;
      }

      .cls-81 {
        fill: #c9c7c7;
      }

      .cls-82 {
        fill: #dedcdc;
      }

      .cls-83 {
        fill: #d2d0d0;
      }

      .cls-84 {
        fill: #d2cfcf;
      }

      .cls-85 {
        fill: #cfcccc;
      }

      .cls-86 {
        fill: #c4c1c1;
      }

      .cls-87 {
        fill: #d4d2d2;
      }

      .cls-88 {
        fill: #d3d1d1;
      }

      .cls-89 {
        fill: #dad8d8;
      }

      .cls-90 {
        fill: #d9d7d7;
      }

      .cls-91 {
        fill: #ada9a9;
      }

      .cls-92 {
        fill: #c8c5c5;
      }

      .cls-93 {
        fill: #c7c4c4;
      }

      .cls-94 {
        fill: #b0acac;
      }

      .cls-95 {
        fill: #dfdede;
      }

      .cls-96 {
        fill: #dfdddd;
      }

      .cls-97 {
        fill: #a8a3a3;
      }

      .cls-98 {
        fill: #252222;
      }

      .cls-99 {
        fill: #221f1f;
      }

      .cls-100 {
        fill: #423d3d;
      }

      .cls-101 {
        fill: #433f3e;
      }

      .cls-102 {
        fill: #403c3b;
      }

      .cls-103 {
        fill: #413c3c;
      }

      .cls-104 {
        fill: #413d3c;
      }

      .cls-105 {
        fill: #1d3260;
      }

      .cls-106 {
        fill: #363232;
      }

      .cls-107 {
        fill: #373333;
      }

      .cls-108 {
        fill: #443f3f;
      }

      .cls-109 {
        fill: #45403f;
      }

      .cls-110 {
        fill: #454040;
      }

      .cls-111 {
        fill: #191d33;
      }

      .cls-112 {
        fill: #3e3a39;
      }

      .cls-113 {
        fill: #3e3939;
      }

      .cls-114 {
        fill: #3f3b3a;
      }

      .cls-115 {
        fill: #0d1928;
      }

      .cls-116 {
        fill: #a39e9e;
      }

      .cls-117 {
        fill: #807b7b;
      }

      .cls-118 {
        fill: #6e6868;
      }

      .cls-119 {
        fill: #a29d9d;
      }

      .cls-120 {
        fill: #959090;
      }

      .cls-121 {
        fill: #726c6c;
      }

      .cls-122 {
        fill: #969292;
      }

      .cls-123 {
        fill: #544f4f;
      }

      .cls-124 {
        fill: #464241;
      }

      .cls-125 {
        fill: #534e4e;
      }

      .cls-126 {
        fill: #9a9595;
      }

      .cls-127 {
        fill: #898484;
      }

      .cls-128 {
        fill: #888383;
      }

      .cls-129 {
        fill: #87d3e0;
      }

      .cls-130 {
        fill: #878282;
      }

      .cls-131 {
        fill: #9b9696;
      }

      .cls-132 {
        fill: #706a6a;
      }

      .cls-133 {
        fill: #706b6b;
      }

      .cls-134 {
        fill: #706b6a;
      }

      .cls-135 {
        fill: #807a7a;
      }

      .cls-136 {
        fill: #555050;
      }

      .cls-137 {
        fill: #5b5655;
      }

      .cls-138 {
        fill: #595453;
      }

      .cls-139 {
        fill: #2b2828;
      }

      .cls-140 {
        fill: #2b2727;
      }

      .cls-141 {
        fill: #2c2828;
      }

      .cls-142 {
        fill: #645f5e;
      }

      .cls-143 {
        fill: #4a4545;
      }

      .cls-144 {
        fill: #484343;
      }

      .cls-145 {
        fill: #474242;
      }

      .cls-146 {
        fill: #383333;
      }

      .cls-147 {
        fill: #383434;
      }

      .cls-148 {
        fill: #312d2d;
      }

      .cls-149 {
        fill: #3a3636;
      }

      .cls-150 {
        fill: #353131;
      }

      .cls-151 {
        fill: #3b3737;
      }

      .cls-152 {
        fill: #3b3636;
      }

      .cls-153 {
        fill: #343030;
      }

      .cls-154 {
        fill: #3d3938;
      }

      .cls-155 {
        fill: #2e2a2a;
      }

      .cls-156 {
        fill: #2e2b2a;
      }

      .cls-157 {
        fill: #2e2b2b;
      }

      .cls-158 {
        fill: #5a5554;
      }

      .cls-159 {
        fill: #393535;
      }

      .cls-160 {
        fill: #585252;
      }

      .cls-161 {
        fill: #575151;
      }

      .cls-162 {
        fill: #3c3837;
      }

      .cls-163 {
        fill: #2f2b2b;
      }

      .cls-164 {
        fill: #5f5959;
      }

      .cls-165 {
        fill: #625c5c;
      }

      .cls-166 {
        fill: #494544;
      }

      .cls-167 {
        fill: #605b5a;
      }

      .cls-168 {
        fill: #767070;
      }

      .cls-169 {
        fill: #625d5d;
      }

      .cls-170 {
        fill: #5d5757;
      }

      .cls-171 {
        fill: #7a7574;
      }

      .cls-172 {
        fill: #4b4646;
      }

      .cls-173 {
        fill: #5e5958;
      }

      .cls-174 {
        fill: #5e5858;
      }

      .cls-175 {
        fill: #615c5b;
      }

      .cls-176 {
        fill: #524d4c;
      }

      .cls-177 {
        fill: #787272;
      }

      .cls-178 {
        fill: #787372;
      }

      .cls-179 {
        fill: #837d7d;
      }

      .cls-180 {
        fill: #504b4a;
      }

      .cls-181 {
        fill: #7c7776;
      }

      .cls-182 {
        fill: #7c7777;
      }

      .cls-183 {
        fill: #7c7676;
      }

      .cls-184 {
        fill: #312e2e;
      }

      .cls-185 {
        fill: #282525;
      }

      .cls-186 {
        fill: #514c4c;
      }

      .cls-187 {
        fill: #514c4b;
      }

      .cls-188 {
        fill: #4d4847;
      }

      .cls-189 {
        fill: #4d4948;
      }

      .cls-190 {
        fill: #4e4949;
      }

      .cls-191 {
        fill: #6d7e9e;
        stroke: #a6ddea;
        stroke-width: 2px;
      }

      .cls-191, .cls-192, .cls-193 {
        stroke-miterlimit: 10;
      }

      .cls-194 {
        fill: url(#radial-gradient-10);
      }

      .cls-195 {
        fill: url(#radial-gradient-11);
      }

      .cls-196 {
        fill: url(#radial-gradient-12);
      }

      .cls-197 {
        fill: url(#radial-gradient-13);
      }

      .cls-198 {
        fill: url(#radial-gradient-6);
      }

      .cls-199 {
        fill: url(#radial-gradient-5);
      }

      .cls-200 {
        fill: url(#radial-gradient-3);
      }

      .cls-201 {
        fill: url(#radial-gradient-4);
      }

      .cls-202 {
        fill: url(#radial-gradient-9);
      }

      .cls-203 {
        fill: url(#radial-gradient-8);
      }

      .cls-204 {
        fill: url(#radial-gradient-7);
      }

      .cls-205 {
        fill: url(#radial-gradient-2);
      }

      .cls-192 {
        fill: url(#radial-gradient-14);
        stroke: #fff;
      }

      .cls-193 {
        fill: #fffffd;
        stroke: #000;
      }

      .cls-206 {
        fill: url(#radial-gradient);
      }

      .cls-207 {
        filter: url(#outer-glow-2);
      }
    </style>
    <radialGradient id="radial-gradient" cx="54.71" cy="56.28" fx="54.71" fy="56.28" r="12.2" gradientTransform="translate(3.79 1.38) scale(.98 .99)" gradientUnits="userSpaceOnUse">
      <stop offset="0" stop-color="#4d698d"/>
      <stop offset="1" stop-color="#a6ddea"/>
      <stop offset="1" stop-color="#010101"/>
    </radialGradient>
    <radialGradient id="radial-gradient-2" cx="54.71" cy="56.28" fx="54.71" fy="56.28" r="14.72" xlink:href="#radial-gradient"/>
    <radialGradient id="radial-gradient-3" r="13.46" xlink:href="#radial-gradient"/>
    <radialGradient id="radial-gradient-4" cx="54.71" fx="54.71" r="15.98" xlink:href="#radial-gradient"/>
    <radialGradient id="radial-gradient-5" cx="54.71" fx="54.71" r="17.24" xlink:href="#radial-gradient"/>
    <radialGradient id="radial-gradient-6" cx="54.71" fx="54.71" r="18.5" xlink:href="#radial-gradient"/>
    <radialGradient id="radial-gradient-7" cx="54.71" fx="54.71" r="19.76" xlink:href="#radial-gradient"/>
    <radialGradient id="radial-gradient-8" cx="54.71" cy="56.28" fx="54.71" fy="56.28" r="21.01" xlink:href="#radial-gradient"/>
    <radialGradient id="radial-gradient-9" cx="54.71" cy="56.28" fx="54.71" fy="56.28" r="22.27" xlink:href="#radial-gradient"/>
    <radialGradient id="radial-gradient-10" cx="54.71" cy="56.28" fx="54.71" fy="56.28" r="23.53" xlink:href="#radial-gradient"/>
    <radialGradient id="radial-gradient-11" cx="54.71" cy="56.28" fx="54.71" fy="56.28" r="24.79" xlink:href="#radial-gradient"/>
    <radialGradient id="radial-gradient-12" cx="54.71" fx="54.71" r="26.05" xlink:href="#radial-gradient"/>
    <radialGradient id="radial-gradient-13" r="27.31" xlink:href="#radial-gradient"/>
    <radialGradient id="radial-gradient-14" cx="54.71" fx="54.71" r="28.57" xlink:href="#radial-gradient"/>
    <filter id="outer-glow-1" filterUnits="userSpaceOnUse">
      <feOffset dx="0" dy="0"/>
      <feGaussianBlur result="blur" stdDeviation="3"/>
      <feFlood flood-color="#f3f4f2" flood-opacity=".7"/>
      <feComposite in2="blur" operator="in"/>
      <feComposite in="SourceGraphic"/>
    </filter>
    <filter id="outer-glow-2" filterUnits="userSpaceOnUse">
      <feOffset dx="0" dy="0"/>
      <feGaussianBlur result="blur-2" stdDeviation="5"/>
      <feFlood flood-color="#010101" flood-opacity=".75"/>
      <feComposite in2="blur-2" operator="in"/>
      <feComposite in="SourceGraphic"/>
    </filter>
  </defs>
  <g>
    <path class="cls-206" d="M57.33,69.16c-6.58,0-11.94-5.42-11.94-12.07s5.36-12.07,11.94-12.07,11.94,5.42,11.94,12.07-5.36,12.07-11.94,12.07Zm0-23.68c-6.33,0-11.48,5.21-11.48,11.61s5.15,11.61,11.48,11.61,11.48-5.21,11.48-11.61-5.15-11.61-11.48-11.61Z"/>
    <path class="cls-205" d="M57.33,71.65c-7.94,0-14.4-6.54-14.4-14.57s6.46-14.57,14.4-14.57,14.4,6.53,14.4,14.57-6.46,14.57-14.4,14.57Zm0-28.67c-7.69,0-13.94,6.33-13.94,14.1s6.25,14.1,13.94,14.1,13.94-6.33,13.94-14.1-6.25-14.1-13.94-14.1Z"/>
    <path class="cls-200" d="M57.33,70.4c-7.26,0-13.17-5.98-13.17-13.32s5.91-13.32,13.17-13.32,13.17,5.98,13.17,13.32-5.91,13.32-13.17,13.32Zm0-26.17c-7.01,0-12.71,5.77-12.71,12.85s5.7,12.85,12.71,12.85,12.71-5.77,12.71-12.85-5.7-12.85-12.71-12.85Z"/>
    <path class="cls-201" d="M57.33,72.9c-8.62,0-15.64-7.09-15.64-15.81s7.01-15.81,15.64-15.81,15.64,7.09,15.64,15.81-7.01,15.81-15.64,15.81Zm0-31.16c-8.37,0-15.17,6.88-15.17,15.35s6.81,15.35,15.17,15.35,15.17-6.88,15.17-15.35-6.81-15.35-15.17-15.35Z"/>
    <path class="cls-199" d="M57.33,74.14c-9.3,0-16.87-7.65-16.87-17.06s7.57-17.06,16.87-17.06,16.87,7.65,16.87,17.06-7.57,17.06-16.87,17.06Zm0-33.65c-9.05,0-16.41,7.44-16.41,16.59s7.36,16.59,16.41,16.59,16.41-7.44,16.41-16.59-7.36-16.59-16.41-16.59Z"/>
    <path class="cls-198" d="M57.33,75.39c-9.98,0-18.1-8.21-18.1-18.31s8.12-18.31,18.1-18.31,18.1,8.21,18.1,18.31-8.12,18.31-18.1,18.31Zm0-36.15c-9.73,0-17.64,8-17.64,17.84s7.91,17.84,17.64,17.84,17.64-8,17.64-17.84-7.91-17.84-17.64-17.84Z"/>
    <path class="cls-204" d="M57.33,76.64c-10.66,0-19.33-8.77-19.33-19.55s8.67-19.55,19.33-19.55,19.33,8.77,19.33,19.55-8.67,19.55-19.33,19.55Zm0-38.64c-10.41,0-18.87,8.56-18.87,19.09s8.47,19.09,18.87,19.09,18.87-8.56,18.87-19.09-8.47-19.09-18.87-19.09Z"/>
    <path class="cls-203" d="M57.33,77.88c-11.34,0-20.57-9.33-20.57-20.8s9.23-20.8,20.57-20.8,20.57,9.33,20.57,20.8-9.23,20.8-20.57,20.8Zm0-41.13c-11.09,0-20.1,9.12-20.1,20.33s9.02,20.33,20.1,20.33,20.1-9.12,20.1-20.33-9.02-20.33-20.1-20.33Z"/>
    <path class="cls-202" d="M57.33,79.13c-12.02,0-21.8-9.89-21.8-22.05s9.78-22.05,21.8-22.05,21.8,9.89,21.8,22.05-9.78,22.05-21.8,22.05Zm0-43.62c-11.77,0-21.34,9.68-21.34,21.58s9.57,21.58,21.34,21.58,21.34-9.68,21.34-21.58-9.57-21.58-21.34-21.58Z"/>
    <path class="cls-194" d="M57.33,80.37c-12.7,0-23.03-10.45-23.03-23.29s10.33-23.29,23.03-23.29,23.03,10.45,23.03,23.29-10.33,23.29-23.03,23.29Zm0-46.12c-12.44,0-22.57,10.24-22.57,22.83s10.12,22.83,22.57,22.83,22.57-10.24,22.57-22.83-10.12-22.83-22.57-22.83Z"/>
    <path class="cls-195" d="M57.33,81.62c-13.38,0-24.26-11.01-24.26-24.54s10.88-24.54,24.26-24.54,24.26,11.01,24.26,24.54-10.88,24.54-24.26,24.54Zm0-48.61c-13.12,0-23.8,10.8-23.8,24.07s10.68,24.07,23.8,24.07,23.8-10.8,23.8-24.07-10.68-24.07-23.8-24.07Z"/>
    <path class="cls-196" d="M57.33,82.87c-14.06,0-25.5-11.57-25.5-25.79s11.44-25.79,25.5-25.79,25.5,11.57,25.5,25.79-11.44,25.79-25.5,25.79Zm0-51.1c-13.8,0-25.03,11.36-25.03,25.32s11.23,25.32,25.03,25.32,25.03-11.36,25.03-25.32-11.23-25.32-25.03-25.32Z"/>
    <path class="cls-197" d="M57.33,84.11c-14.74,0-26.73-12.13-26.73-27.03s11.99-27.03,26.73-27.03,26.73,12.13,26.73,27.03-11.99,27.03-26.73,27.03Zm0-53.6c-14.48,0-26.27,11.92-26.27,26.56s11.78,26.56,26.27,26.56,26.27-11.92,26.27-26.56-11.78-26.56-26.27-26.56Z"/>
    <path class="cls-192" d="M57.33,85.36c-15.42,0-27.96-12.69-27.96-28.28s12.54-28.28,27.96-28.28,27.96,12.69,27.96,28.28-12.54,28.28-27.96,28.28Zm0-56.09c-15.16,0-27.5,12.48-27.5,27.81s12.34,27.81,27.5,27.81,27.5-12.48,27.5-27.81-12.34-27.81-27.5-27.81Z"/>
  </g>
  <path class="cls-59" d="M57.33,25.29c-17.23,0-31.2,14.23-31.2,31.79s13.97,31.79,31.2,31.79,31.2-14.23,31.2-31.79-13.97-31.79-31.2-31.79Zm0,60.29c-15.42,0-27.97-12.78-27.97-28.49s12.55-28.49,27.97-28.49,27.97,12.78,27.97,28.49-12.55,28.49-27.97,28.49Z"/>
  <g>
    <path class="cls-59" d="M73.86,83.24H40.79l-2.49-2.49V33.41c0-1.38,1.12-2.49,2.49-2.49h33.07l2.49,2.49v47.34l-2.49,2.49Z"/>
    <path class="cls-12" d="M74.29,82.64H40.36l-.87-.87V33.01l.87-.87h33.93l.87,.87v48.76l-.87,.87Z"/>
    <path class="cls-193" d="M70.04,33.29h-25.42c0,2.38-1.93,4.31-4.31,4.31v39.57c2.38,0,4.31,1.93,4.31,4.31h25.42c0-2.38,1.93-4.31,4.31-4.31V37.6c-2.38,0-4.31-1.93-4.31-4.31Zm3.38,42.56c-2.38,0-4.31,1.93-4.31,4.31h-23.54c0-2.38-1.93-4.31-4.31-4.31V38.93c2.38,0,4.31-1.93,4.31-4.31h23.54c0,2.38,1.93,4.31,4.31,4.31v36.91Z"/>
    <g>
      <path class="cls-191" d="M46.12,41.19h22.42"/>
      <path class="cls-191" d="M46.12,38.67h22.42"/>
      <path class="cls-191" d="M46.12,43.71s16.82,0,22.42,0"/>
      <path class="cls-191" d="M46.12,46.23s16.82,0,22.42,0"/>
      <path class="cls-191" d="M46.12,48.75s16.82,0,22.42,0"/>
    </g>
  </g>
  <g id="Badge">
    <path class="cls-1" d="M68.78,56.81l-2.5-8.48c-.05-.17-.19-.28-.35-.28h0c-1.38-.5-2.43-.89-4.43-2.13-1.25-.78-2.5-1.83-4.16-1.83s-2.88,1.12-4.16,1.83c-1.55,.86-1.2,.47-4.43,2.13h0c-.16,0-.3,.11-.35,.28l-2.5,8.48c-1.72,5.84,.16,12.24,4.68,15.85l6.77,5.42,6.77-5.42c4.51-3.61,6.4-10.01,4.68-15.85Z"/>
    <path class="cls-2" d="M66.75,57.57l-2.06-6.98c-.04-.14-.16-.23-.29-.23h0c-1.14-.41-2-.73-3.65-1.75-1.03-.64-2.06-1.51-3.43-1.51s-2.37,.93-3.43,1.51c-1.27,.71-.99,.39-3.65,1.75h0c-.13,0-.25,.09-.29,.23l-2.06,6.98c-1.42,4.81,.14,10.08,3.85,13.05l5.57,4.46,5.57-4.46c3.71-2.97,5.27-8.24,3.85-13.05Z"/>
    <path class="cls-11" d="M67.84,57.16l-2.3-7.79c-.05-.15-.17-.26-.32-.26h0c-1.27-.46-2.23-.81-4.07-1.95-1.15-.71-2.3-1.68-3.82-1.68s-2.64,1.03-3.82,1.68c-1.42,.79-1.1,.43-4.07,1.95h0c-.15,0-.28,.1-.32,.26l-2.3,7.79c-1.58,5.37,.15,11.24,4.3,14.56l6.22,4.97,6.22-4.97c4.15-3.32,5.88-9.19,4.3-14.56Z"/>
    <path class="cls-78" d="M66.09,57.81l-1.92-6.5c-.04-.13-.15-.21-.27-.21h0c-1.06-.38-1.86-.68-3.39-1.63-.96-.59-1.91-1.4-3.19-1.4s-2.2,.86-3.19,1.4c-1.19,.66-.92,.36-3.39,1.63h0c-.12,0-.23,.09-.27,.21l-1.92,6.5c-1.32,4.47,.13,9.37,3.58,12.14l5.18,4.15,5.18-4.15c3.45-2.76,4.9-7.66,3.58-12.14Z"/>
    <g>
      <polygon class="cls-99" points="49.93 67.14 55.65 62.64 54.51 60.99 49.93 67.14"/>
      <polygon class="cls-98" points="49.97 67.1 55.64 62.64 54.51 61 49.97 67.1"/>
      <polygon class="cls-185" points="50.01 67.07 55.63 62.64 54.51 61.01 50.01 67.07"/>
      <polygon class="cls-139" points="50.04 67.03 55.62 62.63 54.51 61.02 50.04 67.03"/>
      <polygon class="cls-157" points="50.08 66.99 55.61 62.63 54.51 61.03 50.08 66.99"/>
      <polygon class="cls-184" points="50.12 66.95 55.6 62.63 54.51 61.04 50.12 66.95"/>
      <polygon class="cls-153" points="50.16 66.91 55.59 62.63 54.51 61.06 50.16 66.91"/>
      <polygon class="cls-146" points="50.2 66.87 55.59 62.62 54.51 61.07 50.2 66.87"/>
      <polygon class="cls-152" points="50.24 66.83 55.58 62.62 54.51 61.08 50.24 66.83"/>
      <polygon class="cls-113" points="50.27 66.79 55.57 62.62 54.51 61.09 50.27 66.79"/>
      <polygon class="cls-103" points="50.31 66.75 55.56 62.62 54.51 61.1 50.31 66.75"/>
      <polygon class="cls-108" points="50.35 66.71 55.55 62.62 54.51 61.11 50.35 66.71"/>
      <polygon class="cls-145" points="50.39 66.67 55.54 62.61 54.51 61.12 50.39 66.67"/>
      <polygon class="cls-143" points="50.43 66.63 55.53 62.61 54.51 61.14 50.43 66.63"/>
      <polygon class="cls-189" points="50.46 66.59 55.52 62.61 54.51 61.15 50.46 66.59"/>
      <polygon class="cls-187" points="50.5 66.55 55.51 62.61 54.51 61.16 50.5 66.55"/>
      <polygon class="cls-123" points="50.54 66.51 55.5 62.6 54.51 61.17 50.54 66.51"/>
      <polygon class="cls-160" points="50.58 66.47 55.5 62.6 54.51 61.18 50.58 66.47"/>
      <polygon class="cls-137" points="50.62 66.43 55.49 62.6 54.51 61.19 50.62 66.43"/>
      <polygon class="cls-164" points="50.66 66.39 55.48 62.6 54.51 61.2 50.66 66.39"/>
      <polygon class="cls-169" points="50.69 66.35 55.47 62.6 54.51 61.22 50.69 66.35"/>
      <polygon class="cls-8" points="50.73 66.31 55.46 62.59 54.51 61.23 50.73 66.31"/>
      <polygon class="cls-9" points="50.77 66.27 55.45 62.59 54.51 61.24 50.77 66.27"/>
      <polygon class="cls-118" points="50.81 66.24 55.44 62.59 54.52 61.25 50.81 66.24"/>
      <polygon class="cls-121" points="50.85 66.2 55.43 62.59 54.52 61.26 50.85 66.2"/>
      <polygon class="cls-168" points="50.89 66.16 55.42 62.58 54.52 61.27 50.89 66.16"/>
      <polygon class="cls-171" points="50.92 66.12 55.41 62.58 54.52 61.28 50.92 66.12"/>
      <polygon class="cls-27" points="50.96 66.08 55.4 62.58 54.52 61.3 50.96 66.08"/>
      <polygon class="cls-179" points="51 66.04 55.4 62.58 54.52 61.31 51 66.04"/>
      <polygon class="cls-130" points="51.04 66 55.39 62.58 54.52 61.32 51.04 66"/>
      <polygon class="cls-57" points="51.08 65.96 55.38 62.57 54.52 61.33 51.08 65.96"/>
      <polygon class="cls-49" points="51.12 65.92 55.37 62.57 54.52 61.34 51.12 65.92"/>
      <polygon class="cls-120" points="51.15 65.88 55.36 62.57 54.52 61.35 51.15 65.88"/>
      <polygon class="cls-26" points="51.19 65.84 55.35 62.57 54.52 61.36 51.19 65.84"/>
      <polygon class="cls-46" points="51.23 65.8 55.34 62.56 54.52 61.38 51.23 65.8"/>
      <polygon class="cls-116" points="51.27 65.76 55.33 62.56 54.52 61.39 51.27 65.76"/>
      <polygon class="cls-97" points="51.31 65.72 55.32 62.56 54.52 61.4 51.31 65.72"/>
      <polygon class="cls-91" points="51.34 65.68 55.31 62.56 54.52 61.41 51.34 65.68"/>
      <polygon class="cls-65" points="51.38 65.64 55.3 62.55 54.52 61.42 51.38 65.64"/>
      <polygon class="cls-43" points="51.42 65.6 55.3 62.55 54.52 61.43 51.42 65.6"/>
      <polygon class="cls-72" points="51.46 65.56 55.29 62.55 54.52 61.44 51.46 65.56"/>
      <polygon class="cls-40" points="51.5 65.52 55.28 62.55 54.52 61.46 51.5 65.52"/>
      <polygon class="cls-93" points="51.54 65.48 55.27 62.55 54.52 61.47 51.54 65.48"/>
      <polygon class="cls-60" points="51.57 65.44 55.26 62.54 54.52 61.48 51.57 65.44"/>
      <polygon class="cls-83" points="51.61 65.41 55.25 62.54 54.52 61.49 51.61 65.41"/>
      <polygon class="cls-69" points="51.65 65.37 55.24 62.54 54.52 61.5 51.65 65.37"/>
      <polygon class="cls-82" points="51.69 65.33 55.23 62.54 54.52 61.51 51.69 65.33"/>
      <polygon class="cls-16" points="51.73 65.29 55.22 62.53 54.52 61.52 51.73 65.29"/>
      <polygon class="cls-10" points="51.77 65.25 55.21 62.53 54.52 61.54 51.77 65.25"/>
      <polygon class="cls-5" points="51.8 65.21 55.2 62.53 54.53 61.55 51.8 65.21"/>
      <polygon class="cls-19" points="51.84 65.17 55.2 62.53 54.53 61.56 51.84 65.17"/>
    </g>
    <g>
      <polygon class="cls-99" points="64.39 67.14 59.91 61.32 58.35 62.55 64.39 67.14"/>
      <polygon class="cls-98" points="64.35 67.1 59.91 61.33 58.36 62.55 64.35 67.1"/>
      <polygon class="cls-185" points="64.31 67.07 59.91 61.34 58.37 62.55 64.31 67.07"/>
      <polygon class="cls-141" points="64.28 67.03 59.91 61.35 58.38 62.55 64.28 67.03"/>
      <polygon class="cls-163" points="64.24 66.99 59.9 61.36 58.4 62.55 64.24 66.99"/>
      <polygon class="cls-52" points="64.2 66.95 59.9 61.37 58.41 62.55 64.2 66.95"/>
      <polygon class="cls-150" points="64.16 66.91 59.9 61.38 58.42 62.55 64.16 66.91"/>
      <polygon class="cls-147" points="64.12 66.87 59.9 61.39 58.43 62.55 64.12 66.87"/>
      <polygon class="cls-151" points="64.08 66.83 59.9 61.4 58.44 62.54 64.08 66.83"/>
      <polygon class="cls-112" points="64.04 66.79 59.89 61.41 58.45 62.54 64.04 66.79"/>
      <polygon class="cls-104" points="64 66.75 59.89 61.42 58.46 62.54 64 66.75"/>
      <polygon class="cls-109" points="63.96 66.71 59.89 61.43 58.47 62.54 63.96 66.71"/>
      <polygon class="cls-144" points="63.92 66.67 59.89 61.44 58.48 62.54 63.92 66.67"/>
      <polygon class="cls-172" points="63.88 66.63 59.89 61.45 58.5 62.54 63.88 66.63"/>
      <polygon class="cls-190" points="63.84 66.59 59.88 61.46 58.51 62.54 63.84 66.59"/>
      <polygon class="cls-176" points="63.8 66.55 59.88 61.47 58.52 62.54 63.8 66.55"/>
      <polygon class="cls-136" points="63.76 66.51 59.88 61.48 58.53 62.54 63.76 66.51"/>
      <polygon class="cls-138" points="63.72 66.47 59.88 61.49 58.54 62.54 63.72 66.47"/>
      <polygon class="cls-170" points="63.68 66.43 59.88 61.5 58.55 62.54 63.68 66.43"/>
      <polygon class="cls-167" points="63.64 66.39 59.87 61.5 58.56 62.54 63.64 66.39"/>
      <polygon class="cls-142" points="63.6 66.35 59.87 61.51 58.57 62.54 63.6 66.35"/>
      <polygon class="cls-7" points="63.56 66.31 59.87 61.52 58.59 62.54 63.56 66.31"/>
      <polygon class="cls-31" points="63.52 66.28 59.87 61.53 58.6 62.53 63.52 66.28"/>
      <polygon class="cls-132" points="63.48 66.24 59.87 61.54 58.61 62.53 63.48 66.24"/>
      <polygon class="cls-21" points="63.44 66.2 59.86 61.55 58.62 62.53 63.44 66.2"/>
      <polygon class="cls-178" points="63.4 66.16 59.86 61.56 58.63 62.53 63.4 66.16"/>
      <polygon class="cls-182" points="63.36 66.12 59.86 61.57 58.64 62.53 63.36 66.12"/>
      <polygon class="cls-23" points="63.32 66.08 59.86 61.58 58.65 62.53 63.32 66.08"/>
      <polygon class="cls-38" points="63.28 66.04 59.86 61.59 58.66 62.53 63.28 66.04"/>
      <polygon class="cls-41" points="63.24 66 59.85 61.6 58.68 62.53 63.24 66"/>
      <polygon class="cls-55" points="63.2 65.96 59.85 61.61 58.69 62.53 63.2 65.96"/>
      <polygon class="cls-37" points="63.16 65.92 59.85 61.62 58.7 62.53 63.16 65.92"/>
      <polygon class="cls-28" points="63.12 65.88 59.85 61.63 58.71 62.53 63.12 65.88"/>
      <polygon class="cls-45" points="63.08 65.84 59.85 61.64 58.72 62.53 63.08 65.84"/>
      <polygon class="cls-119" points="63.04 65.8 59.84 61.65 58.73 62.53 63.04 65.8"/>
      <polygon class="cls-73" points="63 65.76 59.84 61.66 58.74 62.53 63 65.76"/>
      <polygon class="cls-77" points="62.96 65.72 59.84 61.67 58.75 62.53 62.96 65.72"/>
      <polygon class="cls-62" points="62.92 65.68 59.84 61.68 58.77 62.52 62.92 65.68"/>
      <polygon class="cls-50" points="62.88 65.64 59.84 61.69 58.78 62.52 62.88 65.64"/>
      <polygon class="cls-66" points="62.84 65.6 59.84 61.7 58.79 62.52 62.84 65.6"/>
      <polygon class="cls-75" points="62.8 65.56 59.83 61.71 58.8 62.52 62.8 65.56"/>
      <polygon class="cls-80" points="62.76 65.52 59.83 61.72 58.81 62.52 62.76 65.52"/>
      <polygon class="cls-79" points="62.72 65.49 59.83 61.73 58.82 62.52 62.72 65.49"/>
      <polygon class="cls-84" points="62.68 65.45 59.83 61.74 58.83 62.52 62.68 65.45"/>
      <polygon class="cls-70" points="62.64 65.41 59.83 61.75 58.84 62.52 62.64 65.41"/>
      <polygon class="cls-82" points="62.6 65.37 59.82 61.76 58.86 62.52 62.6 65.37"/>
      <polygon class="cls-17" points="62.56 65.33 59.82 61.77 58.87 62.52 62.56 65.33"/>
      <polygon class="cls-10" points="62.52 65.29 59.82 61.78 58.88 62.52 62.52 65.29"/>
      <polygon class="cls-5" points="62.48 65.25 59.82 61.79 58.89 62.52 62.48 65.25"/>
      <polygon class="cls-19" points="62.44 65.21 59.82 61.8 58.9 62.52 62.44 65.21"/>
    </g>
    <g>
      <polygon class="cls-99" points="64.39 53.35 59.04 58.32 60.31 59.87 64.39 53.35"/>
      <polygon class="cls-98" points="64.36 53.39 59.05 58.32 60.31 59.86 64.36 53.39"/>
      <polygon class="cls-185" points="64.33 53.43 59.06 58.32 60.31 59.85 64.33 53.43"/>
      <polygon class="cls-140" points="64.3 53.47 59.07 58.32 60.3 59.84 64.3 53.47"/>
      <polygon class="cls-155" points="64.26 53.51 59.08 58.32 60.3 59.83 64.26 53.51"/>
      <polygon class="cls-148" points="64.23 53.55 59.08 58.32 60.3 59.81 64.23 53.55"/>
      <polygon class="cls-54" points="64.2 53.59 59.09 58.32 60.3 59.8 64.2 53.59"/>
      <polygon class="cls-106" points="64.16 53.63 59.1 58.33 60.3 59.79 64.16 53.63"/>
      <polygon class="cls-159" points="64.13 53.67 59.11 58.33 60.3 59.78 64.13 53.67"/>
      <polygon class="cls-162" points="64.1 53.71 59.12 58.33 60.3 59.77 64.1 53.71"/>
      <polygon class="cls-114" points="64.06 53.75 59.13 58.33 60.3 59.76 64.06 53.75"/>
      <polygon class="cls-100" points="64.03 53.79 59.14 58.33 60.3 59.75 64.03 53.79"/>
      <polygon class="cls-110" points="64 53.83 59.15 58.33 60.29 59.74 64 53.83"/>
      <polygon class="cls-144" points="63.96 53.87 59.15 58.33 60.29 59.73 63.96 53.87"/>
      <polygon class="cls-172" points="63.93 53.91 59.16 58.34 60.29 59.72 63.93 53.91"/>
      <polygon class="cls-190" points="63.9 53.95 59.17 58.34 60.29 59.71 63.9 53.95"/>
      <polygon class="cls-186" points="63.87 53.99 59.18 58.34 60.29 59.7 63.87 53.99"/>
      <polygon class="cls-123" points="63.83 54.03 59.19 58.34 60.29 59.69 63.83 54.03"/>
      <polygon class="cls-160" points="63.8 54.07 59.2 58.34 60.29 59.68 63.8 54.07"/>
      <polygon class="cls-137" points="63.77 54.11 59.21 58.34 60.29 59.66 63.77 54.11"/>
      <polygon class="cls-173" points="63.73 54.15 59.22 58.34 60.28 59.65 63.73 54.15"/>
      <polygon class="cls-165" points="63.7 54.19 59.22 58.35 60.28 59.64 63.7 54.19"/>
      <polygon class="cls-51" points="63.67 54.23 59.23 58.35 60.28 59.63 63.67 54.23"/>
      <polygon class="cls-6" points="63.63 54.27 59.24 58.35 60.28 59.62 63.63 54.27"/>
      <polygon class="cls-30" points="63.6 54.31 59.25 58.35 60.28 59.61 63.6 54.31"/>
      <polygon class="cls-133" points="63.57 54.35 59.26 58.35 60.28 59.6 63.57 54.35"/>
      <polygon class="cls-22" points="63.53 54.39 59.27 58.35 60.28 59.59 63.53 54.39"/>
      <polygon class="cls-177" points="63.5 54.43 59.28 58.35 60.28 59.58 63.5 54.43"/>
      <polygon class="cls-183" points="63.47 54.47 59.29 58.36 60.28 59.57 63.47 54.47"/>
      <polygon class="cls-135" points="63.43 54.51 59.29 58.36 60.27 59.56 63.43 54.51"/>
      <polygon class="cls-36" points="63.4 54.55 59.3 58.36 60.27 59.55 63.4 54.55"/>
      <polygon class="cls-128" points="63.37 54.59 59.31 58.36 60.27 59.54 63.37 54.59"/>
      <polygon class="cls-58" points="63.34 54.63 59.32 58.36 60.27 59.53 63.34 54.63"/>
      <polygon class="cls-20" points="63.3 54.67 59.33 58.36 60.27 59.51 63.3 54.67"/>
      <polygon class="cls-120" points="63.27 54.71 59.34 58.36 60.27 59.5 63.27 54.71"/>
      <polygon class="cls-126" points="63.24 54.75 59.35 58.36 60.27 59.49 63.24 54.75"/>
      <polygon class="cls-34" points="63.2 54.8 59.35 58.37 60.27 59.48 63.2 54.8"/>
      <polygon class="cls-116" points="63.17 54.84 59.36 58.37 60.26 59.47 63.17 54.84"/>
      <polygon class="cls-67" points="63.14 54.88 59.37 58.37 60.26 59.46 63.14 54.88"/>
      <polygon class="cls-63" points="63.1 54.92 59.38 58.37 60.26 59.45 63.1 54.92"/>
      <polygon class="cls-94" points="63.07 54.96 59.39 58.37 60.26 59.44 63.07 54.96"/>
      <polygon class="cls-42" points="63.04 55 59.4 58.37 60.26 59.43 63.04 55"/>
      <polygon class="cls-53" points="63 55.04 59.41 58.37 60.26 59.42 63 55.04"/>
      <polygon class="cls-74" points="62.97 55.08 59.42 58.38 60.26 59.41 62.97 55.08"/>
      <polygon class="cls-86" points="62.94 55.12 59.42 58.38 60.26 59.4 62.94 55.12"/>
      <polygon class="cls-81" points="62.91 55.16 59.43 58.38 60.25 59.39 62.91 55.16"/>
      <polygon class="cls-85" points="62.87 55.2 59.44 58.38 60.25 59.37 62.87 55.2"/>
      <polygon class="cls-87" points="62.84 55.24 59.45 58.38 60.25 59.36 62.84 55.24"/>
      <polygon class="cls-89" points="62.81 55.28 59.46 58.38 60.25 59.35 62.81 55.28"/>
      <polygon class="cls-95" points="62.77 55.32 59.47 58.38 60.25 59.34 62.77 55.32"/>
      <polygon class="cls-14" points="62.74 55.36 59.48 58.39 60.25 59.33 62.74 55.36"/>
      <polygon class="cls-13" points="62.71 55.4 59.49 58.39 60.25 59.32 62.71 55.4"/>
      <polygon class="cls-3" points="62.67 55.44 59.49 58.39 60.25 59.31 62.67 55.44"/>
      <polygon class="cls-19" points="62.64 55.48 59.5 58.39 60.25 59.3 62.64 55.48"/>
    </g>
    <g>
      <polygon class="cls-99" points="50.18 53.35 54.52 59.61 55.72 57.99 50.18 53.35"/>
      <polygon class="cls-98" points="50.21 53.39 54.52 59.6 55.71 57.99 50.21 53.39"/>
      <polygon class="cls-185" points="50.25 53.43 54.52 59.59 55.71 57.99 50.25 53.43"/>
      <polygon class="cls-139" points="50.28 53.47 54.52 59.58 55.7 57.99 50.28 53.47"/>
      <polygon class="cls-156" points="50.32 53.51 54.52 59.57 55.69 57.99 50.32 53.51"/>
      <polygon class="cls-148" points="50.35 53.55 54.52 59.56 55.68 58 50.35 53.55"/>
      <polygon class="cls-153" points="50.39 53.59 54.52 59.55 55.67 58 50.39 53.59"/>
      <polygon class="cls-107" points="50.43 53.63 54.53 59.54 55.66 58 50.43 53.63"/>
      <polygon class="cls-149" points="50.46 53.67 54.53 59.52 55.65 58 50.46 53.67"/>
      <polygon class="cls-154" points="50.5 53.71 54.53 59.51 55.64 58.01 50.5 53.71"/>
      <polygon class="cls-102" points="50.53 53.75 54.53 59.5 55.63 58.01 50.53 53.75"/>
      <polygon class="cls-101" points="50.57 53.79 54.53 59.49 55.62 58.01 50.57 53.79"/>
      <polygon class="cls-124" points="50.61 53.83 54.53 59.48 55.61 58.01 50.61 53.83"/>
      <polygon class="cls-166" points="50.64 53.87 54.53 59.47 55.61 58.01 50.64 53.87"/>
      <polygon class="cls-188" points="50.68 53.9 54.53 59.46 55.6 58.02 50.68 53.9"/>
      <polygon class="cls-180" points="50.71 53.94 54.53 59.45 55.59 58.02 50.71 53.94"/>
      <polygon class="cls-125" points="50.75 53.98 54.53 59.44 55.58 58.02 50.75 53.98"/>
      <polygon class="cls-161" points="50.79 54.02 54.53 59.42 55.57 58.02 50.79 54.02"/>
      <polygon class="cls-158" points="50.82 54.06 54.53 59.41 55.56 58.02 50.82 54.06"/>
      <polygon class="cls-174" points="50.86 54.1 54.53 59.4 55.55 58.03 50.86 54.1"/>
      <polygon class="cls-175" points="50.89 54.14 54.53 59.39 55.54 58.03 50.89 54.14"/>
      <polygon class="cls-25" points="50.93 54.18 54.54 59.38 55.53 58.03 50.93 54.18"/>
      <polygon class="cls-24" points="50.97 54.22 54.54 59.37 55.52 58.03 50.97 54.22"/>
      <polygon class="cls-29" points="51 54.26 54.54 59.36 55.51 58.03 51 54.26"/>
      <polygon class="cls-134" points="51.04 54.3 54.54 59.35 55.51 58.04 51.04 54.3"/>
      <polygon class="cls-21" points="51.07 54.34 54.54 59.34 55.5 58.04 51.07 54.34"/>
      <polygon class="cls-178" points="51.11 54.38 54.54 59.32 55.49 58.04 51.11 54.38"/>
      <polygon class="cls-181" points="51.15 54.42 54.54 59.31 55.48 58.04 51.15 54.42"/>
      <polygon class="cls-117" points="51.18 54.46 54.54 59.3 55.47 58.04 51.18 54.46"/>
      <polygon class="cls-39" points="51.22 54.5 54.54 59.29 55.46 58.05 51.22 54.5"/>
      <polygon class="cls-127" points="51.25 54.54 54.54 59.28 55.45 58.05 51.25 54.54"/>
      <polygon class="cls-56" points="51.29 54.58 54.54 59.27 55.44 58.05 51.29 54.58"/>
      <polygon class="cls-32" points="51.33 54.62 54.54 59.26 55.43 58.05 51.33 54.62"/>
      <polygon class="cls-122" points="51.36 54.66 54.54 59.25 55.42 58.06 51.36 54.66"/>
      <polygon class="cls-131" points="51.4 54.7 54.54 59.24 55.42 58.06 51.4 54.7"/>
      <polygon class="cls-35" points="51.43 54.74 54.55 59.22 55.41 58.06 51.43 54.74"/>
      <polygon class="cls-71" points="51.47 54.78 54.55 59.21 55.4 58.06 51.47 54.78"/>
      <polygon class="cls-64" points="51.51 54.82 54.55 59.2 55.39 58.06 51.51 54.82"/>
      <polygon class="cls-68" points="51.54 54.86 54.55 59.19 55.38 58.07 51.54 54.86"/>
      <polygon class="cls-48" points="51.58 54.9 54.55 59.18 55.37 58.07 51.58 54.9"/>
      <polygon class="cls-44" points="51.61 54.94 54.55 59.17 55.36 58.07 51.61 54.94"/>
      <polygon class="cls-76" points="51.65 54.98 54.55 59.16 55.35 58.07 51.65 54.98"/>
      <polygon class="cls-47" points="51.69 55.02 54.55 59.15 55.34 58.07 51.69 55.02"/>
      <polygon class="cls-92" points="51.72 55.06 54.55 59.14 55.33 58.08 51.72 55.06"/>
      <polygon class="cls-61" points="51.76 55.1 54.55 59.12 55.32 58.08 51.76 55.1"/>
      <polygon class="cls-88" points="51.79 55.14 54.55 59.11 55.32 58.08 51.79 55.14"/>
      <polygon class="cls-90" points="51.83 55.18 54.55 59.1 55.31 58.08 51.83 55.18"/>
      <polygon class="cls-96" points="51.87 55.22 54.55 59.09 55.3 58.08 51.87 55.22"/>
      <polygon class="cls-15" points="51.9 55.26 54.55 59.08 55.29 58.09 51.9 55.26"/>
      <polygon class="cls-10" points="51.94 55.3 54.56 59.07 55.28 58.09 51.94 55.3"/>
      <polygon class="cls-4" points="51.97 55.33 54.56 59.06 55.27 58.09 51.97 55.33"/>
      <polygon class="cls-19" points="52.01 55.37 54.56 59.05 55.26 58.09 52.01 55.37"/>
    </g>
    <ellipse class="cls-2" cx="53.1" cy="68.7" rx=".7" ry=".77"/>
    <ellipse class="cls-2" cx="60.84" cy="68.7" rx=".7" ry=".77"/>
    <ellipse class="cls-2" cx="54.25" cy="52.16" rx=".7" ry=".77"/>
    <ellipse class="cls-2" cx="60.08" cy="52.16" rx=".7" ry=".77"/>
    <ellipse class="cls-2" cx="64.89" cy="61.08" rx=".7" ry=".77"/>
    <ellipse class="cls-2" cx="49.77" cy="61.08" rx=".7" ry=".77"/>
    <ellipse id="_1" data-name="1" class="cls-115" cx="57.33" cy="61.08" rx="6.19" ry="6.81"/>
    <ellipse id="_2" data-name="2" class="cls-18" cx="57.33" cy="61.08" rx="5.86" ry="6.45"/>
    <ellipse id="_3" data-name="3" class="cls-111" cx="57.33" cy="61.08" rx="5.44" ry="5.99"/>
    <ellipse id="_4" data-name="4" class="cls-33" cx="57.33" cy="61.08" rx="5.11" ry="5.63"/>
    <ellipse id="_5" data-name="5" class="cls-105" cx="57.33" cy="61.08" rx="4.41" ry="4.86"/>
    <ellipse id="_6" data-name="6" class="cls-129" cx="57.33" cy="61.08" rx="3.85" ry="4.24"/>
    <g id="Bitcoin" class="cls-207">
      <path class="cls-18" d="M58.21,60.98h-.12c.54,0,.98-.48,.98-1.07v-.07c0-.59-.44-1.07-.98-1.07h-.06v-.87h-.43v.87h-.61v-.87h-.43v.87h-1.16v.7h.49v3.26h-.55v.67h1.22v.87h.43v-.87h.61v.87h.43v-.87h.24c.58-.04,1.04-.56,1.04-1.21h0c0-.67-.49-1.21-1.1-1.21Zm-1.28-1.51h.63c.29,0,.52,.26,.52,.57s-.23,.57-.52,.57h-.63v-1.14Zm1.31,2.58c0,.32-.23,.57-.52,.57h-.79v-1.21h.79c.29,0,.52,.26,.52,.57v.07Z"/>
    </g>
  </g>
</svg>