<?xml version="1.0" encoding="UTF-8"?>
<svg id="Layer_1" data-name="Layer 1" xmlns="http://www.w3.org/2000/svg" xmlns:xlink="http://www.w3.org/1999/xlink" viewBox="0 0 557.56 554.95">
  <defs>
    <style>
      .cls-1 {
        filter: url(#outer-glow-1);
      }

      .cls-1, .cls-2 {
        fill: #152235;
      }

      .cls-3 {
        fill: #f3f3f3;
      }

      .cls-4 {
        fill: #f3f2f3;
      }

      .cls-5 {
        fill: #f6f6f6;
      }

      .cls-6 {
        fill: #f7fcfe;
      }

      .cls-7 {
        fill: #f2f2f2;
      }

      .cls-8 {
        fill: #f9fafa;
      }

      .cls-9 {
        fill: #696363;
      }

      .cls-10 {
        fill: #686262;
      }

      .cls-11 {
        fill: #676262;
      }

      .cls-12 {
        fill: #676261;
      }

      .cls-13 {
        fill: #666160;
      }

      .cls-14 {
        fill: #666161;
      }

      .cls-15 {
        fill: #666060;
      }

      .cls-16 {
        fill: #6a6564;
      }

      .cls-17 {
        fill: #6a6464;
      }

      .cls-18 {
        fill: #eeeded;
      }

      .cls-19 {
        fill: #ebeaea;
      }

      .cls-20 {
        fill: #f0eff0;
      }

      .cls-21 {
        fill: #f0efef;
      }

      .cls-22 {
        fill: #f0f0f0;
      }

      .cls-23 {
        fill: #e9e9e8;
      }

      .cls-24 {
        fill: #e9e8e8;
      }

      .cls-25 {
        fill: #f5f6f6;
      }

      .cls-26 {
        fill: #fcfdfd;
      }

      .cls-27 {
        fill: #e7e6e6;
      }

      .cls-28 {
        fill: #e6e5e5;
      }

      .cls-29 {
        fill: #e3e1e1;
      }

      .cls-30 {
        fill: #e3e2e2;
      }

      .cls-31 {
        fill: #ededed;
      }

      .cls-32 {
        fill: #edecec;
      }

      .cls-33 {
        fill: #e2e1e1;
      }

      .cls-34 {
        fill: #fff;
      }

      .cls-35 {
        fill: #e8e7e7;
      }

      .cls-36 {
        fill: #ecebeb;
      }

      .cls-37 {
        fill: #e5e4e4;
      }

      .cls-38 {
        fill: #e5e3e3;
      }

      .cls-39 {
        fill: #eff8f9;
      }

      .cls-40 {
        fill: #e4e3e3;
      }

      .cls-41 {
        fill: #fdfeff;
      }

      .cls-42 {
        fill: #918c8c;
      }

      .cls-43 {
        fill: #6b6666;
      }

      .cls-44 {
        fill: #6b6665;
      }

      .cls-45 {
        fill: #6b6565;
      }

      .cls-46 {
        fill: #746e6e;
      }

      .cls-47 {
        fill: #746f6e;
      }

      .cls-48 {
        fill: #817c7c;
      }

      .cls-49 {
        fill: #736e6e;
      }

      .cls-50 {
        fill: #686363;
      }

      .cls-51 {
        fill: #655f5f;
      }

      .cls-52 {
        fill: #989494;
      }

      .cls-53 {
        fill: #999595;
      }

      .cls-54 {
        fill: #7e7878;
      }

      .cls-55 {
        fill: #7e7979;
      }

      .cls-56 {
        fill: #989393;
      }

      .cls-57 {
        fill: #979292;
      }

      .cls-58 {
        fill: #6c6766;
      }

      .cls-59 {
        fill: #6c6767;
      }

      .cls-60 {
        fill: #7f7979;
      }

      .cls-61 {
        fill: #7d7777;
      }

      .cls-62 {
        fill: #7d7878;
      }

      .cls-63 {
        fill: #7d7877;
      }

      .cls-64 {
        fill: #9c9898;
      }

      .cls-65 {
        fill: #928d8d;
      }

      .cls-66 {
        fill: #a19c9c;
      }

      .cls-67 {
        fill: #9fbfdc;
      }

      .cls-68 {
        fill: #9f9a9a;
      }

      .cls-69 {
        fill: #9e9999;
      }

      .cls-70 {
        fill: #a09b9b;
      }

      .cls-71 {
        fill: #a09c9c;
      }

      .cls-72 {
        fill: #847f7e;
      }

      .cls-73 {
        fill: #847f7f;
      }

      .cls-74 {
        fill: #938e8e;
      }

      .cls-75 {
        fill: #858080;
      }

      .cls-76 {
        fill: #857f7f;
      }

      .cls-77 {
        fill: #c1bebe;
      }

      .cls-78 {
        fill: #b4b0b0;
      }

      .cls-79 {
        fill: #b4b1b1;
      }

      .cls-80 {
        fill: #8a8484;
      }

      .cls-81 {
        fill: #8a8585;
      }

      .cls-82 {
        fill: #b5b2b1;
      }

      .cls-83 {
        fill: #b5b1b1;
      }

      .cls-84 {
        fill: #b7b3b3;
      }

      .cls-85 {
        fill: #b8b4b4;
      }

      .cls-86 {
        fill: #9d9898;
      }

      .cls-87 {
        fill: #8b8686;
      }

      .cls-88 {
        fill: #9c9797;
      }

      .cls-89 {
        fill: #9e9a99;
      }

      .cls-90 {
        fill: #a19d9d;
      }

      .cls-91 {
        fill: #b9b5b5;
      }

      .cls-92 {
        fill: #c2bfbf;
      }

      .cls-93 {
        fill: #b3afaf;
      }

      .cls-94 {
        fill: #b3b0b0;
      }

      .cls-95 {
        fill: #8f8a89;
      }

      .cls-96 {
        fill: #8f8a8a;
      }

      .cls-97 {
        fill: #908b8b;
      }

      .cls-98 {
        fill: #908c8b;
      }

      .cls-99 {
        fill: #b6b2b2;
      }

      .cls-100 {
        fill: #b6b3b3;
      }

      .cls-101 {
        fill: #65605f;
      }

      .cls-102 {
        fill: #736d6d;
      }

      .cls-103 {
        fill: #322e2e;
      }

      .cls-104 {
        fill: #322f2e;
      }

      .cls-105 {
        fill: #bab7b7;
      }

      .cls-106 {
        fill: #bab6b6;
      }

      .cls-107 {
        fill: #332f2f;
      }

      .cls-108 {
        fill: #302d2d;
      }

      .cls-109 {
        fill: #33302f;
      }

      .cls-110 {
        fill: #8e8989;
      }

      .cls-111 {
        fill: #8d8888;
      }

      .cls-112 {
        fill: #8c8686;
      }

      .cls-113 {
        fill: #8c8787;
      }

      .cls-114 {
        fill: #b7c8cf;
      }

      .cls-115 {
        fill: #cecbcb;
      }

      .cls-116 {
        fill: #cecccc;
      }

      .cls-117 {
        fill: #cdcaca;
      }

      .cls-118 {
        fill: #cdcbcb;
      }

      .cls-119 {
        fill: #a5a1a1;
      }

      .cls-120 {
        fill: #a5a0a0;
      }

      .cls-121 {
        fill: #b1adad;
      }

      .cls-122 {
        fill: #aca8a8;
      }

      .cls-123 {
        fill: #aca8a7;
      }

      .cls-124 {
        fill: #a9a5a5;
      }

      .cls-125 {
        fill: #a9a4a4;
      }

      .cls-126 {
        fill: #b2aeae;
      }

      .cls-127 {
        fill: #aaa6a6;
      }

      .cls-128 {
        fill: #bbb8b8;
      }

      .cls-129 {
        fill: #a7a3a2;
      }

      .cls-130 {
        fill: #a7a3a3;
      }

      .cls-131 {
        fill: #aeaaaa;
      }

      .cls-132 {
        fill: #aea9a9;
      }

      .cls-133 {
        fill: #d8d6d6;
      }

      .cls-134 {
        fill: #a49f9f;
      }

      .cls-135 {
        fill: #a4a0a0;
      }

      .cls-136 {
        fill: #a4a09f;
      }

      .cls-137 {
        fill: #afabab;
      }

      .cls-138 {
        fill: #bcb8b8;
      }

      .cls-139 {
        fill: #bcb9b9;
      }

      .cls-140 {
        fill: #a6a1a1;
      }

      .cls-141 {
        fill: #a6a2a1;
      }

      .cls-142 {
        fill: #a6a2a2;
      }

      .cls-143 {
        fill: #bfbcbc;
      }

      .cls-144 {
        fill: #c0bdbc;
      }

      .cls-145 {
        fill: #bdbaba;
      }

      .cls-146 {
        fill: #aba7a6;
      }

      .cls-147 {
        fill: #aba7a7;
      }

      .cls-148 {
        fill: #a9cace;
      }

      .cls-149 {
        fill: #bebbbb;
      }

      .cls-150 {
        fill: #ccc9c9;
      }

      .cls-151 {
        fill: #cbc8c8;
      }

      .cls-152 {
        fill: #cbc9c9;
      }

      .cls-153 {
        fill: #c6c3c3;
      }

      .cls-154 {
        fill: #cac7c7;
      }

      .cls-155 {
        fill: #c9c6c6;
      }

      .cls-156 {
        fill: #c9c7c7;
      }

      .cls-157 {
        fill: #d0cece;
      }

      .cls-158 {
        fill: #cfcdcd;
      }

      .cls-159 {
        fill: #dedcdc;
      }

      .cls-160 {
        fill: #dddbdb;
      }

      .cls-161 {
        fill: #d2d0d0;
      }

      .cls-162 {
        fill: #d1cfcf;
      }

      .cls-163 {
        fill: #d1cece;
      }

      .cls-164 {
        fill: #cfcccc;
      }

      .cls-165 {
        fill: #c3c0bf;
      }

      .cls-166 {
        fill: #c3c0c0;
      }

      .cls-167 {
        fill: #c4c2c2;
      }

      .cls-168 {
        fill: #c4c1c1;
      }

      .cls-169 {
        fill: #d6d4d4;
      }

      .cls-170 {
        fill: #d4d2d2;
      }

      .cls-171 {
        fill: #dcdada;
      }

      .cls-172 {
        fill: #dbd9d9;
      }

      .cls-173 {
        fill: #d3d0d0;
      }

      .cls-174 {
        fill: #d3d1d1;
      }

      .cls-175 {
        fill: #dad8d8;
      }

      .cls-176 {
        fill: #d9d7d7;
      }

      .cls-177 {
        fill: #e0dede;
      }

      .cls-178 {
        fill: #e0dfde;
      }

      .cls-179 {
        fill: #ada9a9;
      }

      .cls-180 {
        fill: #d7d5d5;
      }

      .cls-181 {
        fill: #c5c2c2;
      }

      .cls-182 {
        fill: #c6c4c3;
      }

      .cls-183 {
        fill: #e2e0e0;
      }

      .cls-184 {
        fill: #e1dfdf;
      }

      .cls-185 {
        fill: #e1e0e0;
      }

      .cls-186 {
        fill: #c8c5c5;
      }

      .cls-187 {
        fill: #c7c4c4;
      }

      .cls-188 {
        fill: #b0acac;
      }

      .cls-189 {
        fill: #dfdede;
      }

      .cls-190 {
        fill: #dfdddd;
      }

      .cls-191 {
        fill: #d5d3d3;
      }

      .cls-192 {
        fill: #a8a3a3;
      }

      .cls-193 {
        fill: #252222;
      }

      .cls-194 {
        fill: #242121;
      }

      .cls-195 {
        fill: #221f1f;
      }

      .cls-196 {
        fill: #232020;
      }

      .cls-197 {
        fill: #423e3d;
      }

      .cls-198 {
        fill: #423d3d;
      }

      .cls-199 {
        fill: #433f3e;
      }

      .cls-200 {
        fill: #433e3e;
      }

      .cls-201 {
        fill: #403b3b;
      }

      .cls-202 {
        fill: #403c3b;
      }

      .cls-203 {
        fill: #413c3c;
      }

      .cls-204 {
        fill: #413d3c;
      }

      .cls-205 {
        fill: #1d3260;
      }

      .cls-206 {
        fill: #363232;
      }

      .cls-207 {
        fill: #373333;
      }

      .cls-208 {
        fill: #373332;
      }

      .cls-209 {
        fill: #373232;
      }

      .cls-210 {
        fill: #443f3f;
      }

      .cls-211 {
        fill: #44403f;
      }

      .cls-212 {
        fill: #454140;
      }

      .cls-213 {
        fill: #454040;
      }

      .cls-214 {
        fill: #191d33;
      }

      .cls-215 {
        fill: #3e3a39;
      }

      .cls-216 {
        fill: #3e3939;
      }

      .cls-217 {
        fill: #3f3b3a;
      }

      .cls-218 {
        fill: #3f3a3a;
      }

      .cls-219 {
        fill: #0d1928;
      }

      .cls-220 {
        fill: #948f8f;
      }

      .cls-221 {
        fill: #a39e9e;
      }

      .cls-222 {
        fill: #807b7b;
      }

      .cls-223 {
        fill: #6e6868;
      }

      .cls-224 {
        fill: #6f6969;
      }

      .cls-225 {
        fill: #a29d9d;
      }

      .cls-226 {
        fill: #959090;
      }

      .cls-227 {
        fill: #726c6c;
      }

      .cls-228 {
        fill: #6f6a69;
      }

      .cls-229 {
        fill: #969292;
      }

      .cls-230 {
        fill: #969291;
      }

      .cls-231 {
        fill: #544f4e;
      }

      .cls-232 {
        fill: #464141;
      }

      .cls-233 {
        fill: #544f4f;
      }

      .cls-234 {
        fill: #464241;
      }

      .cls-235 {
        fill: #534d4d;
      }

      .cls-236 {
        fill: #534e4e;
      }

      .cls-237 {
        fill: #534e4d;
      }

      .cls-238 {
        fill: #9a9595;
      }

      .cls-239 {
        fill: #898483;
      }

      .cls-240 {
        fill: #898484;
      }

      .cls-241 {
        fill: #898383;
      }

      .cls-242 {
        fill: #6d6868;
      }

      .cls-243 {
        fill: #888383;
      }

      .cls-244 {
        fill: #868181;
      }

      .cls-245 {
        fill: #868180;
      }

      .cls-246 {
        fill: #868080;
      }

      .cls-247 {
        fill: #87d3e0;
      }

      .cls-248 {
        fill: #878181;
      }

      .cls-249 {
        fill: #878282;
      }

      .cls-250 {
        fill: #9b9696;
      }

      .cls-251 {
        fill: #706b6b;
      }

      .cls-252 {
        fill: #706b6a;
      }

      .cls-253 {
        fill: #6d6767;
      }

      .cls-254 {
        fill: #807a7a;
      }

      .cls-255 {
        fill: #555050;
      }

      .cls-256 {
        fill: #55504f;
      }

      .cls-257 {
        fill: #635d5d;
      }

      .cls-258 {
        fill: #635e5e;
      }

      .cls-259 {
        fill: #5c5757;
      }

      .cls-260 {
        fill: #5c5756;
      }

      .cls-261 {
        fill: #5b5555;
      }

      .cls-262 {
        fill: #5b5655;
      }

      .cls-263 {
        fill: #292626;
      }

      .cls-264 {
        fill: #595353;
      }

      .cls-265 {
        fill: #595453;
      }

      .cls-266 {
        fill: #2b2828;
      }

      .cls-267 {
        fill: #2b2727;
      }

      .cls-268 {
        fill: #2c2929;
      }

      .cls-269 {
        fill: #2c2828;
      }

      .cls-270 {
        fill: #565150;
      }

      .cls-271 {
        fill: #645f5e;
      }

      .cls-272 {
        fill: #645e5e;
      }

      .cls-273 {
        fill: #4a4645;
      }

      .cls-274 {
        fill: #4a4545;
      }

      .cls-275 {
        fill: #4a4544;
      }

      .cls-276 {
        fill: #2a2626;
      }

      .cls-277 {
        fill: #2a2727;
      }

      .cls-278 {
        fill: #484343;
      }

      .cls-279 {
        fill: #484342;
      }

      .cls-280 {
        fill: #484443;
      }

      .cls-281 {
        fill: #474342;
      }

      .cls-282 {
        fill: #474241;
      }

      .cls-283 {
        fill: #474242;
      }

      .cls-284 {
        fill: #2d2929;
      }

      .cls-285 {
        fill: #2d2a2a;
      }

      .cls-286 {
        fill: #302c2c;
      }

      .cls-287 {
        fill: #383333;
      }

      .cls-288 {
        fill: #383434;
      }

      .cls-289 {
        fill: #383433;
      }

      .cls-290 {
        fill: #262323;
      }

      .cls-291 {
        fill: #312d2d;
      }

      .cls-292 {
        fill: #3a3636;
      }

      .cls-293 {
        fill: #3a3635;
      }

      .cls-294 {
        fill: #3a3535;
      }

      .cls-295 {
        fill: #353131;
      }

      .cls-296 {
        fill: #3b3736;
      }

      .cls-297 {
        fill: #3b3737;
      }

      .cls-298 {
        fill: #3b3636;
      }

      .cls-299 {
        fill: #343030;
      }

      .cls-300 {
        fill: #3d3938;
      }

      .cls-301 {
        fill: #2e2a2a;
      }

      .cls-302 {
        fill: #2e2b2a;
      }

      .cls-303 {
        fill: #2e2b2b;
      }

      .cls-304 {
        fill: #3d3838;
      }

      .cls-305 {
        fill: #272424;
      }

      .cls-306 {
        fill: #5a5454;
      }

      .cls-307 {
        fill: #5a5554;
      }

      .cls-308 {
        fill: #393535;
      }

      .cls-309 {
        fill: #393534;
      }

      .cls-310 {
        fill: #393434;
      }

      .cls-311 {
        fill: #585252;
      }

      .cls-312 {
        fill: #575252;
      }

      .cls-313 {
        fill: #575151;
      }

      .cls-314 {
        fill: #3c3737;
      }

      .cls-315 {
        fill: #3c3837;
      }

      .cls-316 {
        fill: #2f2b2b;
      }

      .cls-317 {
        fill: #2f2c2c;
      }

      .cls-318 {
        fill: #4c4746;
      }

      .cls-319 {
        fill: #4c4747;
      }

      .cls-320 {
        fill: #5f5959;
      }

      .cls-321 {
        fill: #5f5a5a;
      }

      .cls-322 {
        fill: #625c5c;
      }

      .cls-323 {
        fill: #494444;
      }

      .cls-324 {
        fill: #494443;
      }

      .cls-325 {
        fill: #494544;
      }

      .cls-326 {
        fill: #605b5a;
      }

      .cls-327 {
        fill: #605a5a;
      }

      .cls-328 {
        fill: #757070;
      }

      .cls-329 {
        fill: #756f6f;
      }

      .cls-330 {
        fill: #767070;
      }

      .cls-331 {
        fill: #777171;
      }

      .cls-332 {
        fill: #777272;
      }

      .cls-333 {
        fill: #625d5d;
      }

      .cls-334 {
        fill: #625d5c;
      }

      .cls-335 {
        fill: #5d5857;
      }

      .cls-336 {
        fill: #797474;
      }

      .cls-337 {
        fill: #797373;
      }

      .cls-338 {
        fill: #7a7574;
      }

      .cls-339 {
        fill: #7a7575;
      }

      .cls-340 {
        fill: #4b4646;
      }

      .cls-341 {
        fill: #4b4645;
      }

      .cls-342 {
        fill: #5e5958;
      }

      .cls-343 {
        fill: #5e5858;
      }

      .cls-344 {
        fill: #615b5b;
      }

      .cls-345 {
        fill: #615c5b;
      }

      .cls-346 {
        fill: #716c6c;
      }

      .cls-347 {
        fill: #524c4c;
      }

      .cls-348 {
        fill: #524d4d;
      }

      .cls-349 {
        fill: #524d4c;
      }

      .cls-350 {
        fill: #787272;
      }

      .cls-351 {
        fill: #787372;
      }

      .cls-352 {
        fill: #837d7d;
      }

      .cls-353 {
        fill: #504b4a;
      }

      .cls-354 {
        fill: #504b4b;
      }

      .cls-355 {
        fill: #4f4a49;
      }

      .cls-356 {
        fill: #4f4a4a;
      }

      .cls-357 {
        fill: #827c7c;
      }

      .cls-358 {
        fill: #7c7776;
      }

      .cls-359 {
        fill: #7c7676;
      }

      .cls-360 {
        fill: #837e7e;
      }

      .cls-361 {
        fill: #312e2e;
      }

      .cls-362 {
        fill: #282525;
      }

      .cls-363 {
        fill: #514c4c;
      }

      .cls-364 {
        fill: #514c4b;
      }

      .cls-365 {
        fill: #4d4847;
      }

      .cls-366 {
        fill: #4d4848;
      }

      .cls-367 {
        fill: #4d4948;
      }

      .cls-368 {
        fill: #7b7575;
      }

      .cls-369 {
        fill: #4e4949;
      }

      .cls-370 {
        fill: #4e4948;
      }

      .cls-371 {
        fill: #6d7e9e;
        stroke: #a6ddea;
        stroke-width: 2px;
      }

      .cls-371, .cls-372, .cls-373 {
        stroke-miterlimit: 10;
      }

      .cls-374 {
        fill: url(#radial-gradient-10);
      }

      .cls-375 {
        fill: url(#radial-gradient-11);
      }

      .cls-376 {
        fill: url(#radial-gradient-12);
      }

      .cls-377 {
        fill: url(#radial-gradient-13);
      }

      .cls-378 {
        fill: url(#radial-gradient-6);
      }

      .cls-379 {
        fill: url(#radial-gradient-5);
      }

      .cls-380 {
        fill: url(#radial-gradient-3);
      }

      .cls-381 {
        fill: url(#radial-gradient-4);
      }

      .cls-382 {
        fill: url(#radial-gradient-9);
      }

      .cls-383 {
        fill: url(#radial-gradient-8);
      }

      .cls-384 {
        fill: url(#radial-gradient-7);
      }

      .cls-385 {
        fill: url(#radial-gradient-2);
      }

      .cls-372 {
        fill: url(#radial-gradient-14);
        stroke: #fff;
      }

      .cls-373 {
        fill: #fffffd;
        stroke: #000;
      }

      .cls-386 {
        fill: url(#radial-gradient);
      }

      .cls-387 {
        filter: url(#outer-glow-2);
      }
    </style>
    <radialGradient id="radial-gradient" cx="276.17" cy="276.67" fx="276.17" fy="276.67" r="59.32" gradientTransform="translate(8.51 3.64) scale(.98 .99)" gradientUnits="userSpaceOnUse">
      <stop offset="0" stop-color="#4d698d"/>
      <stop offset="1" stop-color="#a6ddea"/>
      <stop offset="1" stop-color="#010101"/>
    </radialGradient>
    <radialGradient id="radial-gradient-2" cx="276.17" cy="276.67" fx="276.17" fy="276.67" r="71.56" xlink:href="#radial-gradient"/>
    <radialGradient id="radial-gradient-3" cx="276.17" fx="276.17" r="65.44" xlink:href="#radial-gradient"/>
    <radialGradient id="radial-gradient-4" cx="276.17" cy="276.67" fx="276.17" fy="276.67" r="77.68" xlink:href="#radial-gradient"/>
    <radialGradient id="radial-gradient-5" cx="276.17" cy="276.67" fx="276.17" fy="276.67" r="83.81" xlink:href="#radial-gradient"/>
    <radialGradient id="radial-gradient-6" cy="276.67" fy="276.67" r="89.93" xlink:href="#radial-gradient"/>
    <radialGradient id="radial-gradient-7" cx="276.17" cy="276.67" fx="276.17" fy="276.67" r="96.05" xlink:href="#radial-gradient"/>
    <radialGradient id="radial-gradient-8" cx="276.17" cy="276.67" fx="276.17" fy="276.67" r="102.18" xlink:href="#radial-gradient"/>
    <radialGradient id="radial-gradient-9" cy="276.67" fy="276.67" r="108.3" xlink:href="#radial-gradient"/>
    <radialGradient id="radial-gradient-10" cx="276.17" cy="276.67" fx="276.17" fy="276.67" r="114.42" xlink:href="#radial-gradient"/>
    <radialGradient id="radial-gradient-11" cx="276.17" fx="276.17" r="120.54" xlink:href="#radial-gradient"/>
    <radialGradient id="radial-gradient-12" cx="276.17" cy="276.67" fx="276.17" fy="276.67" r="126.67" xlink:href="#radial-gradient"/>
    <radialGradient id="radial-gradient-13" cx="276.17" fx="276.17" r="132.79" xlink:href="#radial-gradient"/>
    <radialGradient id="radial-gradient-14" cx="276.17" fx="276.17" r="138.91" xlink:href="#radial-gradient"/>
    <filter id="outer-glow-1" filterUnits="userSpaceOnUse">
      <feOffset dx="0" dy="0"/>
      <feGaussianBlur result="blur" stdDeviation="3"/>
      <feFlood flood-color="#f3f4f2" flood-opacity=".7"/>
      <feComposite in2="blur" operator="in"/>
      <feComposite in="SourceGraphic"/>
    </filter>
    <filter id="outer-glow-2" filterUnits="userSpaceOnUse">
      <feOffset dx="0" dy="0"/>
      <feGaussianBlur result="blur-2" stdDeviation="5"/>
      <feFlood flood-color="#010101" flood-opacity=".75"/>
      <feComposite in2="blur-2" operator="in"/>
      <feComposite in="SourceGraphic"/>
    </filter>
  </defs>
  <g>
    <path class="cls-386" d="M278.79,336.18c-32.01,0-58.05-26.34-58.05-58.71s26.04-58.71,58.05-58.71,58.05,26.34,58.05,58.71-26.04,58.71-58.05,58.71Zm0-115.14c-30.77,0-55.8,25.32-55.8,56.44s25.03,56.44,55.8,56.44,55.8-25.32,55.8-56.44-25.03-56.44-55.8-56.44Z"/>
    <path class="cls-385" d="M278.79,348.3c-38.62,0-70.03-31.77-70.03-70.83s31.42-70.83,70.03-70.83,70.03,31.77,70.03,70.83-31.42,70.83-70.03,70.83Zm0-139.39c-37.38,0-67.79,30.75-67.79,68.56s30.41,68.56,67.79,68.56,67.79-30.75,67.79-68.56-30.41-68.56-67.79-68.56Z"/>
    <path class="cls-380" d="M278.79,342.24c-35.31,0-64.04-29.06-64.04-64.77s28.73-64.77,64.04-64.77,64.04,29.05,64.04,64.77-28.73,64.77-64.04,64.77Zm0-127.26c-34.07,0-61.8,28.04-61.8,62.5s27.72,62.5,61.8,62.5,61.8-28.04,61.8-62.5-27.72-62.5-61.8-62.5Z"/>
    <path class="cls-381" d="M278.79,354.36c-41.92,0-76.03-34.49-76.03-76.89s34.11-76.89,76.03-76.89,76.03,34.49,76.03,76.89-34.11,76.89-76.03,76.89Zm0-151.51c-40.68,0-73.78,33.47-73.78,74.62s33.1,74.62,73.78,74.62,73.78-33.47,73.78-74.62-33.1-74.62-73.78-74.62Z"/>
    <path class="cls-379" d="M278.79,360.42c-45.23,0-82.02-37.21-82.02-82.95s36.79-82.95,82.02-82.95,82.02,37.21,82.02,82.95-36.79,82.95-82.02,82.95Zm0-163.63c-43.99,0-79.77,36.19-79.77,80.68s35.79,80.68,79.77,80.68,79.77-36.19,79.77-80.68-35.79-80.68-79.77-80.68Z"/>
    <path class="cls-378" d="M278.79,366.48c-48.53,0-88.01-39.93-88.01-89.01s39.48-89.01,88.01-89.01,88.01,39.93,88.01,89.01-39.48,89.01-88.01,89.01Zm0-175.75c-47.29,0-85.76,38.91-85.76,86.74s38.47,86.74,85.76,86.74,85.76-38.91,85.76-86.74-38.47-86.74-85.76-86.74Z"/>
    <path class="cls-384" d="M278.79,372.54c-51.83,0-94-42.65-94-95.07s42.17-95.07,94-95.07,94,42.65,94,95.07-42.17,95.07-94,95.07Zm0-187.87c-50.59,0-91.76,41.63-91.76,92.8s41.16,92.8,91.76,92.8,91.76-41.63,91.76-92.8-41.16-92.8-91.76-92.8Z"/>
    <path class="cls-383" d="M278.79,378.6c-55.14,0-100-45.37-100-101.13s44.86-101.13,100-101.13,100,45.37,100,101.13-44.86,101.13-100,101.13Zm0-199.99c-53.9,0-97.75,44.35-97.75,98.86s43.85,98.86,97.75,98.86,97.75-44.35,97.75-98.86-43.85-98.86-97.75-98.86Z"/>
    <path class="cls-382" d="M278.79,384.66c-58.44,0-105.99-48.09-105.99-107.19s47.55-107.19,105.99-107.19,105.99,48.09,105.99,107.19-47.55,107.19-105.99,107.19Zm0-212.11c-57.2,0-103.74,47.07-103.74,104.92s46.54,104.92,103.74,104.92,103.74-47.07,103.74-104.92-46.54-104.92-103.74-104.92Z"/>
    <path class="cls-374" d="M278.79,390.72c-61.75,0-111.98-50.8-111.98-113.25s50.23-113.25,111.98-113.25,111.98,50.8,111.98,113.25-50.23,113.25-111.98,113.25Zm0-224.23c-60.51,0-109.73,49.78-109.73,110.98s49.23,110.98,109.73,110.98,109.73-49.78,109.73-110.98-49.23-110.98-109.73-110.98Z"/>
    <path class="cls-375" d="M278.79,396.78c-65.05,0-117.97-53.52-117.97-119.31s52.92-119.31,117.97-119.31,117.97,53.52,117.97,119.31-52.92,119.31-117.97,119.31Zm0-236.35c-63.81,0-115.73,52.5-115.73,117.04s51.91,117.04,115.73,117.04,115.73-52.5,115.73-117.04-51.91-117.04-115.73-117.04Z"/>
    <path class="cls-376" d="M278.79,402.84c-68.35,0-123.96-56.24-123.96-125.37s55.61-125.37,123.96-125.37,123.96,56.24,123.96,125.37-55.61,125.37-123.96,125.37Zm0-248.47c-67.12,0-121.72,55.22-121.72,123.1s54.6,123.1,121.72,123.1,121.72-55.22,121.72-123.1-54.6-123.1-121.72-123.1Z"/>
    <path class="cls-377" d="M278.79,408.9c-71.66,0-129.96-58.96-129.96-131.43s58.3-131.43,129.96-131.43,129.96,58.96,129.96,131.43-58.3,131.43-129.96,131.43Zm0-260.59c-70.42,0-127.71,57.94-127.71,129.16s57.29,129.16,127.71,129.16,127.71-57.94,127.71-129.16-57.29-129.16-127.71-129.16Z"/>
    <path class="cls-372" d="M278.79,414.96c-74.96,0-135.95-61.68-135.95-137.49s60.99-137.49,135.95-137.49,135.95,61.68,135.95,137.49-60.99,137.49-135.95,137.49Zm0-272.71c-73.72,0-133.7,60.66-133.7,135.22s59.98,135.22,133.7,135.22,133.7-60.66,133.7-135.22-59.98-135.22-133.7-135.22Z"/>
  </g>
  <path class="cls-114" d="M278.79,122.9c-83.78,0-151.69,69.2-151.69,154.57s67.91,154.57,151.69,154.57,151.69-69.2,151.69-154.57-67.91-154.57-151.69-154.57Zm0,293.12c-74.99,0-135.99-62.15-135.99-138.54s61.01-138.54,135.99-138.54,135.99,62.15,135.99,138.54-61.01,138.54-135.99,138.54Z"/>
  <g>
    <path class="cls-114" d="M333.12,355.76h-108.67l-2.61-2.61V201.78c1.02-1.02,1.59-1.59,2.61-2.61h108.67c1.02,1.02,1.59,1.59,2.61,2.61v151.37c-1.02,1.02-1.59,1.59-2.61,2.61Z"/>
    <path class="cls-34" d="M329.56,353.96h-101.55c-1.02-1.02-1.59-1.59-2.61-2.61V205.43l2.61-2.61h101.55c1.02,1.02,1.59,1.59,2.61,2.61v145.93c-1.02,1.02-1.59,1.59-2.61,2.61Z"/>
    <path class="cls-373" d="M316.82,206.27h-76.07c0,7.13-5.78,12.91-12.91,12.91v118.42c7.13,0,12.91,5.78,12.91,12.91h76.07c0-7.13,5.78-12.91,12.91-12.91v-118.42c-7.13,0-12.91-5.78-12.91-12.91Zm10.1,127.35c-7.13,0-12.91,5.78-12.91,12.91h-70.45c0-7.13-5.78-12.91-12.91-12.91v-110.47c7.13,0,12.91-5.78,12.91-12.91h70.45c0,7.13,5.78,12.91,12.91,12.91v110.47Z"/>
    <path class="cls-371" d="M245.24,229.9s50.32,0,67.1,0"/>
    <path class="cls-371" d="M245.24,222.36s50.32,0,67.1,0"/>
    <path class="cls-371" d="M245.24,237.45s50.32,0,67.1,0"/>
    <path class="cls-371" d="M245.24,244.99s50.32,0,67.1,0"/>
    <path class="cls-371" d="M245.24,252.54s50.32,0,67.1,0"/>
  </g>
  <g id="Shield">
    <path class="cls-1" d="M313.51,285.87l-7.59-25.73c-.15-.51-.58-.85-1.06-.85h0c-4.2-1.52-7.38-2.69-13.45-6.46-3.8-2.36-7.58-5.56-12.62-5.56s-8.73,3.41-12.62,5.56c-4.7,2.6-3.64,1.43-13.45,6.46h0c-.48,0-.91,.34-1.06,.85l-7.59,25.73c-5.23,17.72,.5,37.13,14.19,48.08l20.53,16.43,20.53-16.43c13.69-10.95,19.41-30.36,14.19-48.08Z"/>
    <path class="cls-2" d="M307.36,288.17l-6.25-21.18c-.12-.42-.48-.7-.87-.7h0c-3.46-1.25-6.07-2.21-11.07-5.31-3.13-1.94-6.24-4.58-10.39-4.58s-7.18,2.81-10.39,4.58c-3.87,2.14-2.99,1.18-11.07,5.31h0c-.4,0-.75,.28-.87,.7l-6.25,21.18c-4.3,14.58,.41,30.56,11.68,39.58l16.9,13.52,16.9-13.52c11.27-9.01,15.98-24.99,11.68-39.58Z"/>
    <path class="cls-26" d="M310.67,286.93l-6.97-23.63c-.14-.46-.53-.78-.97-.78h0c-3.86-1.4-6.77-2.47-12.35-5.93-3.49-2.16-6.96-5.11-11.59-5.11s-8.01,3.13-11.59,5.11c-4.31,2.39-3.34,1.32-12.35,5.93h0c-.44,0-.84,.31-.97,.78l-6.97,23.63c-4.8,16.27,.46,34.1,13.03,44.16l18.86,15.09,18.86-15.09c12.57-10.06,17.83-27.89,13.03-44.16Z"/>
    <path class="cls-148" d="M305.36,288.91l-5.81-19.7c-.11-.39-.44-.65-.81-.65h0c-3.21-1.17-5.65-2.06-10.29-4.94-2.91-1.8-5.8-4.26-9.66-4.26s-6.68,2.61-9.66,4.26c-3.6,1.99-2.78,1.1-10.29,4.94h0c-.37,0-.7,.26-.81,.65l-5.81,19.7c-4,13.56,.38,28.42,10.86,36.81l15.72,12.58,15.72-12.58c10.48-8.38,14.86-23.24,10.86-36.81Z"/>
    <g>
      <polygon class="cls-195" points="256.35 317.21 273.7 303.55 270.23 298.54 256.35 317.21"/>
      <polygon class="cls-196" points="256.39 317.17 273.69 303.55 270.23 298.55 256.39 317.17"/>
      <polygon class="cls-194" points="256.43 317.13 273.68 303.55 270.23 298.56 256.43 317.13"/>
      <polygon class="cls-193" points="256.47 317.09 273.67 303.55 270.23 298.57 256.47 317.09"/>
      <polygon class="cls-290" points="256.5 317.05 273.66 303.54 270.23 298.58 256.5 317.05"/>
      <polygon class="cls-305" points="256.54 317.01 273.65 303.54 270.23 298.6 256.54 317.01"/>
      <polygon class="cls-362" points="256.58 316.97 273.64 303.54 270.24 298.61 256.58 316.97"/>
      <polygon class="cls-263" points="256.62 316.93 273.63 303.54 270.24 298.62 256.62 316.93"/>
      <polygon class="cls-277" points="256.66 316.89 273.62 303.53 270.24 298.63 256.66 316.89"/>
      <polygon class="cls-266" points="256.7 316.85 273.62 303.53 270.24 298.64 256.7 316.85"/>
      <polygon class="cls-268" points="256.74 316.81 273.61 303.53 270.24 298.65 256.74 316.81"/>
      <polygon class="cls-285" points="256.78 316.77 273.6 303.53 270.24 298.67 256.78 316.77"/>
      <polygon class="cls-303" points="256.81 316.73 273.59 303.52 270.24 298.68 256.81 316.73"/>
      <polygon class="cls-317" points="256.85 316.69 273.58 303.52 270.24 298.69 256.85 316.69"/>
      <polygon class="cls-108" points="256.89 316.65 273.57 303.52 270.24 298.7 256.89 316.65"/>
      <polygon class="cls-361" points="256.93 316.61 273.56 303.52 270.24 298.71 256.93 316.61"/>
      <polygon class="cls-104" points="256.97 316.57 273.55 303.52 270.24 298.72 256.97 316.57"/>
      <polygon class="cls-109" points="257.01 316.53 273.54 303.51 270.24 298.74 257.01 316.53"/>
      <polygon class="cls-299" points="257.05 316.49 273.53 303.51 270.24 298.75 257.05 316.49"/>
      <polygon class="cls-295" points="257.08 316.45 273.52 303.51 270.24 298.76 257.08 316.45"/>
      <polygon class="cls-209" points="257.12 316.41 273.51 303.51 270.24 298.77 257.12 316.41"/>
      <polygon class="cls-287" points="257.16 316.37 273.51 303.5 270.24 298.78 257.16 316.37"/>
      <polygon class="cls-310" points="257.2 316.33 273.5 303.5 270.24 298.79 257.2 316.33"/>
      <polygon class="cls-294" points="257.24 316.29 273.49 303.5 270.24 298.8 257.24 316.29"/>
      <polygon class="cls-298" points="257.28 316.25 273.48 303.5 270.24 298.82 257.28 316.25"/>
      <polygon class="cls-314" points="257.32 316.21 273.47 303.5 270.24 298.83 257.32 316.21"/>
      <polygon class="cls-304" points="257.36 316.17 273.46 303.49 270.24 298.84 257.36 316.17"/>
      <polygon class="cls-216" points="257.39 316.13 273.45 303.49 270.24 298.85 257.39 316.13"/>
      <polygon class="cls-218" points="257.43 316.09 273.44 303.49 270.24 298.86 257.43 316.09"/>
      <polygon class="cls-201" points="257.47 316.05 273.43 303.49 270.24 298.87 257.47 316.05"/>
      <polygon class="cls-203" points="257.51 316.01 273.42 303.48 270.24 298.89 257.51 316.01"/>
      <polygon class="cls-198" points="257.55 315.97 273.41 303.48 270.24 298.9 257.55 315.97"/>
      <polygon class="cls-200" points="257.59 315.93 273.4 303.48 270.24 298.91 257.59 315.93"/>
      <polygon class="cls-210" points="257.63 315.89 273.4 303.48 270.25 298.92 257.63 315.89"/>
      <polygon class="cls-213" points="257.66 315.85 273.39 303.48 270.25 298.93 257.66 315.85"/>
      <polygon class="cls-232" points="257.7 315.81 273.38 303.47 270.25 298.94 257.7 315.81"/>
      <polygon class="cls-283" points="257.74 315.77 273.37 303.47 270.25 298.96 257.74 315.77"/>
      <polygon class="cls-278" points="257.78 315.73 273.36 303.47 270.25 298.97 257.78 315.73"/>
      <polygon class="cls-323" points="257.82 315.69 273.35 303.47 270.25 298.98 257.82 315.69"/>
      <polygon class="cls-274" points="257.86 315.65 273.34 303.46 270.25 298.99 257.86 315.65"/>
      <polygon class="cls-340" points="257.9 315.61 273.33 303.46 270.25 299 257.9 315.61"/>
      <polygon class="cls-319" points="257.94 315.57 273.32 303.46 270.25 299.01 257.94 315.57"/>
      <polygon class="cls-367" points="257.97 315.53 273.31 303.46 270.25 299.02 257.97 315.53"/>
      <polygon class="cls-355" points="258.01 315.49 273.3 303.45 270.25 299.04 258.01 315.49"/>
      <polygon class="cls-353" points="258.05 315.45 273.29 303.45 270.25 299.05 258.05 315.45"/>
      <polygon class="cls-364" points="258.09 315.41 273.28 303.45 270.25 299.06 258.09 315.41"/>
      <polygon class="cls-349" points="258.13 315.37 273.28 303.45 270.25 299.07 258.13 315.37"/>
      <polygon class="cls-237" points="258.17 315.33 273.27 303.45 270.25 299.08 258.17 315.33"/>
      <polygon class="cls-233" points="258.21 315.29 273.26 303.44 270.25 299.09 258.21 315.29"/>
      <polygon class="cls-255" points="258.25 315.25 273.25 303.44 270.25 299.11 258.25 315.25"/>
      <polygon class="cls-313" points="258.28 315.21 273.24 303.44 270.25 299.12 258.28 315.21"/>
      <polygon class="cls-311" points="258.32 315.17 273.23 303.44 270.25 299.13 258.32 315.17"/>
      <polygon class="cls-265" points="258.36 315.13 273.22 303.43 270.25 299.14 258.36 315.13"/>
      <polygon class="cls-307" points="258.4 315.09 273.21 303.43 270.25 299.15 258.4 315.09"/>
      <polygon class="cls-262" points="258.44 315.05 273.2 303.43 270.25 299.16 258.44 315.05"/>
      <polygon class="cls-259" points="258.48 315.01 273.19 303.43 270.25 299.17 258.48 315.01"/>
      <polygon class="cls-343" points="258.52 314.97 273.18 303.43 270.25 299.19 258.52 314.97"/>
      <polygon class="cls-320" points="258.55 314.93 273.17 303.42 270.25 299.2 258.55 314.93"/>
      <polygon class="cls-326" points="258.59 314.89 273.17 303.42 270.25 299.21 258.59 314.89"/>
      <polygon class="cls-345" points="258.63 314.85 273.16 303.42 270.26 299.22 258.63 314.85"/>
      <polygon class="cls-333" points="258.67 314.81 273.15 303.42 270.26 299.23 258.67 314.81"/>
      <polygon class="cls-272" points="258.71 314.77 273.14 303.41 270.26 299.24 258.71 314.77"/>
      <polygon class="cls-51" points="258.75 314.73 273.13 303.41 270.26 299.26 258.75 314.73"/>
      <polygon class="cls-13" points="258.79 314.69 273.12 303.41 270.26 299.27 258.79 314.69"/>
      <polygon class="cls-11" points="258.83 314.65 273.11 303.41 270.26 299.28 258.83 314.65"/>
      <polygon class="cls-9" points="258.86 314.61 273.1 303.4 270.26 299.29 258.86 314.61"/>
      <polygon class="cls-16" points="258.9 314.57 273.09 303.4 270.26 299.3 258.9 314.57"/>
      <polygon class="cls-43" points="258.94 314.53 273.08 303.4 270.26 299.31 258.94 314.53"/>
      <polygon class="cls-253" points="258.98 314.49 273.07 303.4 270.26 299.33 258.98 314.49"/>
      <polygon class="cls-223" points="259.02 314.45 273.06 303.4 270.26 299.34 259.02 314.45"/>
      <polygon class="cls-228" points="259.06 314.41 273.06 303.39 270.26 299.35 259.06 314.41"/>
      <polygon class="cls-251" points="259.1 314.37 273.05 303.39 270.26 299.36 259.1 314.37"/>
      <polygon class="cls-227" points="259.13 314.33 273.04 303.39 270.26 299.37 259.13 314.33"/>
      <polygon class="cls-49" points="259.17 314.29 273.03 303.39 270.26 299.38 259.17 314.29"/>
      <polygon class="cls-329" points="259.21 314.26 273.02 303.38 270.26 299.39 259.21 314.26"/>
      <polygon class="cls-330" points="259.25 314.22 273.01 303.38 270.26 299.41 259.25 314.22"/>
      <polygon class="cls-332" points="259.29 314.18 273 303.38 270.26 299.42 259.29 314.18"/>
      <polygon class="cls-337" points="259.33 314.14 272.99 303.38 270.26 299.43 259.33 314.14"/>
      <polygon class="cls-338" points="259.37 314.1 272.98 303.38 270.26 299.44 259.37 314.1"/>
      <polygon class="cls-359" points="259.41 314.06 272.97 303.37 270.26 299.45 259.41 314.06"/>
      <polygon class="cls-61" points="259.44 314.02 272.96 303.37 270.26 299.46 259.44 314.02"/>
      <polygon class="cls-55" points="259.48 313.98 272.95 303.37 270.26 299.48 259.48 313.98"/>
      <polygon class="cls-254" points="259.52 313.94 272.95 303.37 270.26 299.49 259.52 313.94"/>
      <polygon class="cls-48" points="259.56 313.9 272.94 303.36 270.26 299.5 259.56 313.9"/>
      <polygon class="cls-352" points="259.6 313.86 272.93 303.36 270.26 299.51 259.6 313.86"/>
      <polygon class="cls-73" points="259.64 313.82 272.92 303.36 270.26 299.52 259.64 313.82"/>
      <polygon class="cls-246" points="259.68 313.78 272.91 303.36 270.27 299.53 259.68 313.78"/>
      <polygon class="cls-249" points="259.71 313.74 272.9 303.35 270.27 299.54 259.71 313.74"/>
      <polygon class="cls-241" points="259.75 313.7 272.89 303.35 270.27 299.56 259.75 313.7"/>
      <polygon class="cls-81" points="259.79 313.66 272.88 303.35 270.27 299.57 259.79 313.66"/>
      <polygon class="cls-112" points="259.83 313.62 272.87 303.35 270.27 299.58 259.83 313.62"/>
      <polygon class="cls-111" points="259.87 313.58 272.86 303.35 270.27 299.59 259.87 313.58"/>
      <polygon class="cls-95" points="259.91 313.54 272.85 303.34 270.27 299.6 259.91 313.54"/>
      <polygon class="cls-97" points="259.95 313.5 272.84 303.34 270.27 299.61 259.95 313.5"/>
      <polygon class="cls-65" points="259.99 313.46 272.83 303.34 270.27 299.63 259.99 313.46"/>
      <polygon class="cls-74" points="260.02 313.42 272.83 303.34 270.27 299.64 260.02 313.42"/>
      <polygon class="cls-226" points="260.06 313.38 272.82 303.33 270.27 299.65 260.06 313.38"/>
      <polygon class="cls-230" points="260.1 313.34 272.81 303.33 270.27 299.66 260.1 313.34"/>
      <polygon class="cls-56" points="260.14 313.3 272.8 303.33 270.27 299.67 260.14 313.3"/>
      <polygon class="cls-53" points="260.18 313.26 272.79 303.33 270.27 299.68 260.18 313.26"/>
      <polygon class="cls-250" points="260.22 313.22 272.78 303.33 270.27 299.7 260.22 313.22"/>
      <polygon class="cls-86" points="260.26 313.18 272.77 303.32 270.27 299.71 260.26 313.18"/>
      <polygon class="cls-89" points="260.3 313.14 272.76 303.32 270.27 299.72 260.3 313.14"/>
      <polygon class="cls-70" points="260.33 313.1 272.75 303.32 270.27 299.73 260.33 313.1"/>
      <polygon class="cls-90" points="260.37 313.06 272.74 303.32 270.27 299.74 260.37 313.06"/>
      <polygon class="cls-221" points="260.41 313.02 272.73 303.31 270.27 299.75 260.41 313.02"/>
      <polygon class="cls-120" points="260.45 312.98 272.72 303.31 270.27 299.76 260.45 312.98"/>
      <polygon class="cls-142" points="260.49 312.94 272.72 303.31 270.27 299.78 260.49 312.94"/>
      <polygon class="cls-192" points="260.53 312.9 272.71 303.31 270.27 299.79 260.53 312.9"/>
      <polygon class="cls-124" points="260.57 312.86 272.7 303.31 270.27 299.8 260.57 312.86"/>
      <polygon class="cls-147" points="260.6 312.82 272.69 303.3 270.27 299.81 260.6 312.82"/>
      <polygon class="cls-179" points="260.64 312.78 272.68 303.3 270.27 299.82 260.64 312.78"/>
      <polygon class="cls-131" points="260.68 312.74 272.67 303.3 270.28 299.83 260.68 312.74"/>
      <polygon class="cls-188" points="260.72 312.7 272.66 303.3 270.28 299.85 260.72 312.7"/>
      <polygon class="cls-126" points="260.76 312.66 272.65 303.29 270.28 299.86 260.76 312.66"/>
      <polygon class="cls-94" points="260.8 312.62 272.64 303.29 270.28 299.87 260.8 312.62"/>
      <polygon class="cls-83" points="260.84 312.58 272.63 303.29 270.28 299.88 260.84 312.58"/>
      <polygon class="cls-84" points="260.88 312.54 272.62 303.29 270.28 299.89 260.88 312.54"/>
      <polygon class="cls-91" points="260.91 312.5 272.61 303.28 270.28 299.9 260.91 312.5"/>
      <polygon class="cls-105" points="260.95 312.46 272.61 303.28 270.28 299.91 260.95 312.46"/>
      <polygon class="cls-139" points="260.99 312.42 272.6 303.28 270.28 299.93 260.99 312.42"/>
      <polygon class="cls-149" points="261.03 312.38 272.59 303.28 270.28 299.94 261.03 312.38"/>
      <polygon class="cls-144" points="261.07 312.34 272.58 303.28 270.28 299.95 261.07 312.34"/>
      <polygon class="cls-77" points="261.11 312.3 272.57 303.27 270.28 299.96 261.11 312.3"/>
      <polygon class="cls-166" points="261.15 312.26 272.56 303.27 270.28 299.97 261.15 312.26"/>
      <polygon class="cls-181" points="261.18 312.22 272.55 303.27 270.28 299.98 261.18 312.22"/>
      <polygon class="cls-187" points="261.22 312.18 272.54 303.27 270.28 300 261.22 312.18"/>
      <polygon class="cls-155" points="261.26 312.14 272.53 303.26 270.28 300.01 261.26 312.14"/>
      <polygon class="cls-151" points="261.3 312.1 272.52 303.26 270.28 300.02 261.3 312.1"/>
      <polygon class="cls-117" points="261.34 312.06 272.51 303.26 270.28 300.03 261.34 312.06"/>
      <polygon class="cls-116" points="261.38 312.02 272.5 303.26 270.28 300.04 261.38 312.02"/>
      <polygon class="cls-157" points="261.42 311.98 272.5 303.26 270.28 300.05 261.42 311.98"/>
      <polygon class="cls-161" points="261.46 311.94 272.49 303.25 270.28 300.07 261.46 311.94"/>
      <polygon class="cls-170" points="261.49 311.9 272.48 303.25 270.28 300.08 261.49 311.9"/>
      <polygon class="cls-169" points="261.53 311.86 272.47 303.25 270.28 300.09 261.53 311.86"/>
      <polygon class="cls-133" points="261.57 311.82 272.46 303.25 270.28 300.1 261.57 311.82"/>
      <polygon class="cls-175" points="261.61 311.78 272.45 303.24 270.28 300.11 261.61 311.78"/>
      <polygon class="cls-171" points="261.65 311.74 272.44 303.24 270.28 300.12 261.65 311.74"/>
      <polygon class="cls-159" points="261.69 311.7 272.43 303.24 270.28 300.13 261.69 311.7"/>
      <polygon class="cls-178" points="261.73 311.66 272.42 303.24 270.29 300.15 261.73 311.66"/>
      <polygon class="cls-33" points="261.76 311.62 272.41 303.23 270.29 300.16 261.76 311.62"/>
      <polygon class="cls-40" points="261.8 311.58 272.4 303.23 270.29 300.17 261.8 311.58"/>
      <polygon class="cls-28" points="261.84 311.54 272.39 303.23 270.29 300.18 261.84 311.54"/>
      <polygon class="cls-24" points="261.88 311.5 272.39 303.23 270.29 300.19 261.88 311.5"/>
      <polygon class="cls-19" points="261.92 311.46 272.38 303.23 270.29 300.2 261.92 311.46"/>
      <polygon class="cls-31" points="261.96 311.42 272.37 303.22 270.29 300.22 261.96 311.42"/>
      <polygon class="cls-21" points="262 311.38 272.36 303.22 270.29 300.23 262 311.38"/>
      <polygon class="cls-7" points="262.04 311.34 272.35 303.22 270.29 300.24 262.04 311.34"/>
      <polygon class="cls-25" points="262.07 311.3 272.34 303.22 270.29 300.25 262.07 311.3"/>
      <polygon class="cls-8" points="262.11 311.26 272.33 303.21 270.29 300.26 262.11 311.26"/>
      <polygon class="cls-41" points="262.15 311.22 272.32 303.21 270.29 300.27 262.15 311.22"/>
    </g>
    <g>
      <polygon class="cls-195" points="300.22 317.21 286.62 299.55 281.89 303.28 300.22 317.21"/>
      <polygon class="cls-196" points="300.18 317.17 286.62 299.56 281.9 303.28 300.18 317.17"/>
      <polygon class="cls-194" points="300.14 317.13 286.62 299.57 281.91 303.28 300.14 317.13"/>
      <polygon class="cls-193" points="300.1 317.09 286.62 299.58 281.92 303.28 300.1 317.09"/>
      <polygon class="cls-290" points="300.06 317.05 286.62 299.59 281.93 303.28 300.06 317.05"/>
      <polygon class="cls-305" points="300.02 317.01 286.61 299.6 281.95 303.28 300.02 317.01"/>
      <polygon class="cls-362" points="299.98 316.97 286.61 299.61 281.96 303.28 299.98 316.97"/>
      <polygon class="cls-263" points="299.94 316.93 286.61 299.62 281.97 303.28 299.94 316.93"/>
      <polygon class="cls-277" points="299.9 316.89 286.61 299.63 281.98 303.27 299.9 316.89"/>
      <polygon class="cls-266" points="299.86 316.85 286.61 299.64 281.99 303.27 299.86 316.85"/>
      <polygon class="cls-268" points="299.82 316.81 286.6 299.65 282 303.27 299.82 316.81"/>
      <polygon class="cls-301" points="299.78 316.77 286.6 299.66 282.01 303.27 299.78 316.77"/>
      <polygon class="cls-316" points="299.74 316.74 286.6 299.67 282.02 303.27 299.74 316.74"/>
      <polygon class="cls-286" points="299.7 316.7 286.6 299.68 282.04 303.27 299.7 316.7"/>
      <polygon class="cls-291" points="299.66 316.66 286.6 299.69 282.05 303.27 299.66 316.66"/>
      <polygon class="cls-103" points="299.62 316.62 286.59 299.7 282.06 303.27 299.62 316.62"/>
      <polygon class="cls-107" points="299.58 316.58 286.59 299.71 282.07 303.27 299.58 316.58"/>
      <polygon class="cls-299" points="299.54 316.54 286.59 299.72 282.08 303.27 299.54 316.54"/>
      <polygon class="cls-295" points="299.5 316.5 286.59 299.73 282.09 303.27 299.5 316.5"/>
      <polygon class="cls-206" points="299.46 316.46 286.59 299.74 282.1 303.27 299.46 316.46"/>
      <polygon class="cls-208" points="299.42 316.42 286.58 299.75 282.11 303.27 299.42 316.42"/>
      <polygon class="cls-289" points="299.38 316.38 286.58 299.76 282.13 303.27 299.38 316.38"/>
      <polygon class="cls-309" points="299.34 316.34 286.58 299.77 282.14 303.26 299.34 316.34"/>
      <polygon class="cls-293" points="299.3 316.3 286.58 299.78 282.15 303.26 299.3 316.3"/>
      <polygon class="cls-296" points="299.26 316.26 286.58 299.79 282.16 303.26 299.26 316.26"/>
      <polygon class="cls-315" points="299.22 316.22 286.57 299.79 282.17 303.26 299.22 316.22"/>
      <polygon class="cls-300" points="299.18 316.18 286.57 299.8 282.18 303.26 299.18 316.18"/>
      <polygon class="cls-215" points="299.14 316.14 286.57 299.81 282.19 303.26 299.14 316.14"/>
      <polygon class="cls-217" points="299.1 316.1 286.57 299.82 282.2 303.26 299.1 316.1"/>
      <polygon class="cls-202" points="299.06 316.06 286.57 299.83 282.22 303.26 299.06 316.06"/>
      <polygon class="cls-204" points="299.02 316.02 286.57 299.84 282.23 303.26 299.02 316.02"/>
      <polygon class="cls-197" points="298.98 315.98 286.56 299.85 282.24 303.26 298.98 315.98"/>
      <polygon class="cls-199" points="298.94 315.94 286.56 299.86 282.25 303.26 298.94 315.94"/>
      <polygon class="cls-211" points="298.9 315.9 286.56 299.87 282.26 303.26 298.9 315.9"/>
      <polygon class="cls-212" points="298.86 315.86 286.56 299.88 282.27 303.26 298.86 315.86"/>
      <polygon class="cls-282" points="298.82 315.82 286.56 299.89 282.28 303.26 298.82 315.82"/>
      <polygon class="cls-279" points="298.78 315.78 286.55 299.9 282.29 303.25 298.78 315.78"/>
      <polygon class="cls-324" points="298.74 315.74 286.55 299.91 282.31 303.25 298.74 315.74"/>
      <polygon class="cls-275" points="298.7 315.7 286.55 299.92 282.32 303.25 298.7 315.7"/>
      <polygon class="cls-341" points="298.66 315.66 286.55 299.93 282.33 303.25 298.66 315.66"/>
      <polygon class="cls-319" points="298.62 315.62 286.55 299.94 282.34 303.25 298.62 315.62"/>
      <polygon class="cls-366" points="298.58 315.59 286.54 299.95 282.35 303.25 298.58 315.59"/>
      <polygon class="cls-369" points="298.54 315.55 286.54 299.96 282.36 303.25 298.54 315.55"/>
      <polygon class="cls-356" points="298.5 315.51 286.54 299.97 282.37 303.25 298.5 315.51"/>
      <polygon class="cls-354" points="298.46 315.47 286.54 299.98 282.38 303.25 298.46 315.47"/>
      <polygon class="cls-347" points="298.42 315.43 286.54 299.99 282.4 303.25 298.42 315.43"/>
      <polygon class="cls-235" points="298.38 315.39 286.53 300 282.41 303.25 298.38 315.39"/>
      <polygon class="cls-231" points="298.34 315.35 286.53 300.01 282.42 303.25 298.34 315.35"/>
      <polygon class="cls-256" points="298.3 315.31 286.53 300.02 282.43 303.25 298.3 315.31"/>
      <polygon class="cls-270" points="298.26 315.27 286.53 300.03 282.44 303.25 298.26 315.27"/>
      <polygon class="cls-312" points="298.22 315.23 286.53 300.04 282.45 303.24 298.22 315.23"/>
      <polygon class="cls-264" points="298.18 315.19 286.52 300.05 282.46 303.24 298.18 315.19"/>
      <polygon class="cls-306" points="298.14 315.15 286.52 300.06 282.48 303.24 298.14 315.15"/>
      <polygon class="cls-261" points="298.1 315.11 286.52 300.07 282.49 303.24 298.1 315.11"/>
      <polygon class="cls-260" points="298.06 315.07 286.52 300.08 282.5 303.24 298.06 315.07"/>
      <polygon class="cls-335" points="298.02 315.03 286.52 300.09 282.51 303.24 298.02 315.03"/>
      <polygon class="cls-320" points="297.98 314.99 286.51 300.1 282.52 303.24 297.98 314.99"/>
      <polygon class="cls-327" points="297.94 314.95 286.51 300.11 282.53 303.24 297.94 314.95"/>
      <polygon class="cls-345" points="297.9 314.91 286.51 300.12 282.54 303.24 297.9 314.91"/>
      <polygon class="cls-334" points="297.86 314.87 286.51 300.13 282.55 303.24 297.86 314.87"/>
      <polygon class="cls-258" points="297.82 314.83 286.51 300.14 282.57 303.24 297.82 314.83"/>
      <polygon class="cls-51" points="297.78 314.79 286.5 300.14 282.58 303.24 297.78 314.79"/>
      <polygon class="cls-13" points="297.74 314.75 286.5 300.15 282.59 303.24 297.74 314.75"/>
      <polygon class="cls-12" points="297.7 314.71 286.5 300.16 282.6 303.24 297.7 314.71"/>
      <polygon class="cls-9" points="297.66 314.67 286.5 300.17 282.61 303.24 297.66 314.67"/>
      <polygon class="cls-17" points="297.62 314.63 286.5 300.18 282.62 303.23 297.62 314.63"/>
      <polygon class="cls-44" points="297.58 314.59 286.49 300.19 282.63 303.23 297.58 314.59"/>
      <polygon class="cls-59" points="297.54 314.55 286.49 300.2 282.64 303.23 297.54 314.55"/>
      <polygon class="cls-223" points="297.5 314.51 286.49 300.21 282.66 303.23 297.5 314.51"/>
      <polygon class="cls-228" points="297.46 314.48 286.49 300.22 282.67 303.23 297.46 314.48"/>
      <polygon class="cls-251" points="297.42 314.44 286.49 300.23 282.68 303.23 297.42 314.44"/>
      <polygon class="cls-227" points="297.38 314.4 286.48 300.24 282.69 303.23 297.38 314.4"/>
      <polygon class="cls-49" points="297.34 314.36 286.48 300.25 282.7 303.23 297.34 314.36"/>
      <polygon class="cls-329" points="297.3 314.32 286.48 300.26 282.71 303.23 297.3 314.32"/>
      <polygon class="cls-330" points="297.26 314.28 286.48 300.27 282.72 303.23 297.26 314.28"/>
      <polygon class="cls-332" points="297.22 314.24 286.48 300.28 282.73 303.23 297.22 314.24"/>
      <polygon class="cls-337" points="297.18 314.2 286.47 300.29 282.75 303.23 297.18 314.2"/>
      <polygon class="cls-339" points="297.14 314.16 286.47 300.3 282.76 303.23 297.14 314.16"/>
      <polygon class="cls-359" points="297.1 314.12 286.47 300.31 282.77 303.23 297.1 314.12"/>
      <polygon class="cls-63" points="297.06 314.08 286.47 300.32 282.78 303.22 297.06 314.08"/>
      <polygon class="cls-55" points="297.02 314.04 286.47 300.33 282.79 303.22 297.02 314.04"/>
      <polygon class="cls-254" points="296.98 314 286.46 300.34 282.8 303.22 296.98 314"/>
      <polygon class="cls-48" points="296.94 313.96 286.46 300.35 282.81 303.22 296.94 313.96"/>
      <polygon class="cls-352" points="296.9 313.92 286.46 300.36 282.82 303.22 296.9 313.92"/>
      <polygon class="cls-73" points="296.86 313.88 286.46 300.37 282.84 303.22 296.86 313.88"/>
      <polygon class="cls-245" points="296.82 313.84 286.46 300.38 282.85 303.22 296.82 313.84"/>
      <polygon class="cls-249" points="296.78 313.8 286.45 300.39 282.86 303.22 296.78 313.8"/>
      <polygon class="cls-239" points="296.74 313.76 286.45 300.4 282.87 303.22 296.74 313.76"/>
      <polygon class="cls-81" points="296.7 313.72 286.45 300.41 282.88 303.22 296.7 313.72"/>
      <polygon class="cls-113" points="296.66 313.68 286.45 300.42 282.89 303.22 296.66 313.68"/>
      <polygon class="cls-111" points="296.62 313.64 286.45 300.43 282.9 303.22 296.62 313.64"/>
      <polygon class="cls-96" points="296.58 313.6 286.44 300.44 282.91 303.22 296.58 313.6"/>
      <polygon class="cls-98" points="296.54 313.56 286.44 300.45 282.93 303.22 296.54 313.56"/>
      <polygon class="cls-65" points="296.5 313.52 286.44 300.46 282.94 303.21 296.5 313.52"/>
      <polygon class="cls-220" points="296.46 313.48 286.44 300.47 282.95 303.21 296.46 313.48"/>
      <polygon class="cls-226" points="296.42 313.44 286.44 300.48 282.96 303.21 296.42 313.44"/>
      <polygon class="cls-57" points="296.38 313.4 286.44 300.49 282.97 303.21 296.38 313.4"/>
      <polygon class="cls-52" points="296.34 313.36 286.43 300.49 282.98 303.21 296.34 313.36"/>
      <polygon class="cls-238" points="296.3 313.33 286.43 300.5 282.99 303.21 296.3 313.33"/>
      <polygon class="cls-88" points="296.26 313.29 286.43 300.51 283 303.21 296.26 313.29"/>
      <polygon class="cls-86" points="296.22 313.25 286.43 300.52 283.02 303.21 296.22 313.25"/>
      <polygon class="cls-68" points="296.18 313.21 286.43 300.53 283.03 303.21 296.18 313.21"/>
      <polygon class="cls-71" points="296.14 313.17 286.42 300.54 283.04 303.21 296.14 313.17"/>
      <polygon class="cls-225" points="296.1 313.13 286.42 300.55 283.05 303.21 296.1 313.13"/>
      <polygon class="cls-134" points="296.06 313.09 286.42 300.56 283.06 303.21 296.06 313.09"/>
      <polygon class="cls-119" points="296.02 313.05 286.42 300.57 283.07 303.21 296.02 313.05"/>
      <polygon class="cls-129" points="295.98 313.01 286.42 300.58 283.08 303.21 295.98 313.01"/>
      <polygon class="cls-125" points="295.94 312.97 286.41 300.59 283.09 303.2 295.94 312.97"/>
      <polygon class="cls-127" points="295.9 312.93 286.41 300.6 283.11 303.2 295.9 312.93"/>
      <polygon class="cls-122" points="295.86 312.89 286.41 300.61 283.12 303.2 295.86 312.89"/>
      <polygon class="cls-132" points="295.82 312.85 286.41 300.62 283.13 303.2 295.82 312.85"/>
      <polygon class="cls-137" points="295.78 312.81 286.41 300.63 283.14 303.2 295.78 312.81"/>
      <polygon class="cls-121" points="295.74 312.77 286.4 300.64 283.15 303.2 295.74 312.77"/>
      <polygon class="cls-93" points="295.7 312.73 286.4 300.65 283.16 303.2 295.7 312.73"/>
      <polygon class="cls-79" points="295.66 312.69 286.4 300.66 283.17 303.2 295.66 312.69"/>
      <polygon class="cls-99" points="295.62 312.65 286.4 300.67 283.19 303.2 295.62 312.65"/>
      <polygon class="cls-85" points="295.58 312.61 286.4 300.68 283.2 303.2 295.58 312.61"/>
      <polygon class="cls-106" points="295.54 312.57 286.39 300.69 283.21 303.2 295.54 312.57"/>
      <polygon class="cls-128" points="295.5 312.53 286.39 300.7 283.22 303.2 295.5 312.53"/>
      <polygon class="cls-145" points="295.46 312.49 286.39 300.71 283.23 303.2 295.46 312.49"/>
      <polygon class="cls-143" points="295.42 312.45 286.39 300.72 283.24 303.2 295.42 312.45"/>
      <polygon class="cls-77" points="295.38 312.41 286.39 300.73 283.25 303.2 295.38 312.41"/>
      <polygon class="cls-166" points="295.34 312.37 286.38 300.74 283.26 303.19 295.34 312.37"/>
      <polygon class="cls-167" points="295.3 312.33 286.38 300.75 283.28 303.19 295.3 312.33"/>
      <polygon class="cls-182" points="295.26 312.29 286.38 300.76 283.29 303.19 295.26 312.29"/>
      <polygon class="cls-186" points="295.22 312.25 286.38 300.77 283.3 303.19 295.22 312.25"/>
      <polygon class="cls-154" points="295.18 312.21 286.38 300.78 283.31 303.19 295.18 312.21"/>
      <polygon class="cls-150" points="295.14 312.18 286.37 300.79 283.32 303.19 295.14 312.18"/>
      <polygon class="cls-115" points="295.1 312.14 286.37 300.8 283.33 303.19 295.1 312.14"/>
      <polygon class="cls-157" points="295.06 312.1 286.37 300.81 283.34 303.19 295.06 312.1"/>
      <polygon class="cls-161" points="295.02 312.06 286.37 300.82 283.35 303.19 295.02 312.06"/>
      <polygon class="cls-170" points="294.98 312.02 286.37 300.83 283.37 303.19 294.98 312.02"/>
      <polygon class="cls-169" points="294.94 311.98 286.36 300.84 283.38 303.19 294.94 311.98"/>
      <polygon class="cls-133" points="294.9 311.94 286.36 300.84 283.39 303.19 294.9 311.94"/>
      <polygon class="cls-175" points="294.86 311.9 286.36 300.85 283.4 303.19 294.86 311.9"/>
      <polygon class="cls-171" points="294.82 311.86 286.36 300.86 283.41 303.19 294.82 311.86"/>
      <polygon class="cls-159" points="294.78 311.82 286.36 300.87 283.42 303.18 294.78 311.82"/>
      <polygon class="cls-177" points="294.74 311.78 286.35 300.88 283.43 303.18 294.74 311.78"/>
      <polygon class="cls-183" points="294.7 311.74 286.35 300.89 283.44 303.18 294.7 311.74"/>
      <polygon class="cls-40" points="294.66 311.7 286.35 300.9 283.46 303.18 294.66 311.7"/>
      <polygon class="cls-28" points="294.62 311.66 286.35 300.91 283.47 303.18 294.62 311.66"/>
      <polygon class="cls-35" points="294.58 311.62 286.35 300.92 283.48 303.18 294.58 311.62"/>
      <polygon class="cls-19" points="294.54 311.58 286.34 300.93 283.49 303.18 294.54 311.58"/>
      <polygon class="cls-32" points="294.5 311.54 286.34 300.94 283.5 303.18 294.5 311.54"/>
      <polygon class="cls-21" points="294.46 311.5 286.34 300.95 283.51 303.18 294.46 311.5"/>
      <polygon class="cls-7" points="294.42 311.46 286.34 300.96 283.52 303.18 294.42 311.46"/>
      <polygon class="cls-25" points="294.38 311.42 286.34 300.97 283.53 303.18 294.38 311.42"/>
      <polygon class="cls-8" points="294.34 311.38 286.33 300.98 283.55 303.18 294.34 311.38"/>
      <polygon class="cls-41" points="294.3 311.34 286.33 300.99 283.56 303.18 294.3 311.34"/>
    </g>
    <g>
      <polygon class="cls-195" points="300.22 275.37 283.99 290.44 287.83 295.15 300.22 275.37"/>
      <polygon class="cls-196" points="300.19 275.42 283.99 290.44 287.83 295.14 300.19 275.42"/>
      <polygon class="cls-194" points="300.15 275.46 284 290.44 287.82 295.12 300.15 275.46"/>
      <polygon class="cls-193" points="300.12 275.5 284.01 290.44 287.82 295.11 300.12 275.5"/>
      <polygon class="cls-290" points="300.09 275.54 284.02 290.44 287.82 295.1 300.09 275.54"/>
      <polygon class="cls-305" points="300.05 275.58 284.03 290.45 287.82 295.09 300.05 275.58"/>
      <polygon class="cls-362" points="300.02 275.62 284.04 290.45 287.82 295.08 300.02 275.62"/>
      <polygon class="cls-263" points="299.99 275.66 284.05 290.45 287.82 295.07 299.99 275.66"/>
      <polygon class="cls-276" points="299.95 275.7 284.06 290.45 287.82 295.06 299.95 275.7"/>
      <polygon class="cls-267" points="299.92 275.74 284.06 290.45 287.82 295.05 299.92 275.74"/>
      <polygon class="cls-269" points="299.89 275.78 284.07 290.45 287.82 295.04 299.89 275.78"/>
      <polygon class="cls-284" points="299.85 275.82 284.08 290.45 287.81 295.03 299.85 275.82"/>
      <polygon class="cls-301" points="299.82 275.86 284.09 290.46 287.81 295.02 299.82 275.86"/>
      <polygon class="cls-316" points="299.78 275.9 284.1 290.46 287.81 295.01 299.78 275.9"/>
      <polygon class="cls-286" points="299.75 275.94 284.11 290.46 287.81 294.99 299.75 275.94"/>
      <polygon class="cls-291" points="299.72 275.98 284.12 290.46 287.81 294.98 299.72 275.98"/>
      <polygon class="cls-361" points="299.68 276.02 284.13 290.46 287.81 294.97 299.68 276.02"/>
      <polygon class="cls-104" points="299.65 276.07 284.13 290.46 287.81 294.96 299.65 276.07"/>
      <polygon class="cls-107" points="299.62 276.11 284.14 290.46 287.81 294.95 299.62 276.11"/>
      <polygon class="cls-299" points="299.58 276.15 284.15 290.47 287.8 294.94 299.58 276.15"/>
      <polygon class="cls-295" points="299.55 276.19 284.16 290.47 287.8 294.93 299.55 276.19"/>
      <polygon class="cls-206" points="299.52 276.23 284.17 290.47 287.8 294.92 299.52 276.23"/>
      <polygon class="cls-207" points="299.48 276.27 284.18 290.47 287.8 294.91 299.48 276.27"/>
      <polygon class="cls-288" points="299.45 276.31 284.19 290.47 287.8 294.9 299.45 276.31"/>
      <polygon class="cls-308" points="299.42 276.35 284.2 290.47 287.8 294.89 299.42 276.35"/>
      <polygon class="cls-292" points="299.38 276.39 284.21 290.47 287.8 294.88 299.38 276.39"/>
      <polygon class="cls-297" points="299.35 276.43 284.21 290.48 287.8 294.86 299.35 276.43"/>
      <polygon class="cls-315" points="299.32 276.47 284.22 290.48 287.79 294.85 299.32 276.47"/>
      <polygon class="cls-300" points="299.28 276.51 284.23 290.48 287.79 294.84 299.28 276.51"/>
      <polygon class="cls-215" points="299.25 276.55 284.24 290.48 287.79 294.83 299.25 276.55"/>
      <polygon class="cls-217" points="299.22 276.59 284.25 290.48 287.79 294.82 299.22 276.59"/>
      <polygon class="cls-201" points="299.18 276.63 284.26 290.48 287.79 294.81 299.18 276.63"/>
      <polygon class="cls-203" points="299.15 276.67 284.27 290.48 287.79 294.8 299.15 276.67"/>
      <polygon class="cls-198" points="299.12 276.72 284.28 290.49 287.79 294.79 299.12 276.72"/>
      <polygon class="cls-200" points="299.08 276.76 284.28 290.49 287.79 294.78 299.08 276.76"/>
      <polygon class="cls-210" points="299.05 276.8 284.29 290.49 287.79 294.77 299.05 276.8"/>
      <polygon class="cls-213" points="299.02 276.84 284.3 290.49 287.78 294.76 299.02 276.84"/>
      <polygon class="cls-232" points="298.98 276.88 284.31 290.49 287.78 294.75 298.98 276.88"/>
      <polygon class="cls-283" points="298.95 276.92 284.32 290.49 287.78 294.73 298.95 276.92"/>
      <polygon class="cls-278" points="298.91 276.96 284.33 290.49 287.78 294.72 298.91 276.96"/>
      <polygon class="cls-323" points="298.88 277 284.34 290.49 287.78 294.71 298.88 277"/>
      <polygon class="cls-274" points="298.85 277.04 284.35 290.5 287.78 294.7 298.85 277.04"/>
      <polygon class="cls-340" points="298.81 277.08 284.35 290.5 287.78 294.69 298.81 277.08"/>
      <polygon class="cls-319" points="298.78 277.12 284.36 290.5 287.78 294.68 298.78 277.12"/>
      <polygon class="cls-366" points="298.75 277.16 284.37 290.5 287.77 294.67 298.75 277.16"/>
      <polygon class="cls-369" points="298.71 277.2 284.38 290.5 287.77 294.66 298.71 277.2"/>
      <polygon class="cls-356" points="298.68 277.24 284.39 290.5 287.77 294.65 298.68 277.24"/>
      <polygon class="cls-354" points="298.65 277.28 284.4 290.5 287.77 294.64 298.65 277.28"/>
      <polygon class="cls-363" points="298.61 277.32 284.41 290.51 287.77 294.63 298.61 277.32"/>
      <polygon class="cls-348" points="298.58 277.36 284.42 290.51 287.77 294.61 298.58 277.36"/>
      <polygon class="cls-236" points="298.55 277.41 284.43 290.51 287.77 294.6 298.55 277.41"/>
      <polygon class="cls-233" points="298.51 277.45 284.43 290.51 287.77 294.59 298.51 277.45"/>
      <polygon class="cls-255" points="298.48 277.49 284.44 290.51 287.76 294.58 298.48 277.49"/>
      <polygon class="cls-313" points="298.45 277.53 284.45 290.51 287.76 294.57 298.45 277.53"/>
      <polygon class="cls-311" points="298.41 277.57 284.46 290.51 287.76 294.56 298.41 277.57"/>
      <polygon class="cls-264" points="298.38 277.61 284.47 290.52 287.76 294.55 298.38 277.61"/>
      <polygon class="cls-306" points="298.35 277.65 284.48 290.52 287.76 294.54 298.35 277.65"/>
      <polygon class="cls-262" points="298.31 277.69 284.49 290.52 287.76 294.53 298.31 277.69"/>
      <polygon class="cls-260" points="298.28 277.73 284.5 290.52 287.76 294.52 298.28 277.73"/>
      <polygon class="cls-335" points="298.25 277.77 284.5 290.52 287.76 294.51 298.25 277.77"/>
      <polygon class="cls-342" points="298.21 277.81 284.51 290.52 287.76 294.5 298.21 277.81"/>
      <polygon class="cls-321" points="298.18 277.85 284.52 290.52 287.75 294.48 298.18 277.85"/>
      <polygon class="cls-344" points="298.15 277.89 284.53 290.53 287.75 294.47 298.15 277.89"/>
      <polygon class="cls-322" points="298.11 277.93 284.54 290.53 287.75 294.46 298.11 277.93"/>
      <polygon class="cls-257" points="298.08 277.97 284.55 290.53 287.75 294.45 298.08 277.97"/>
      <polygon class="cls-271" points="298.05 278.01 284.56 290.53 287.75 294.44 298.05 278.01"/>
      <polygon class="cls-101" points="298.01 278.06 284.57 290.53 287.75 294.43 298.01 278.06"/>
      <polygon class="cls-14" points="297.98 278.1 284.57 290.53 287.75 294.42 297.98 278.1"/>
      <polygon class="cls-10" points="297.94 278.14 284.58 290.53 287.75 294.41 297.94 278.14"/>
      <polygon class="cls-9" points="297.91 278.18 284.59 290.54 287.74 294.4 297.91 278.18"/>
      <polygon class="cls-16" points="297.88 278.22 284.6 290.54 287.74 294.39 297.88 278.22"/>
      <polygon class="cls-44" points="297.84 278.26 284.61 290.54 287.74 294.38 297.84 278.26"/>
      <polygon class="cls-59" points="297.81 278.3 284.62 290.54 287.74 294.37 297.81 278.3"/>
      <polygon class="cls-223" points="297.78 278.34 284.63 290.54 287.74 294.35 297.78 278.34"/>
      <polygon class="cls-228" points="297.74 278.38 284.64 290.54 287.74 294.34 297.74 278.38"/>
      <polygon class="cls-251" points="297.71 278.42 284.65 290.54 287.74 294.33 297.71 278.42"/>
      <polygon class="cls-346" points="297.68 278.46 284.65 290.55 287.74 294.32 297.68 278.46"/>
      <polygon class="cls-102" points="297.64 278.5 284.66 290.55 287.73 294.31 297.64 278.5"/>
      <polygon class="cls-47" points="297.61 278.54 284.67 290.55 287.73 294.3 297.61 278.54"/>
      <polygon class="cls-328" points="297.58 278.58 284.68 290.55 287.73 294.29 297.58 278.58"/>
      <polygon class="cls-331" points="297.54 278.62 284.69 290.55 287.73 294.28 297.54 278.62"/>
      <polygon class="cls-350" points="297.51 278.66 284.7 290.55 287.73 294.27 297.51 278.66"/>
      <polygon class="cls-336" points="297.48 278.71 284.71 290.55 287.73 294.26 297.48 278.71"/>
      <polygon class="cls-368" points="297.44 278.75 284.72 290.56 287.73 294.25 297.44 278.75"/>
      <polygon class="cls-359" points="297.41 278.79 284.72 290.56 287.73 294.24 297.41 278.79"/>
      <polygon class="cls-62" points="297.38 278.83 284.73 290.56 287.73 294.22 297.38 278.83"/>
      <polygon class="cls-60" points="297.34 278.87 284.74 290.56 287.72 294.21 297.34 278.87"/>
      <polygon class="cls-254" points="297.31 278.91 284.75 290.56 287.72 294.2 297.31 278.91"/>
      <polygon class="cls-48" points="297.28 278.95 284.76 290.56 287.72 294.19 297.28 278.95"/>
      <polygon class="cls-352" points="297.24 278.99 284.77 290.56 287.72 294.18 297.24 278.99"/>
      <polygon class="cls-72" points="297.21 279.03 284.78 290.57 287.72 294.17 297.21 279.03"/>
      <polygon class="cls-75" points="297.18 279.07 284.79 290.57 287.72 294.16 297.18 279.07"/>
      <polygon class="cls-248" points="297.14 279.11 284.79 290.57 287.72 294.15 297.14 279.11"/>
      <polygon class="cls-243" points="297.11 279.15 284.8 290.57 287.72 294.14 297.11 279.15"/>
      <polygon class="cls-80" points="297.08 279.19 284.81 290.57 287.71 294.13 297.08 279.19"/>
      <polygon class="cls-87" points="297.04 279.23 284.82 290.57 287.71 294.12 297.04 279.23"/>
      <polygon class="cls-113" points="297.01 279.27 284.83 290.57 287.71 294.11 297.01 279.27"/>
      <polygon class="cls-110" points="296.97 279.31 284.84 290.58 287.71 294.09 296.97 279.31"/>
      <polygon class="cls-96" points="296.94 279.35 284.85 290.58 287.71 294.08 296.94 279.35"/>
      <polygon class="cls-42" points="296.91 279.4 284.86 290.58 287.71 294.07 296.91 279.4"/>
      <polygon class="cls-65" points="296.87 279.44 284.87 290.58 287.71 294.06 296.87 279.44"/>
      <polygon class="cls-220" points="296.84 279.48 284.87 290.58 287.71 294.05 296.84 279.48"/>
      <polygon class="cls-226" points="296.81 279.52 284.88 290.58 287.7 294.04 296.81 279.52"/>
      <polygon class="cls-57" points="296.77 279.56 284.89 290.58 287.7 294.03 296.77 279.56"/>
      <polygon class="cls-56" points="296.74 279.6 284.9 290.59 287.7 294.02 296.74 279.6"/>
      <polygon class="cls-238" points="296.71 279.64 284.91 290.59 287.7 294.01 296.71 279.64"/>
      <polygon class="cls-250" points="296.67 279.68 284.92 290.59 287.7 294 296.67 279.68"/>
      <polygon class="cls-64" points="296.64 279.72 284.93 290.59 287.7 293.99 296.64 279.72"/>
      <polygon class="cls-69" points="296.61 279.76 284.94 290.59 287.7 293.98 296.61 279.76"/>
      <polygon class="cls-70" points="296.57 279.8 284.94 290.59 287.7 293.96 296.57 279.8"/>
      <polygon class="cls-66" points="296.54 279.84 284.95 290.59 287.7 293.95 296.54 279.84"/>
      <polygon class="cls-221" points="296.51 279.88 284.96 290.59 287.69 293.94 296.51 279.88"/>
      <polygon class="cls-136" points="296.47 279.92 284.97 290.6 287.69 293.93 296.47 279.92"/>
      <polygon class="cls-140" points="296.44 279.96 284.98 290.6 287.69 293.92 296.44 279.96"/>
      <polygon class="cls-130" points="296.41 280 284.99 290.6 287.69 293.91 296.41 280"/>
      <polygon class="cls-125" points="296.37 280.05 285 290.6 287.69 293.9 296.37 280.05"/>
      <polygon class="cls-127" points="296.34 280.09 285.01 290.6 287.69 293.89 296.34 280.09"/>
      <polygon class="cls-123" points="296.31 280.13 285.01 290.6 287.69 293.88 296.31 280.13"/>
      <polygon class="cls-179" points="296.27 280.17 285.02 290.6 287.69 293.87 296.27 280.17"/>
      <polygon class="cls-137" points="296.24 280.21 285.03 290.61 287.68 293.86 296.24 280.21"/>
      <polygon class="cls-188" points="296.21 280.25 285.04 290.61 287.68 293.84 296.21 280.25"/>
      <polygon class="cls-126" points="296.17 280.29 285.05 290.61 287.68 293.83 296.17 280.29"/>
      <polygon class="cls-78" points="296.14 280.33 285.06 290.61 287.68 293.82 296.14 280.33"/>
      <polygon class="cls-82" points="296.1 280.37 285.07 290.61 287.68 293.81 296.1 280.37"/>
      <polygon class="cls-84" points="296.07 280.41 285.08 290.61 287.68 293.8 296.07 280.41"/>
      <polygon class="cls-91" points="296.04 280.45 285.09 290.61 287.68 293.79 296.04 280.45"/>
      <polygon class="cls-105" points="296 280.49 285.09 290.62 287.68 293.78 296 280.49"/>
      <polygon class="cls-138" points="295.97 280.53 285.1 290.62 287.67 293.77 295.97 280.53"/>
      <polygon class="cls-145" points="295.94 280.57 285.11 290.62 287.67 293.76 295.94 280.57"/>
      <polygon class="cls-143" points="295.9 280.61 285.12 290.62 287.67 293.75 295.9 280.61"/>
      <polygon class="cls-77" points="295.87 280.65 285.13 290.62 287.67 293.74 295.87 280.65"/>
      <polygon class="cls-165" points="295.84 280.7 285.14 290.62 287.67 293.73 295.84 280.7"/>
      <polygon class="cls-168" points="295.8 280.74 285.15 290.62 287.67 293.71 295.8 280.74"/>
      <polygon class="cls-153" points="295.77 280.78 285.16 290.63 287.67 293.7 295.77 280.78"/>
      <polygon class="cls-186" points="295.74 280.82 285.16 290.63 287.67 293.69 295.74 280.82"/>
      <polygon class="cls-156" points="295.7 280.86 285.17 290.63 287.67 293.68 295.7 280.86"/>
      <polygon class="cls-152" points="295.67 280.9 285.18 290.63 287.66 293.67 295.67 280.9"/>
      <polygon class="cls-117" points="295.64 280.94 285.19 290.63 287.66 293.66 295.64 280.94"/>
      <polygon class="cls-164" points="295.6 280.98 285.2 290.63 287.66 293.65 295.6 280.98"/>
      <polygon class="cls-163" points="295.57 281.02 285.21 290.63 287.66 293.64 295.57 281.02"/>
      <polygon class="cls-173" points="295.54 281.06 285.22 290.64 287.66 293.63 295.54 281.06"/>
      <polygon class="cls-170" points="295.5 281.1 285.23 290.64 287.66 293.62 295.5 281.1"/>
      <polygon class="cls-169" points="295.47 281.14 285.23 290.64 287.66 293.61 295.47 281.14"/>
      <polygon class="cls-133" points="295.44 281.18 285.24 290.64 287.66 293.6 295.44 281.18"/>
      <polygon class="cls-175" points="295.4 281.22 285.25 290.64 287.65 293.58 295.4 281.22"/>
      <polygon class="cls-171" points="295.37 281.26 285.26 290.64 287.65 293.57 295.37 281.26"/>
      <polygon class="cls-159" points="295.34 281.3 285.27 290.64 287.65 293.56 295.34 281.3"/>
      <polygon class="cls-189" points="295.3 281.34 285.28 290.65 287.65 293.55 295.3 281.34"/>
      <polygon class="cls-185" points="295.27 281.39 285.29 290.65 287.65 293.54 295.27 281.39"/>
      <polygon class="cls-30" points="295.24 281.43 285.3 290.65 287.65 293.53 295.24 281.43"/>
      <polygon class="cls-37" points="295.2 281.47 285.31 290.65 287.65 293.52 295.2 281.47"/>
      <polygon class="cls-27" points="295.17 281.51 285.31 290.65 287.65 293.51 295.17 281.51"/>
      <polygon class="cls-23" points="295.13 281.55 285.32 290.65 287.64 293.5 295.13 281.55"/>
      <polygon class="cls-36" points="295.1 281.59 285.33 290.65 287.64 293.49 295.1 281.59"/>
      <polygon class="cls-18" points="295.07 281.63 285.34 290.66 287.64 293.48 295.07 281.63"/>
      <polygon class="cls-22" points="295.03 281.67 285.35 290.66 287.64 293.47 295.03 281.67"/>
      <polygon class="cls-3" points="295 281.71 285.36 290.66 287.64 293.45 295 281.71"/>
      <polygon class="cls-5" points="294.97 281.75 285.37 290.66 287.64 293.44 294.97 281.75"/>
      <polygon class="cls-8" points="294.93 281.79 285.38 290.66 287.64 293.43 294.93 281.79"/>
      <polygon class="cls-41" points="294.9 281.83 285.38 290.66 287.64 293.42 294.9 281.83"/>
    </g>
    <g>
      <polygon class="cls-195" points="257.1 275.37 270.28 294.37 273.92 289.44 257.1 275.37"/>
      <polygon class="cls-196" points="257.13 275.42 270.28 294.36 273.91 289.44 257.13 275.42"/>
      <polygon class="cls-194" points="257.17 275.46 270.28 294.35 273.9 289.44 257.17 275.46"/>
      <polygon class="cls-193" points="257.21 275.5 270.28 294.34 273.89 289.44 257.21 275.5"/>
      <polygon class="cls-290" points="257.24 275.54 270.28 294.33 273.89 289.45 257.24 275.54"/>
      <polygon class="cls-305" points="257.28 275.58 270.28 294.32 273.88 289.45 257.28 275.58"/>
      <polygon class="cls-362" points="257.31 275.62 270.28 294.31 273.87 289.45 257.31 275.62"/>
      <polygon class="cls-263" points="257.35 275.66 270.28 294.29 273.86 289.45 257.35 275.66"/>
      <polygon class="cls-277" points="257.39 275.7 270.28 294.28 273.85 289.46 257.39 275.7"/>
      <polygon class="cls-266" points="257.42 275.74 270.28 294.27 273.84 289.46 257.42 275.74"/>
      <polygon class="cls-268" points="257.46 275.78 270.28 294.26 273.83 289.46 257.46 275.78"/>
      <polygon class="cls-285" points="257.5 275.82 270.28 294.25 273.82 289.46 257.5 275.82"/>
      <polygon class="cls-302" points="257.53 275.86 270.28 294.24 273.81 289.46 257.53 275.86"/>
      <polygon class="cls-316" points="257.57 275.9 270.28 294.23 273.8 289.47 257.57 275.9"/>
      <polygon class="cls-286" points="257.61 275.94 270.29 294.22 273.79 289.47 257.61 275.94"/>
      <polygon class="cls-291" points="257.64 275.98 270.29 294.2 273.78 289.47 257.64 275.98"/>
      <polygon class="cls-103" points="257.68 276.02 270.29 294.19 273.78 289.47 257.68 276.02"/>
      <polygon class="cls-107" points="257.71 276.06 270.29 294.18 273.77 289.47 257.71 276.06"/>
      <polygon class="cls-299" points="257.75 276.1 270.29 294.17 273.76 289.48 257.75 276.1"/>
      <polygon class="cls-295" points="257.79 276.14 270.29 294.16 273.75 289.48 257.79 276.14"/>
      <polygon class="cls-206" points="257.82 276.18 270.29 294.15 273.74 289.48 257.82 276.18"/>
      <polygon class="cls-207" points="257.86 276.22 270.29 294.14 273.73 289.48 257.86 276.22"/>
      <polygon class="cls-288" points="257.9 276.26 270.29 294.13 273.72 289.49 257.9 276.26"/>
      <polygon class="cls-308" points="257.93 276.3 270.29 294.11 273.71 289.49 257.93 276.3"/>
      <polygon class="cls-292" points="257.97 276.34 270.29 294.1 273.7 289.49 257.97 276.34"/>
      <polygon class="cls-297" points="258.01 276.38 270.29 294.09 273.69 289.49 258.01 276.38"/>
      <polygon class="cls-315" points="258.04 276.42 270.29 294.08 273.68 289.49 258.04 276.42"/>
      <polygon class="cls-300" points="258.08 276.46 270.29 294.07 273.67 289.5 258.08 276.46"/>
      <polygon class="cls-215" points="258.11 276.5 270.3 294.06 273.67 289.5 258.11 276.5"/>
      <polygon class="cls-217" points="258.15 276.54 270.3 294.05 273.66 289.5 258.15 276.54"/>
      <polygon class="cls-202" points="258.19 276.58 270.3 294.04 273.65 289.5 258.19 276.58"/>
      <polygon class="cls-204" points="258.22 276.62 270.3 294.02 273.64 289.5 258.22 276.62"/>
      <polygon class="cls-197" points="258.26 276.66 270.3 294.01 273.63 289.51 258.26 276.66"/>
      <polygon class="cls-199" points="258.3 276.7 270.3 294 273.62 289.51 258.3 276.7"/>
      <polygon class="cls-211" points="258.33 276.74 270.3 293.99 273.61 289.51 258.33 276.74"/>
      <polygon class="cls-212" points="258.37 276.78 270.3 293.98 273.6 289.51 258.37 276.78"/>
      <polygon class="cls-234" points="258.41 276.82 270.3 293.97 273.59 289.51 258.41 276.82"/>
      <polygon class="cls-281" points="258.44 276.86 270.3 293.96 273.58 289.52 258.44 276.86"/>
      <polygon class="cls-280" points="258.48 276.9 270.3 293.95 273.57 289.52 258.48 276.9"/>
      <polygon class="cls-325" points="258.51 276.94 270.3 293.93 273.56 289.52 258.51 276.94"/>
      <polygon class="cls-273" points="258.55 276.98 270.3 293.92 273.56 289.52 258.55 276.98"/>
      <polygon class="cls-318" points="258.59 277.02 270.3 293.91 273.55 289.53 258.59 277.02"/>
      <polygon class="cls-365" points="258.62 277.06 270.31 293.9 273.54 289.53 258.62 277.06"/>
      <polygon class="cls-370" points="258.66 277.1 270.31 293.89 273.53 289.53 258.66 277.1"/>
      <polygon class="cls-355" points="258.7 277.14 270.31 293.88 273.52 289.53 258.7 277.14"/>
      <polygon class="cls-353" points="258.73 277.18 270.31 293.87 273.51 289.53 258.73 277.18"/>
      <polygon class="cls-364" points="258.77 277.22 270.31 293.86 273.5 289.54 258.77 277.22"/>
      <polygon class="cls-349" points="258.8 277.26 270.31 293.85 273.49 289.54 258.8 277.26"/>
      <polygon class="cls-236" points="258.84 277.3 270.31 293.83 273.48 289.54 258.84 277.3"/>
      <polygon class="cls-233" points="258.88 277.34 270.31 293.82 273.47 289.54 258.88 277.34"/>
      <polygon class="cls-255" points="258.91 277.38 270.31 293.81 273.46 289.54 258.91 277.38"/>
      <polygon class="cls-313" points="258.95 277.42 270.31 293.8 273.46 289.55 258.95 277.42"/>
      <polygon class="cls-311" points="258.99 277.46 270.31 293.79 273.45 289.55 258.99 277.46"/>
      <polygon class="cls-264" points="259.02 277.5 270.31 293.78 273.44 289.55 259.02 277.5"/>
      <polygon class="cls-307" points="259.06 277.54 270.31 293.77 273.43 289.55 259.06 277.54"/>
      <polygon class="cls-262" points="259.1 277.58 270.31 293.76 273.42 289.55 259.1 277.58"/>
      <polygon class="cls-260" points="259.13 277.62 270.32 293.74 273.41 289.56 259.13 277.62"/>
      <polygon class="cls-343" points="259.17 277.66 270.32 293.73 273.4 289.56 259.17 277.66"/>
      <polygon class="cls-320" points="259.2 277.7 270.32 293.72 273.39 289.56 259.2 277.7"/>
      <polygon class="cls-327" points="259.24 277.74 270.32 293.71 273.38 289.56 259.24 277.74"/>
      <polygon class="cls-345" points="259.28 277.78 270.32 293.7 273.37 289.57 259.28 277.78"/>
      <polygon class="cls-334" points="259.31 277.82 270.32 293.69 273.36 289.57 259.31 277.82"/>
      <polygon class="cls-258" points="259.35 277.86 270.32 293.68 273.35 289.57 259.35 277.86"/>
      <polygon class="cls-51" points="259.39 277.9 270.32 293.67 273.35 289.57 259.39 277.9"/>
      <polygon class="cls-15" points="259.42 277.94 270.32 293.65 273.34 289.57 259.42 277.94"/>
      <polygon class="cls-12" points="259.46 277.98 270.32 293.64 273.33 289.58 259.46 277.98"/>
      <polygon class="cls-50" points="259.5 278.03 270.32 293.63 273.32 289.58 259.5 278.03"/>
      <polygon class="cls-17" points="259.53 278.07 270.32 293.62 273.31 289.58 259.53 278.07"/>
      <polygon class="cls-45" points="259.57 278.11 270.32 293.61 273.3 289.58 259.57 278.11"/>
      <polygon class="cls-58" points="259.6 278.15 270.32 293.6 273.29 289.58 259.6 278.15"/>
      <polygon class="cls-242" points="259.64 278.19 270.33 293.59 273.28 289.59 259.64 278.19"/>
      <polygon class="cls-224" points="259.68 278.23 270.33 293.58 273.27 289.59 259.68 278.23"/>
      <polygon class="cls-252" points="259.71 278.27 270.33 293.56 273.26 289.59 259.71 278.27"/>
      <polygon class="cls-346" points="259.75 278.31 270.33 293.55 273.25 289.59 259.75 278.31"/>
      <polygon class="cls-102" points="259.79 278.35 270.33 293.54 273.24 289.6 259.79 278.35"/>
      <polygon class="cls-46" points="259.82 278.39 270.33 293.53 273.24 289.6 259.82 278.39"/>
      <polygon class="cls-328" points="259.86 278.43 270.33 293.52 273.23 289.6 259.86 278.43"/>
      <polygon class="cls-331" points="259.9 278.47 270.33 293.51 273.22 289.6 259.9 278.47"/>
      <polygon class="cls-351" points="259.93 278.51 270.33 293.5 273.21 289.6 259.93 278.51"/>
      <polygon class="cls-336" points="259.97 278.55 270.33 293.49 273.2 289.61 259.97 278.55"/>
      <polygon class="cls-368" points="260 278.59 270.33 293.47 273.19 289.61 260 278.59"/>
      <polygon class="cls-358" points="260.04 278.63 270.33 293.46 273.18 289.61 260.04 278.63"/>
      <polygon class="cls-54" points="260.08 278.67 270.33 293.45 273.17 289.61 260.08 278.67"/>
      <polygon class="cls-60" points="260.11 278.71 270.33 293.44 273.16 289.61 260.11 278.71"/>
      <polygon class="cls-222" points="260.15 278.75 270.33 293.43 273.15 289.62 260.15 278.75"/>
      <polygon class="cls-357" points="260.19 278.79 270.34 293.42 273.14 289.62 260.19 278.79"/>
      <polygon class="cls-360" points="260.22 278.83 270.34 293.41 273.13 289.62 260.22 278.83"/>
      <polygon class="cls-76" points="260.26 278.87 270.34 293.4 273.13 289.62 260.26 278.87"/>
      <polygon class="cls-244" points="260.3 278.91 270.34 293.38 273.12 289.62 260.3 278.91"/>
      <polygon class="cls-249" points="260.33 278.95 270.34 293.37 273.11 289.63 260.33 278.95"/>
      <polygon class="cls-240" points="260.37 278.99 270.34 293.36 273.1 289.63 260.37 278.99"/>
      <polygon class="cls-81" points="260.4 279.03 270.34 293.35 273.09 289.63 260.4 279.03"/>
      <polygon class="cls-113" points="260.44 279.07 270.34 293.34 273.08 289.63 260.44 279.07"/>
      <polygon class="cls-111" points="260.48 279.11 270.34 293.33 273.07 289.64 260.48 279.11"/>
      <polygon class="cls-96" points="260.51 279.15 270.34 293.32 273.06 289.64 260.51 279.15"/>
      <polygon class="cls-97" points="260.55 279.19 270.34 293.31 273.05 289.64 260.55 279.19"/>
      <polygon class="cls-65" points="260.59 279.23 270.34 293.29 273.04 289.64 260.59 279.23"/>
      <polygon class="cls-74" points="260.62 279.27 270.34 293.28 273.03 289.64 260.62 279.27"/>
      <polygon class="cls-226" points="260.66 279.31 270.34 293.27 273.02 289.65 260.66 279.31"/>
      <polygon class="cls-229" points="260.7 279.35 270.35 293.26 273.02 289.65 260.7 279.35"/>
      <polygon class="cls-56" points="260.73 279.39 270.35 293.25 273.01 289.65 260.73 279.39"/>
      <polygon class="cls-53" points="260.77 279.43 270.35 293.24 273 289.65 260.77 279.43"/>
      <polygon class="cls-250" points="260.8 279.47 270.35 293.23 272.99 289.65 260.8 279.47"/>
      <polygon class="cls-86" points="260.84 279.51 270.35 293.22 272.98 289.66 260.84 279.51"/>
      <polygon class="cls-69" points="260.88 279.55 270.35 293.21 272.97 289.66 260.88 279.55"/>
      <polygon class="cls-70" points="260.91 279.59 270.35 293.19 272.96 289.66 260.91 279.59"/>
      <polygon class="cls-90" points="260.95 279.63 270.35 293.18 272.95 289.66 260.95 279.63"/>
      <polygon class="cls-221" points="260.99 279.67 270.35 293.17 272.94 289.67 260.99 279.67"/>
      <polygon class="cls-135" points="261.02 279.71 270.35 293.16 272.93 289.67 261.02 279.71"/>
      <polygon class="cls-141" points="261.06 279.75 270.35 293.15 272.92 289.67 261.06 279.75"/>
      <polygon class="cls-192" points="261.1 279.79 270.35 293.14 272.92 289.67 261.1 279.79"/>
      <polygon class="cls-124" points="261.13 279.83 270.35 293.13 272.91 289.67 261.13 279.83"/>
      <polygon class="cls-146" points="261.17 279.87 270.35 293.12 272.9 289.68 261.17 279.87"/>
      <polygon class="cls-122" points="261.2 279.91 270.36 293.1 272.89 289.68 261.2 279.91"/>
      <polygon class="cls-131" points="261.24 279.95 270.36 293.09 272.88 289.68 261.24 279.95"/>
      <polygon class="cls-188" points="261.28 279.99 270.36 293.08 272.87 289.68 261.28 279.99"/>
      <polygon class="cls-121" points="261.31 280.03 270.36 293.07 272.86 289.68 261.31 280.03"/>
      <polygon class="cls-93" points="261.35 280.07 270.36 293.06 272.85 289.69 261.35 280.07"/>
      <polygon class="cls-83" points="261.39 280.11 270.36 293.05 272.84 289.69 261.39 280.11"/>
      <polygon class="cls-100" points="261.42 280.15 270.36 293.04 272.83 289.69 261.42 280.15"/>
      <polygon class="cls-85" points="261.46 280.19 270.36 293.03 272.82 289.69 261.46 280.19"/>
      <polygon class="cls-106" points="261.5 280.23 270.36 293.01 272.81 289.69 261.5 280.23"/>
      <polygon class="cls-128" points="261.53 280.27 270.36 293 272.81 289.7 261.53 280.27"/>
      <polygon class="cls-145" points="261.57 280.31 270.36 292.99 272.8 289.7 261.57 280.31"/>
      <polygon class="cls-143" points="261.6 280.35 270.36 292.98 272.79 289.7 261.6 280.35"/>
      <polygon class="cls-77" points="261.64 280.39 270.36 292.97 272.78 289.7 261.64 280.39"/>
      <polygon class="cls-92" points="261.68 280.43 270.36 292.96 272.77 289.71 261.68 280.43"/>
      <polygon class="cls-168" points="261.71 280.47 270.37 292.95 272.76 289.71 261.71 280.47"/>
      <polygon class="cls-153" points="261.75 280.51 270.37 292.94 272.75 289.71 261.75 280.51"/>
      <polygon class="cls-186" points="261.79 280.55 270.37 292.92 272.74 289.71 261.79 280.55"/>
      <polygon class="cls-154" points="261.82 280.59 270.37 292.91 272.73 289.71 261.82 280.59"/>
      <polygon class="cls-152" points="261.86 280.64 270.37 292.9 272.72 289.72 261.86 280.64"/>
      <polygon class="cls-118" points="261.9 280.68 270.37 292.89 272.71 289.72 261.9 280.68"/>
      <polygon class="cls-158" points="261.93 280.72 270.37 292.88 272.7 289.72 261.93 280.72"/>
      <polygon class="cls-162" points="261.97 280.76 270.37 292.87 272.7 289.72 261.97 280.76"/>
      <polygon class="cls-174" points="262 280.8 270.37 292.86 272.69 289.72 262 280.8"/>
      <polygon class="cls-191" points="262.04 280.84 270.37 292.85 272.68 289.73 262.04 280.84"/>
      <polygon class="cls-180" points="262.08 280.88 270.37 292.83 272.67 289.73 262.08 280.88"/>
      <polygon class="cls-176" points="262.11 280.92 270.37 292.82 272.66 289.73 262.11 280.92"/>
      <polygon class="cls-172" points="262.15 280.96 270.37 292.81 272.65 289.73 262.15 280.96"/>
      <polygon class="cls-160" points="262.19 281 270.37 292.8 272.64 289.73 262.19 281"/>
      <polygon class="cls-190" points="262.22 281.04 270.38 292.79 272.63 289.74 262.22 281.04"/>
      <polygon class="cls-184" points="262.26 281.08 270.38 292.78 272.62 289.74 262.26 281.08"/>
      <polygon class="cls-29" points="262.3 281.12 270.38 292.77 272.61 289.74 262.3 281.12"/>
      <polygon class="cls-38" points="262.33 281.16 270.38 292.76 272.6 289.74 262.33 281.16"/>
      <polygon class="cls-27" points="262.37 281.2 270.38 292.74 272.59 289.75 262.37 281.2"/>
      <polygon class="cls-24" points="262.4 281.24 270.38 292.73 272.59 289.75 262.4 281.24"/>
      <polygon class="cls-19" points="262.44 281.28 270.38 292.72 272.58 289.75 262.44 281.28"/>
      <polygon class="cls-31" points="262.48 281.32 270.38 292.71 272.57 289.75 262.48 281.32"/>
      <polygon class="cls-20" points="262.51 281.36 270.38 292.7 272.56 289.75 262.51 281.36"/>
      <polygon class="cls-4" points="262.55 281.4 270.38 292.69 272.55 289.76 262.55 281.4"/>
      <polygon class="cls-5" points="262.59 281.44 270.38 292.68 272.54 289.76 262.59 281.44"/>
      <polygon class="cls-8" points="262.62 281.48 270.38 292.67 272.53 289.76 262.62 281.48"/>
      <polygon class="cls-41" points="262.66 281.52 270.38 292.65 272.52 289.76 262.66 281.52"/>
    </g>
    <ellipse class="cls-2" cx="265.95" cy="321.92" rx="2.12" ry="2.33"/>
    <ellipse class="cls-2" cx="289.45" cy="321.92" rx="2.12" ry="2.33"/>
    <ellipse class="cls-2" cx="269.45" cy="271.77" rx="2.12" ry="2.33"/>
    <ellipse class="cls-2" cx="287.13" cy="271.77" rx="2.12" ry="2.33"/>
    <ellipse class="cls-2" cx="301.71" cy="298.83" rx="2.12" ry="2.33"/>
    <ellipse class="cls-2" cx="255.87" cy="298.83" rx="2.12" ry="2.33"/>
    <ellipse id="_1" data-name="1" class="cls-219" cx="278.79" cy="298.83" rx="18.76" ry="20.66"/>
    <ellipse id="_2" data-name="2" class="cls-6" cx="278.79" cy="298.83" rx="17.76" ry="19.56"/>
    <ellipse id="_3" data-name="3" class="cls-214" cx="278.79" cy="298.83" rx="16.5" ry="18.17"/>
    <ellipse id="_4" data-name="4" class="cls-67" cx="278.79" cy="298.83" rx="15.51" ry="17.08"/>
    <ellipse id="_5" data-name="5" class="cls-205" cx="278.79" cy="298.83" rx="13.38" ry="14.73"/>
    <ellipse id="_6" data-name="6" class="cls-247" cx="278.79" cy="298.83" rx="11.68" ry="12.87"/>
    <g id="Bitcoin" class="cls-387">
      <path class="cls-39" d="M281.47,298.52h-.37c1.63,0,2.96-1.46,2.96-3.26v-.2c0-1.8-1.32-3.26-2.96-3.26h-.18v-2.65h-1.29v2.65h-1.85v-2.65h-1.29v2.65h-3.51v2.14h1.48v9.87h-1.66v2.04h3.7v2.65h1.29v-2.65h1.85v2.65h1.29v-2.65h.74c1.75-.12,3.14-1.71,3.14-3.66h0c0-2.02-1.49-3.66-3.33-3.66Zm-3.88-4.58h1.92c.87,0,1.57,.77,1.57,1.73s-.7,1.73-1.57,1.73h-1.92v-3.46Zm3.97,7.84c0,.96-.7,1.73-1.57,1.73h-2.4v-3.66h2.4c.87,0,1.57,.77,1.57,1.73v.2Z"/>
    </g>
  </g>
</svg>