<?xml version="1.0" encoding="utf-8"?>
<!-- Generator: Adobe Illustrator 27.0.0, SVG Export Plug-In . SVG Version: 6.00 Build 0)  -->
<svg version="1.1" xmlns="http://www.w3.org/2000/svg" xmlns:xlink="http://www.w3.org/1999/xlink" x="0px" y="0px"
	 viewBox="0 0 178.3 45.6" style="enable-background:new 0 0 178.3 45.6;" xml:space="preserve">
<style type="text/css">
	.st0{display:none;}
	.st1{display:inline;fill:#020202;}
	.st2{display:inline;fill:#F7F8F9;}
	.st3{font-family:'Georgia';}
	.st4{font-size:37px;}
	.st5{display:inline;}
	.st6{fill:#F7F8F9;}
	.st7{font-size:11px;}
	.st8{fill:#020202;}
	.st9{enable-background:new    ;}
	.st10{display:inline;fill:#FFFFFF;}
	.st11{display:inline;enable-background:new    ;}
</style>
<g id="Layer_1" class="st0">
	<rect id="Background" class="st1" width="178.3" height="45.6"/>
	<text transform="matrix(1 0 0 1 0 38.37)" class="st2 st3 st4">Certiblock</text>
	<g id="TM" class="st5">
		<text transform="matrix(1 0 0 1 164.49 16.36)" class="st6 st3 st7">™</text>
		<path class="st6" d="M169.7,3c-4.2,0-7.6,3.4-7.6,7.6s3.4,7.6,7.6,7.6s7.6-3.4,7.6-7.6S173.9,3,169.7,3z M169.7,16.3
			c-3.1,0-5.7-2.6-5.7-5.7s2.6-5.7,5.7-5.7s5.7,2.6,5.7,5.7S172.9,16.3,169.7,16.3z"/>
	</g>
</g>
<g id="Dark">
	<rect id="Background_00000057129300027621222070000000335802736754827943_" class="st8" width="178.3" height="45.6"/>
	<g class="st9">
		<path class="st6" d="M14.6,42.2c-1.5,0-3-0.3-4.4-0.9c-1.4-0.6-2.6-1.5-3.7-2.6c-1.1-1.1-1.9-2.5-2.6-4.1c-0.6-1.6-1-3.5-1-5.5
			s0.3-3.9,0.9-5.6c0.6-1.7,1.5-3.1,2.6-4.3c1.1-1.2,2.4-2.1,3.9-2.8c1.5-0.7,3.1-1,4.8-1c1.3,0,2.4,0.2,3.4,0.5
			c1,0.3,2,0.8,2.9,1.3l0.7-1.2h1.4l0.2,9.1h-1.5c-0.2-0.9-0.5-1.9-0.9-2.9c-0.4-1-0.8-1.9-1.4-2.6c-0.6-0.8-1.3-1.5-2.1-1.9
			S16.4,17,15.4,17c-1.2,0-2.3,0.3-3.3,0.8c-1,0.5-1.9,1.3-2.6,2.3c-0.7,1-1.2,2.2-1.6,3.7s-0.6,3.2-0.6,5c0,1.6,0.2,3.1,0.6,4.5
			s1,2.6,1.8,3.6c0.8,1,1.7,1.8,2.7,2.4c1.1,0.6,2.2,0.9,3.5,0.9c1,0,1.9-0.2,2.7-0.5c0.8-0.3,1.5-0.7,2.1-1.2
			c0.6-0.5,1.1-1.1,1.6-1.8c0.5-0.7,0.8-1.4,1.1-2.2l1.4,0.7c-1,2.5-2.4,4.4-4.1,5.4S17,42.2,14.6,42.2z"/>
		<path class="st6" d="M42.5,37.4c-0.7,1.4-1.7,2.6-3,3.4c-1.3,0.8-2.7,1.3-4.3,1.3c-1.4,0-2.7-0.3-3.8-0.8c-1.1-0.5-2-1.2-2.7-2.1
			c-0.7-0.9-1.2-1.9-1.6-3c-0.3-1.2-0.5-2.4-0.5-3.7c0-1.2,0.2-2.3,0.6-3.4c0.4-1.1,0.9-2.1,1.6-3c0.7-0.9,1.5-1.5,2.6-2.1
			c1-0.5,2.2-0.8,3.4-0.8c1.3,0,2.4,0.2,3.3,0.6c0.9,0.4,1.7,1,2.3,1.7c0.6,0.7,1,1.5,1.2,2.4c0.3,0.9,0.4,1.9,0.4,3v1.2H30.2
			c0,1.2,0.1,2.2,0.3,3.2c0.2,1,0.6,1.8,1.1,2.5c0.5,0.7,1.1,1.3,1.8,1.7c0.8,0.4,1.7,0.6,2.7,0.6c1.1,0,2-0.3,2.8-0.8
			c0.8-0.5,1.5-1.4,2.2-2.7L42.5,37.4z M38.5,30.6c0-0.7-0.1-1.4-0.2-2.2c-0.1-0.8-0.3-1.4-0.6-1.9c-0.3-0.6-0.7-1-1.1-1.4
			c-0.5-0.3-1.1-0.5-1.9-0.5c-1.3,0-2.3,0.5-3.2,1.6c-0.8,1.1-1.3,2.5-1.4,4.4H38.5z"/>
		<path class="st6" d="M58.2,26.1c0,0.6-0.2,1.2-0.5,1.6c-0.3,0.5-0.8,0.7-1.4,0.7c-0.7,0-1.2-0.2-1.5-0.5c-0.4-0.3-0.5-0.7-0.5-1.2
			c0-0.3,0-0.5,0.1-0.7c0-0.2,0.1-0.4,0.1-0.7c-0.6,0-1.2,0.2-2,0.7s-1.4,1.1-1.9,2v10.4c0,0.4,0.1,0.8,0.2,1
			c0.2,0.3,0.4,0.5,0.8,0.6c0.3,0.1,0.7,0.2,1.2,0.3c0.5,0.1,0.9,0.1,1.2,0.1v1.2h-9.4v-1.2c0.3,0,0.6,0,0.9-0.1
			c0.3,0,0.6-0.1,0.8-0.1c0.3-0.1,0.6-0.3,0.8-0.6c0.2-0.3,0.2-0.6,0.2-1.1v-11c0-0.4-0.1-0.7-0.3-1.1c-0.2-0.4-0.4-0.6-0.7-0.9
			c-0.2-0.1-0.5-0.2-0.8-0.3c-0.3-0.1-0.7-0.1-1-0.1V24l5.9-0.4l0.3,0.3v2.5h0.1c0.7-1,1.6-1.7,2.5-2.2c0.9-0.5,1.8-0.8,2.5-0.8
			s1.4,0.2,1.9,0.7C57.9,24.6,58.2,25.3,58.2,26.1z"/>
		<path class="st6" d="M70.7,40.9c-0.8,0.3-1.5,0.6-2.2,0.8c-0.7,0.2-1.6,0.3-2.6,0.3c-1.5,0-2.5-0.4-3.2-1.1
			c-0.6-0.8-0.9-1.8-0.9-3.2V25.6h-3.2v-1.7h3.3v-5.5h3.3v5.5h5.1v1.7h-5.1v10c0,0.7,0,1.4,0.1,1.9c0.1,0.5,0.2,0.9,0.4,1.3
			c0.2,0.3,0.5,0.6,0.9,0.8c0.4,0.2,0.9,0.3,1.6,0.3c0.3,0,0.7,0,1.3-0.1c0.6-0.1,1-0.1,1.2-0.2V40.9z"/>
		<path class="st6" d="M81.1,41.6h-8.6v-1.2c0.3,0,0.6,0,0.9-0.1c0.3,0,0.6-0.1,0.8-0.1c0.3-0.1,0.6-0.3,0.8-0.6
			c0.2-0.3,0.2-0.6,0.2-1.1v-11c0-0.4-0.1-0.7-0.3-1.1c-0.2-0.3-0.4-0.6-0.7-0.8c-0.2-0.1-0.6-0.3-1-0.4c-0.4-0.1-0.8-0.2-1.2-0.2
			V24l6.3-0.4l0.3,0.3v14.5c0,0.4,0.1,0.8,0.2,1s0.4,0.5,0.8,0.6c0.3,0.1,0.5,0.2,0.8,0.3c0.3,0.1,0.5,0.1,0.8,0.1V41.6z M78.8,16.6
			c0,0.7-0.2,1.3-0.7,1.8c-0.5,0.5-1,0.8-1.7,0.8c-0.6,0-1.1-0.2-1.6-0.7c-0.5-0.5-0.7-1-0.7-1.7c0-0.7,0.2-1.2,0.7-1.7
			c0.5-0.5,1-0.7,1.6-0.7c0.7,0,1.2,0.2,1.7,0.7C78.6,15.4,78.8,16,78.8,16.6z"/>
		<path class="st6" d="M101.4,32.7c0,2.7-0.8,4.9-2.5,6.7c-1.7,1.8-3.6,2.7-5.9,2.7c-1,0-1.9-0.2-2.9-0.5c-0.9-0.3-1.8-0.7-2.7-1.2
			l-1.3,2.1L85,42.3c0.1-0.9,0.1-2,0.1-3.2c0-1.3,0-2.5,0-3.6V17.8c0-0.4-0.1-0.8-0.3-1.2c-0.2-0.4-0.4-0.7-0.7-0.9
			c-0.2-0.2-0.6-0.3-1.1-0.4c-0.5-0.1-1-0.1-1.3-0.2v-1.2l6.5-0.4l0.3,0.3v11.7l0.1,0c0.7-0.8,1.6-1.4,2.4-1.8
			c0.9-0.4,1.8-0.6,2.6-0.6c2.2,0,4,0.9,5.5,2.6S101.4,29.9,101.4,32.7z M97.6,32.8c0-0.9-0.1-1.8-0.3-2.7c-0.2-0.9-0.5-1.7-0.9-2.4
			C96,27,95.5,26.4,94.8,26s-1.5-0.7-2.4-0.7c-0.8,0-1.6,0.2-2.2,0.5c-0.6,0.3-1.2,0.8-1.7,1.3v10.4c0.1,0.3,0.2,0.6,0.4,1
			c0.2,0.4,0.5,0.8,0.9,1.1c0.4,0.3,0.8,0.6,1.2,0.8c0.5,0.2,1,0.3,1.7,0.3c1.5,0,2.7-0.7,3.6-2.1S97.6,35.3,97.6,32.8z"/>
		<path class="st6" d="M112.4,41.6h-8.7v-1.2c0.3,0,0.6-0.1,0.9-0.1s0.6-0.1,0.8-0.1c0.3-0.1,0.6-0.3,0.8-0.6
			c0.2-0.3,0.3-0.6,0.3-1.1V18c0-0.4-0.1-0.8-0.3-1.2s-0.4-0.7-0.7-0.9c-0.2-0.1-0.6-0.3-1.2-0.4c-0.6-0.1-1-0.2-1.4-0.2v-1.2
			l6.7-0.4l0.3,0.3v24.4c0,0.4,0.1,0.8,0.2,1c0.2,0.3,0.4,0.5,0.8,0.6c0.3,0.1,0.5,0.2,0.8,0.3c0.3,0.1,0.6,0.1,0.9,0.1V41.6z"/>
		<path class="st6" d="M132,32.5c0,1.3-0.2,2.5-0.6,3.7c-0.4,1.2-1,2.2-1.7,3.1c-0.8,1-1.8,1.7-2.9,2.2c-1.1,0.5-2.3,0.7-3.7,0.7
			c-1.1,0-2.2-0.2-3.2-0.6c-1-0.4-1.9-1.1-2.7-1.9c-0.8-0.8-1.4-1.8-1.9-3s-0.7-2.5-0.7-3.9c0-2.8,0.8-5.1,2.4-6.8
			c1.6-1.8,3.7-2.7,6.4-2.7c2.5,0,4.6,0.8,6.2,2.5C131.2,27.5,132,29.8,132,32.5z M128.3,32.6c0-0.9-0.1-1.9-0.3-2.9
			c-0.2-1-0.5-1.9-0.8-2.6c-0.4-0.7-0.9-1.3-1.5-1.8c-0.6-0.5-1.4-0.7-2.3-0.7c-0.9,0-1.7,0.2-2.4,0.7c-0.7,0.5-1.2,1.1-1.6,1.9
			c-0.4,0.7-0.7,1.6-0.8,2.5c-0.2,0.9-0.2,1.8-0.2,2.7c0,1.2,0.1,2.2,0.3,3.2c0.2,1,0.5,1.9,0.9,2.6c0.4,0.8,0.9,1.4,1.5,1.8
			s1.4,0.7,2.3,0.7c1.5,0,2.7-0.7,3.6-2.2C127.8,37.2,128.3,35.1,128.3,32.6z"/>
		<path class="st6" d="M142.8,42.1c-2.6,0-4.6-0.9-6.1-2.6c-1.5-1.7-2.2-4-2.2-6.9c0-1.3,0.2-2.4,0.6-3.5c0.4-1.1,1-2.1,1.7-3
			c0.7-0.9,1.6-1.5,2.7-2.1c1.1-0.5,2.2-0.8,3.5-0.8c1.7,0,3.2,0.4,4.3,1.3c1.1,0.8,1.6,2,1.6,3.4c0,0.6-0.1,1.1-0.4,1.6
			s-0.8,0.7-1.4,0.7c-0.7,0-1.3-0.2-1.7-0.5s-0.6-0.8-0.6-1.2c0-0.5,0.1-1.1,0.2-1.7c0.1-0.6,0.2-1,0.3-1.3c-0.2-0.4-0.5-0.6-1-0.7
			c-0.4-0.1-0.9-0.2-1.4-0.2c-0.6,0-1.1,0.1-1.6,0.4c-0.5,0.2-1,0.7-1.5,1.4c-0.4,0.6-0.8,1.4-1.1,2.4c-0.3,1-0.4,2.2-0.4,3.7
			c0,2.2,0.5,4.1,1.5,5.5c1,1.4,2.3,2.1,3.9,2.1c1.2,0,2.1-0.3,2.9-0.9c0.8-0.6,1.5-1.4,2.2-2.6l1.2,0.8c-0.8,1.4-1.8,2.5-3.1,3.4
			C145.5,41.7,144.2,42.1,142.8,42.1z"/>
		<path class="st6" d="M170.2,41.6h-5.4c-0.9-1.4-1.9-2.8-3-4.4c-1.1-1.6-2.2-3.1-3.3-4.5l-1.5,1.4v4.2c0,0.4,0.1,0.8,0.2,1.1
			s0.4,0.5,0.8,0.6c0.3,0.1,0.6,0.2,0.8,0.3c0.3,0.1,0.6,0.1,0.9,0.1v1.2H151v-1.2c0.3,0,0.6-0.1,0.9-0.1s0.5-0.1,0.8-0.1
			c0.3-0.1,0.6-0.3,0.8-0.6c0.2-0.3,0.3-0.6,0.3-1.1V17.9c0-0.4-0.1-0.9-0.3-1.3c-0.2-0.4-0.4-0.7-0.7-0.9c-0.3-0.2-0.6-0.3-1.2-0.4
			s-1-0.1-1.3-0.1v-1.2l6.6-0.4l0.3,0.3v18.8c0.9-0.9,2-1.9,3-3s2-2,2.8-2.9c0.1-0.1,0.2-0.3,0.3-0.4c0.1-0.2,0.2-0.3,0.2-0.4
			c0-0.3-0.3-0.6-0.8-0.7c-0.5-0.2-1-0.3-1.5-0.3v-1.2h7.8v1.1c-1,0.3-1.9,0.7-2.7,1.1c-0.8,0.5-1.4,0.9-1.8,1.2
			c-0.3,0.2-0.7,0.6-1.2,1.2c-0.5,0.5-1.3,1.3-2.2,2.1c1,1.2,2.1,2.7,3.3,4.4s2.1,2.9,2.7,3.7c0.5,0.7,1,1.2,1.4,1.4
			c0.4,0.2,1,0.3,1.8,0.4V41.6z"/>
	</g>
	<g id="TM_00000158713601376454415140000002207724164545332109_">
		<g class="st9">
			<path class="st6" d="M166.6,9.8h-0.3c0-0.1-0.1-0.3-0.2-0.4c-0.1-0.2-0.2-0.3-0.3-0.3c-0.1,0-0.2,0-0.2,0s-0.1,0-0.2,0h-0.3v2.8
				c0,0,0,0.1,0,0.1c0,0,0.1,0.1,0.1,0.1c0,0,0.1,0,0.2,0s0.2,0,0.3,0v0.3h-1.9v-0.3c0.1,0,0.2,0,0.3,0c0.1,0,0.2,0,0.2,0
				c0.1,0,0.1,0,0.1-0.1c0,0,0-0.1,0-0.1V9h-0.3c-0.1,0-0.1,0-0.2,0c-0.1,0-0.2,0-0.2,0c-0.1,0-0.2,0.1-0.3,0.3s-0.2,0.3-0.2,0.4
				H163V8.7h3.6V9.8z M172.4,12.4h-1.9v-0.3c0.1,0,0.1,0,0.2,0s0.2,0,0.2,0c0.1,0,0.1-0.1,0.1-0.1c0,0,0-0.1,0-0.1V9.5h-0.1
				l-1.3,2.9h-0.2l-1.3-2.9h-0.1v2c0,0.2,0,0.3,0,0.4c0,0.1,0.1,0.2,0.1,0.2c0,0,0.1,0.1,0.2,0.1c0.1,0,0.2,0,0.3,0v0.3h-1.7v-0.3
				c0.1,0,0.1,0,0.3,0c0.1,0,0.2,0,0.3-0.1c0.1,0,0.1-0.1,0.1-0.2s0-0.2,0-0.5V9.5c0-0.1,0-0.2,0-0.2c0-0.1-0.1-0.1-0.1-0.2
				c-0.1,0-0.1-0.1-0.2-0.1c-0.1,0-0.2,0-0.3,0V8.7h1.5l1.1,2.5l0.9-2.1c0-0.1,0.1-0.2,0.1-0.3c0-0.1,0-0.1,0-0.2h1.4V9
				c-0.1,0-0.1,0-0.2,0c-0.1,0-0.2,0-0.2,0c-0.1,0-0.1,0-0.1,0.1c0,0,0,0.1,0,0.1v2.6c0,0,0,0.1,0,0.1c0,0,0,0.1,0.1,0.1
				c0,0,0.1,0,0.2,0c0.1,0,0.2,0,0.2,0V12.4z"/>
		</g>
		<path class="st6" d="M167.7,3c-4.2,0-7.6,3.4-7.6,7.6s3.4,7.6,7.6,7.6s7.6-3.4,7.6-7.6S171.9,3,167.7,3z M167.7,16.3
			c-3.1,0-5.7-2.6-5.7-5.7s2.6-5.7,5.7-5.7s5.7,2.6,5.7,5.7S170.9,16.3,167.7,16.3z"/>
	</g>
</g>
<g id="Light" class="st0">
	<rect id="Background_00000124158397170235131320000006384262426134617777_" class="st10" width="178.3" height="45.6"/>
	<g class="st11">
		<path class="st6" d="M14.6,42.2c-1.5,0-3-0.3-4.4-0.9c-1.4-0.6-2.6-1.5-3.7-2.6c-1.1-1.1-1.9-2.5-2.6-4.1c-0.6-1.6-1-3.5-1-5.5
			s0.3-3.9,0.9-5.6c0.6-1.7,1.5-3.1,2.6-4.3c1.1-1.2,2.4-2.1,3.9-2.8c1.5-0.7,3.1-1,4.8-1c1.3,0,2.4,0.2,3.4,0.5
			c1,0.3,2,0.8,2.9,1.3l0.7-1.2h1.4l0.2,9.1h-1.5c-0.2-0.9-0.5-1.9-0.9-2.9c-0.4-1-0.8-1.9-1.4-2.6c-0.6-0.8-1.3-1.5-2.1-1.9
			S16.4,17,15.4,17c-1.2,0-2.3,0.3-3.3,0.8c-1,0.5-1.9,1.3-2.6,2.3c-0.7,1-1.2,2.2-1.6,3.7s-0.6,3.2-0.6,5c0,1.6,0.2,3.1,0.6,4.5
			s1,2.6,1.8,3.6c0.8,1,1.7,1.8,2.7,2.4c1.1,0.6,2.2,0.9,3.5,0.9c1,0,1.9-0.2,2.7-0.5c0.8-0.3,1.5-0.7,2.1-1.2
			c0.6-0.5,1.1-1.1,1.6-1.8c0.5-0.7,0.8-1.4,1.1-2.2l1.4,0.7c-1,2.5-2.4,4.4-4.1,5.4S17,42.2,14.6,42.2z"/>
		<path class="st6" d="M42.5,37.4c-0.7,1.4-1.7,2.6-3,3.4c-1.3,0.8-2.7,1.3-4.3,1.3c-1.4,0-2.7-0.3-3.8-0.8c-1.1-0.5-2-1.2-2.7-2.1
			c-0.7-0.9-1.2-1.9-1.6-3c-0.3-1.2-0.5-2.4-0.5-3.7c0-1.2,0.2-2.3,0.6-3.4c0.4-1.1,0.9-2.1,1.6-3c0.7-0.9,1.5-1.5,2.6-2.1
			c1-0.5,2.2-0.8,3.4-0.8c1.3,0,2.4,0.2,3.3,0.6c0.9,0.4,1.7,1,2.3,1.7c0.6,0.7,1,1.5,1.2,2.4c0.3,0.9,0.4,1.9,0.4,3v1.2H30.2
			c0,1.2,0.1,2.2,0.3,3.2c0.2,1,0.6,1.8,1.1,2.5c0.5,0.7,1.1,1.3,1.8,1.7c0.8,0.4,1.7,0.6,2.7,0.6c1.1,0,2-0.3,2.8-0.8
			c0.8-0.5,1.5-1.4,2.2-2.7L42.5,37.4z M38.5,30.6c0-0.7-0.1-1.4-0.2-2.2c-0.1-0.8-0.3-1.4-0.6-1.9c-0.3-0.6-0.7-1-1.1-1.4
			c-0.5-0.3-1.1-0.5-1.9-0.5c-1.3,0-2.3,0.5-3.2,1.6c-0.8,1.1-1.3,2.5-1.4,4.4H38.5z"/>
		<path class="st6" d="M58.2,26.1c0,0.6-0.2,1.2-0.5,1.6c-0.3,0.5-0.8,0.7-1.4,0.7c-0.7,0-1.2-0.2-1.5-0.5c-0.4-0.3-0.5-0.7-0.5-1.2
			c0-0.3,0-0.5,0.1-0.7c0-0.2,0.1-0.4,0.1-0.7c-0.6,0-1.2,0.2-2,0.7s-1.4,1.1-1.9,2v10.4c0,0.4,0.1,0.8,0.2,1
			c0.2,0.3,0.4,0.5,0.8,0.6c0.3,0.1,0.7,0.2,1.2,0.3c0.5,0.1,0.9,0.1,1.2,0.1v1.2h-9.4v-1.2c0.3,0,0.6,0,0.9-0.1
			c0.3,0,0.6-0.1,0.8-0.1c0.3-0.1,0.6-0.3,0.8-0.6c0.2-0.3,0.2-0.6,0.2-1.1v-11c0-0.4-0.1-0.7-0.3-1.1c-0.2-0.4-0.4-0.6-0.7-0.9
			c-0.2-0.1-0.5-0.2-0.8-0.3c-0.3-0.1-0.7-0.1-1-0.1V24l5.9-0.4l0.3,0.3v2.5h0.1c0.7-1,1.6-1.7,2.5-2.2c0.9-0.5,1.8-0.8,2.5-0.8
			s1.4,0.2,1.9,0.7C57.9,24.6,58.2,25.3,58.2,26.1z"/>
		<path class="st6" d="M70.7,40.9c-0.8,0.3-1.5,0.6-2.2,0.8c-0.7,0.2-1.6,0.3-2.6,0.3c-1.5,0-2.5-0.4-3.2-1.1
			c-0.6-0.8-0.9-1.8-0.9-3.2V25.6h-3.2v-1.7h3.3v-5.5h3.3v5.5h5.1v1.7h-5.1v10c0,0.7,0,1.4,0.1,1.9c0.1,0.5,0.2,0.9,0.4,1.3
			c0.2,0.3,0.5,0.6,0.9,0.8c0.4,0.2,0.9,0.3,1.6,0.3c0.3,0,0.7,0,1.3-0.1c0.6-0.1,1-0.1,1.2-0.2V40.9z"/>
		<path class="st6" d="M81.1,41.6h-8.6v-1.2c0.3,0,0.6,0,0.9-0.1c0.3,0,0.6-0.1,0.8-0.1c0.3-0.1,0.6-0.3,0.8-0.6
			c0.2-0.3,0.2-0.6,0.2-1.1v-11c0-0.4-0.1-0.7-0.3-1.1c-0.2-0.3-0.4-0.6-0.7-0.8c-0.2-0.1-0.6-0.3-1-0.4c-0.4-0.1-0.8-0.2-1.2-0.2
			V24l6.3-0.4l0.3,0.3v14.5c0,0.4,0.1,0.8,0.2,1s0.4,0.5,0.8,0.6c0.3,0.1,0.5,0.2,0.8,0.3c0.3,0.1,0.5,0.1,0.8,0.1V41.6z M78.8,16.6
			c0,0.7-0.2,1.3-0.7,1.8c-0.5,0.5-1,0.8-1.7,0.8c-0.6,0-1.1-0.2-1.6-0.7c-0.5-0.5-0.7-1-0.7-1.7c0-0.7,0.2-1.2,0.7-1.7
			c0.5-0.5,1-0.7,1.6-0.7c0.7,0,1.2,0.2,1.7,0.7C78.6,15.4,78.8,16,78.8,16.6z"/>
		<path class="st6" d="M101.4,32.7c0,2.7-0.8,4.9-2.5,6.7c-1.7,1.8-3.6,2.7-5.9,2.7c-1,0-1.9-0.2-2.9-0.5c-0.9-0.3-1.8-0.7-2.7-1.2
			l-1.3,2.1L85,42.3c0.1-0.9,0.1-2,0.1-3.2c0-1.3,0-2.5,0-3.6V17.8c0-0.4-0.1-0.8-0.3-1.2c-0.2-0.4-0.4-0.7-0.7-0.9
			c-0.2-0.2-0.6-0.3-1.1-0.4c-0.5-0.1-1-0.1-1.3-0.2v-1.2l6.5-0.4l0.3,0.3v11.7l0.1,0c0.7-0.8,1.6-1.4,2.4-1.8
			c0.9-0.4,1.8-0.6,2.6-0.6c2.2,0,4,0.9,5.5,2.6S101.4,29.9,101.4,32.7z M97.6,32.8c0-0.9-0.1-1.8-0.3-2.7c-0.2-0.9-0.5-1.7-0.9-2.4
			C96,27,95.5,26.4,94.8,26s-1.5-0.7-2.4-0.7c-0.8,0-1.6,0.2-2.2,0.5c-0.6,0.3-1.2,0.8-1.7,1.3v10.4c0.1,0.3,0.2,0.6,0.4,1
			c0.2,0.4,0.5,0.8,0.9,1.1c0.4,0.3,0.8,0.6,1.2,0.8c0.5,0.2,1,0.3,1.7,0.3c1.5,0,2.7-0.7,3.6-2.1S97.6,35.3,97.6,32.8z"/>
		<path class="st6" d="M112.4,41.6h-8.7v-1.2c0.3,0,0.6-0.1,0.9-0.1s0.6-0.1,0.8-0.1c0.3-0.1,0.6-0.3,0.8-0.6
			c0.2-0.3,0.3-0.6,0.3-1.1V18c0-0.4-0.1-0.8-0.3-1.2s-0.4-0.7-0.7-0.9c-0.2-0.1-0.6-0.3-1.2-0.4c-0.6-0.1-1-0.2-1.4-0.2v-1.2
			l6.7-0.4l0.3,0.3v24.4c0,0.4,0.1,0.8,0.2,1c0.2,0.3,0.4,0.5,0.8,0.6c0.3,0.1,0.5,0.2,0.8,0.3c0.3,0.1,0.6,0.1,0.9,0.1V41.6z"/>
		<path class="st6" d="M132,32.5c0,1.3-0.2,2.5-0.6,3.7c-0.4,1.2-1,2.2-1.7,3.1c-0.8,1-1.8,1.7-2.9,2.2c-1.1,0.5-2.3,0.7-3.7,0.7
			c-1.1,0-2.2-0.2-3.2-0.6c-1-0.4-1.9-1.1-2.7-1.9c-0.8-0.8-1.4-1.8-1.9-3s-0.7-2.5-0.7-3.9c0-2.8,0.8-5.1,2.4-6.8
			c1.6-1.8,3.7-2.7,6.4-2.7c2.5,0,4.6,0.8,6.2,2.5C131.2,27.5,132,29.8,132,32.5z M128.3,32.6c0-0.9-0.1-1.9-0.3-2.9
			c-0.2-1-0.5-1.9-0.8-2.6c-0.4-0.7-0.9-1.3-1.5-1.8c-0.6-0.5-1.4-0.7-2.3-0.7c-0.9,0-1.7,0.2-2.4,0.7c-0.7,0.5-1.2,1.1-1.6,1.9
			c-0.4,0.7-0.7,1.6-0.8,2.5c-0.2,0.9-0.2,1.8-0.2,2.7c0,1.2,0.1,2.2,0.3,3.2c0.2,1,0.5,1.9,0.9,2.6c0.4,0.8,0.9,1.4,1.5,1.8
			s1.4,0.7,2.3,0.7c1.5,0,2.7-0.7,3.6-2.2C127.8,37.2,128.3,35.1,128.3,32.6z"/>
		<path class="st6" d="M142.8,42.1c-2.6,0-4.6-0.9-6.1-2.6c-1.5-1.7-2.2-4-2.2-6.9c0-1.3,0.2-2.4,0.6-3.5c0.4-1.1,1-2.1,1.7-3
			c0.7-0.9,1.6-1.5,2.7-2.1c1.1-0.5,2.2-0.8,3.5-0.8c1.7,0,3.2,0.4,4.3,1.3c1.1,0.8,1.6,2,1.6,3.4c0,0.6-0.1,1.1-0.4,1.6
			s-0.8,0.7-1.4,0.7c-0.7,0-1.3-0.2-1.7-0.5s-0.6-0.8-0.6-1.2c0-0.5,0.1-1.1,0.2-1.7c0.1-0.6,0.2-1,0.3-1.3c-0.2-0.4-0.5-0.6-1-0.7
			c-0.4-0.1-0.9-0.2-1.4-0.2c-0.6,0-1.1,0.1-1.6,0.4c-0.5,0.2-1,0.7-1.5,1.4c-0.4,0.6-0.8,1.4-1.1,2.4c-0.3,1-0.4,2.2-0.4,3.7
			c0,2.2,0.5,4.1,1.5,5.5c1,1.4,2.3,2.1,3.9,2.1c1.2,0,2.1-0.3,2.9-0.9c0.8-0.6,1.5-1.4,2.2-2.6l1.2,0.8c-0.8,1.4-1.8,2.5-3.1,3.4
			C145.5,41.7,144.2,42.1,142.8,42.1z"/>
		<path class="st6" d="M170.2,41.6h-5.4c-0.9-1.4-1.9-2.8-3-4.4c-1.1-1.6-2.2-3.1-3.3-4.5l-1.5,1.4v4.2c0,0.4,0.1,0.8,0.2,1.1
			s0.4,0.5,0.8,0.6c0.3,0.1,0.6,0.2,0.8,0.3c0.3,0.1,0.6,0.1,0.9,0.1v1.2H151v-1.2c0.3,0,0.6-0.1,0.9-0.1s0.5-0.1,0.8-0.1
			c0.3-0.1,0.6-0.3,0.8-0.6c0.2-0.3,0.3-0.6,0.3-1.1V17.9c0-0.4-0.1-0.9-0.3-1.3c-0.2-0.4-0.4-0.7-0.7-0.9c-0.3-0.2-0.6-0.3-1.2-0.4
			s-1-0.1-1.3-0.1v-1.2l6.6-0.4l0.3,0.3v18.8c0.9-0.9,2-1.9,3-3s2-2,2.8-2.9c0.1-0.1,0.2-0.3,0.3-0.4c0.1-0.2,0.2-0.3,0.2-0.4
			c0-0.3-0.3-0.6-0.8-0.7c-0.5-0.2-1-0.3-1.5-0.3v-1.2h7.8v1.1c-1,0.3-1.9,0.7-2.7,1.1c-0.8,0.5-1.4,0.9-1.8,1.2
			c-0.3,0.2-0.7,0.6-1.2,1.2c-0.5,0.5-1.3,1.3-2.2,2.1c1,1.2,2.1,2.7,3.3,4.4s2.1,2.9,2.7,3.7c0.5,0.7,1,1.2,1.4,1.4
			c0.4,0.2,1,0.3,1.8,0.4V41.6z"/>
	</g>
	<g id="TM_00000117672031838822966380000017502913211381728415_" class="st5">
		<g class="st9">
			<path class="st6" d="M166.6,9.8h-0.3c0-0.1-0.1-0.3-0.2-0.4c-0.1-0.2-0.2-0.3-0.3-0.3c-0.1,0-0.2,0-0.2,0s-0.1,0-0.2,0h-0.3v2.8
				c0,0,0,0.1,0,0.1c0,0,0.1,0.1,0.1,0.1c0,0,0.1,0,0.2,0s0.2,0,0.3,0v0.3h-1.9v-0.3c0.1,0,0.2,0,0.3,0c0.1,0,0.2,0,0.2,0
				c0.1,0,0.1,0,0.1-0.1c0,0,0-0.1,0-0.1V9h-0.3c-0.1,0-0.1,0-0.2,0c-0.1,0-0.2,0-0.2,0c-0.1,0-0.2,0.1-0.3,0.3s-0.2,0.3-0.2,0.4
				H163V8.7h3.6V9.8z M172.4,12.4h-1.9v-0.3c0.1,0,0.1,0,0.2,0s0.2,0,0.2,0c0.1,0,0.1-0.1,0.1-0.1c0,0,0-0.1,0-0.1V9.5h-0.1
				l-1.3,2.9h-0.2l-1.3-2.9h-0.1v2c0,0.2,0,0.3,0,0.4c0,0.1,0.1,0.2,0.1,0.2c0,0,0.1,0.1,0.2,0.1c0.1,0,0.2,0,0.3,0v0.3h-1.7v-0.3
				c0.1,0,0.1,0,0.3,0c0.1,0,0.2,0,0.3-0.1c0.1,0,0.1-0.1,0.1-0.2s0-0.2,0-0.5V9.5c0-0.1,0-0.2,0-0.2c0-0.1-0.1-0.1-0.1-0.2
				c-0.1,0-0.1-0.1-0.2-0.1c-0.1,0-0.2,0-0.3,0V8.7h1.5l1.1,2.5l0.9-2.1c0-0.1,0.1-0.2,0.1-0.3c0-0.1,0-0.1,0-0.2h1.4V9
				c-0.1,0-0.1,0-0.2,0c-0.1,0-0.2,0-0.2,0c-0.1,0-0.1,0-0.1,0.1c0,0,0,0.1,0,0.1v2.6c0,0,0,0.1,0,0.1c0,0,0,0.1,0.1,0.1
				c0,0,0.1,0,0.2,0c0.1,0,0.2,0,0.2,0V12.4z"/>
		</g>
		<path class="st6" d="M167.7,3c-4.2,0-7.6,3.4-7.6,7.6s3.4,7.6,7.6,7.6s7.6-3.4,7.6-7.6S171.9,3,167.7,3z M167.7,16.3
			c-3.1,0-5.7-2.6-5.7-5.7s2.6-5.7,5.7-5.7s5.7,2.6,5.7,5.7S170.9,16.3,167.7,16.3z"/>
	</g>
</g>
</svg>
